<svg width="38" height="38" viewBox="0 0 38 38" fill="none" xmlns="http://www.w3.org/2000/svg">
<path d="M6.33317 31.6663C5.46234 31.6663 4.71712 31.3565 4.0975 30.7369C3.47789 30.1173 3.16756 29.3716 3.1665 28.4997V9.49967C3.1665 8.62884 3.47684 7.88362 4.0975 7.26401C4.71817 6.6444 5.46339 6.33406 6.33317 6.33301H31.6665C32.5373 6.33301 33.2831 6.64334 33.9038 7.26401C34.5244 7.88467 34.8342 8.6299 34.8332 9.49967V28.4997C34.8332 29.3705 34.5234 30.1163 33.9038 30.7369C33.2841 31.3576 32.5384 31.6674 31.6665 31.6663H6.33317ZM18.9998 20.583L6.33317 12.6663V28.4997H31.6665V12.6663L18.9998 20.583ZM18.9998 17.4163L31.6665 9.49967H6.33317L18.9998 17.4163ZM6.33317 12.6663V9.49967V28.4997V12.6663Z" fill="#578B23"/>
</svg>
