<svg width="38" height="38" viewBox="0 0 38 38" fill="none" xmlns="http://www.w3.org/2000/svg">
<path d="M25.3332 15.8333C25.3332 12.3342 22.499 9.5 18.9998 9.5C15.5007 9.5 12.6665 12.3342 12.6665 15.8333C12.6665 19.3325 15.5007 22.1667 18.9998 22.1667C22.499 22.1667 25.3332 19.3325 25.3332 15.8333ZM15.8332 15.8333C15.8332 14.0917 17.2582 12.6667 18.9998 12.6667C20.7415 12.6667 22.1665 14.0917 22.1665 15.8333C22.1665 17.575 20.7415 19 18.9998 19C17.2582 19 15.8332 17.575 15.8332 15.8333Z" fill="#578B23"/>
<path d="M18.0815 34.5321C18.3507 34.7221 18.6832 34.8329 18.9998 34.8329C19.3165 34.8329 19.649 34.7379 19.9182 34.5321C20.3932 34.1837 31.714 26.0296 31.6665 15.8171C31.6665 8.83456 25.9823 3.15039 18.9998 3.15039C12.0173 3.15039 6.33316 8.83456 6.33316 15.8171C6.28566 26.0137 17.6065 34.1837 18.0815 34.5321ZM18.9998 6.33289C24.2407 6.33289 28.4998 10.5921 28.4998 15.8329C28.5315 22.8629 21.549 29.1804 18.9998 31.2546C16.4507 29.1804 9.46816 22.8787 9.49982 15.8329C9.49982 10.5921 13.759 6.33289 18.9998 6.33289Z" fill="#578B23"/>
</svg>
