<svg width="38" height="38" viewBox="0 0 38 38" fill="none" xmlns="http://www.w3.org/2000/svg">
<path d="M12.6668 4.75C13.4585 4.75 16.6252 11.875 16.6252 12.6667C16.6252 14.25 14.2502 15.8333 13.4585 17.4167C12.6668 19 14.2502 20.5833 15.8335 22.1667C16.451 22.7842 19.0002 25.3333 20.5835 24.5417C22.1668 23.75 23.7502 21.375 25.3335 21.375C26.1252 21.375 33.2502 24.5417 33.2502 25.3333C33.2502 28.5 30.8752 30.875 28.5002 31.6667C26.1252 32.4583 24.5418 32.4583 21.3752 31.6667C18.2085 30.875 15.8335 30.0833 11.8752 26.125C7.91683 22.1667 7.12516 19.7917 6.3335 16.625C5.54183 13.4583 5.54183 11.875 6.3335 9.5C7.12516 7.125 9.50016 4.75 12.6668 4.75Z" stroke="#578B23" stroke-width="3" stroke-linecap="round" stroke-linejoin="round"/>
</svg>
