<svg width="38" height="38" viewBox="0 0 38 38" fill="none" xmlns="http://www.w3.org/2000/svg">
<path d="M30.1623 7.77458C28.7105 6.30858 26.9814 5.14619 25.0758 4.35515C23.1703 3.56411 21.1263 3.16024 19.0631 3.16708C10.4181 3.16708 3.37227 10.2129 3.37227 18.8579C3.37227 21.6287 4.10061 24.3204 5.46227 26.6954L3.24561 34.8337L11.5581 32.6487C13.8539 33.8996 16.4348 34.5646 19.0631 34.5646C27.7081 34.5646 34.7539 27.5187 34.7539 18.8737C34.7539 14.6779 33.1231 10.7354 30.1623 7.77458ZM19.0631 31.9046C16.7198 31.9046 14.4239 31.2712 12.4131 30.0837L11.9381 29.7987L6.99811 31.0971L8.31227 26.2837L7.99561 25.7929C6.69339 23.7141 6.00207 21.3109 6.00061 18.8579C6.00061 11.6696 11.8589 5.81124 19.0473 5.81124C22.5306 5.81124 25.8081 7.17291 28.2623 9.64291C29.4777 10.8524 30.4408 12.2911 31.0958 13.8757C31.7509 15.4603 32.0848 17.1591 32.0781 18.8737C32.1098 26.0621 26.2514 31.9046 19.0631 31.9046ZM26.2198 22.1512C25.8239 21.9612 23.8923 21.0112 23.5439 20.8687C23.1798 20.7421 22.9264 20.6787 22.6573 21.0587C22.3881 21.4546 21.6439 22.3412 21.4223 22.5946C21.2006 22.8637 20.9631 22.8954 20.5673 22.6896C20.1714 22.4996 18.9048 22.0721 17.4164 20.7421C16.2448 19.6971 15.4689 18.4146 15.2314 18.0187C15.0098 17.6229 15.1998 17.4171 15.4056 17.2112C15.5798 17.0371 15.8014 16.7521 15.9914 16.5304C16.1814 16.3087 16.2606 16.1346 16.3873 15.8812C16.5139 15.6121 16.4506 15.3904 16.3556 15.2004C16.2606 15.0104 15.4689 13.0787 15.1523 12.2871C14.8356 11.5271 14.5031 11.6221 14.2656 11.6062H13.5056C13.2364 11.6062 12.8248 11.7012 12.4606 12.0971C12.1123 12.4929 11.0989 13.4429 11.0989 15.3746C11.0989 17.3062 12.5081 19.1746 12.6981 19.4279C12.8881 19.6971 15.4689 23.6554 19.3956 25.3496C20.3298 25.7612 21.0581 25.9987 21.6281 26.1729C22.5623 26.4737 23.4173 26.4262 24.0981 26.3312C24.8581 26.2204 26.4256 25.3812 26.7423 24.4629C27.0748 23.5446 27.0748 22.7687 26.9639 22.5946C26.8531 22.4204 26.6156 22.3412 26.2198 22.1512Z" fill="#578B23"/>
</svg>
