<svg width="30" height="30" viewBox="0 0 30 30" fill="none" xmlns="http://www.w3.org/2000/svg">
<path d="M21.25 2.5H8.75C5.29822 2.5 2.5 5.29822 2.5 8.75V21.25C2.5 24.7018 5.29822 27.5 8.75 27.5H21.25C24.7018 27.5 27.5 24.7018 27.5 21.25V8.75C27.5 5.29822 24.7018 2.5 21.25 2.5Z" stroke="white" stroke-width="2.5" stroke-linecap="round" stroke-linejoin="round"/>
<path d="M19.9996 14.2129C20.1539 15.2532 19.9762 16.3156 19.4918 17.2491C19.0075 18.1826 18.2411 18.9396 17.3017 19.4125C16.3623 19.8853 15.2977 20.0499 14.2594 19.8828C13.221 19.7157 12.2618 19.2255 11.5182 18.4818C10.7745 17.7382 10.2843 16.779 10.1172 15.7406C9.95014 14.7023 10.1147 13.6377 10.5875 12.6983C11.0604 11.7589 11.8174 10.9926 12.7509 10.5082C13.6844 10.0238 14.7468 9.84611 15.7871 10.0004C16.8483 10.1577 17.8307 10.6522 18.5893 11.4108C19.3478 12.1693 19.8423 13.1517 19.9996 14.2129Z" stroke="white" stroke-width="2.5" stroke-linecap="round" stroke-linejoin="round"/>
<path d="M21.875 8.125H21.8875" stroke="white" stroke-width="2.5" stroke-linecap="round" stroke-linejoin="round"/>
</svg>
