<svg width="24" height="24" viewBox="0 0 24 24" fill="none" xmlns="http://www.w3.org/2000/svg">
<path d="M19.2018 7.30059C17.3018 6.90059 15.9018 5.30059 15.8018 3.40059V3.10059H12.7018V15.6006C12.7018 17.1006 11.5018 18.2006 10.1018 18.2006C9.30175 18.2006 8.50175 17.8006 8.00175 17.2006C7.00175 16.0006 7.20175 14.3006 8.40175 13.4006C9.00175 13.0006 9.50175 13.0006 10.2018 13.0006V9.80059C7.00175 9.40059 4.70175 11.6006 4.20175 14.7006C4.00175 16.5006 4.50175 18.2006 5.80175 19.5006C8.00175 21.8006 11.7018 21.8006 14.0018 19.6006C15.1018 18.5006 15.7018 17.0006 15.7018 15.5006V9.20059C17.0018 10.1006 18.5018 10.6006 20.1018 10.6006V7.40059C19.8018 7.40059 19.5018 7.40059 19.2018 7.30059Z" fill="#82B74C"/>
</svg>
