<svg width="30" height="30" viewBox="0 0 30 30" fill="none" xmlns="http://www.w3.org/2000/svg">
<path d="M24.0024 9.12598C21.6274 8.62598 19.8774 6.62598 19.7524 4.25098V3.87598H15.8774V19.501C15.8774 21.376 14.3774 22.751 12.6274 22.751C11.6274 22.751 10.6274 22.251 10.0024 21.501C8.75243 20.001 9.00243 17.876 10.5024 16.751C11.2524 16.251 11.8774 16.251 12.7524 16.251V12.251C8.75243 11.751 5.87743 14.501 5.25243 18.376C5.00243 20.626 5.62743 22.751 7.25243 24.376C10.0024 27.251 14.6274 27.251 17.5024 24.501C18.8774 23.126 19.6274 21.251 19.6274 19.376V11.501C21.2524 12.626 23.1274 13.251 25.1274 13.251V9.25098C24.7524 9.25098 24.3774 9.25098 24.0024 9.12598Z" fill="white"/>
</svg>
