<svg width="30" height="30" viewBox="0 0 30 30" fill="none" xmlns="http://www.w3.org/2000/svg">
<path d="M6.87468 2.5H5.12468C3.87468 2.5 3.24968 3.875 4.12468 4.75L11.2497 11.875C13.2497 13.875 16.6247 13.875 18.6247 11.875L25.7497 4.75C26.7497 3.875 26.1247 2.5 24.8747 2.5H23.1247C22.1247 2.5 21.1247 2.875 20.3747 3.625L15.8747 8.125C15.3747 8.625 14.4997 8.625 13.9997 8.125L9.62468 3.625C8.87468 2.875 7.87468 2.5 6.87468 2.5Z" fill="white"/>
<path d="M6.87505 27.5H5.12505C4.00005 27.5 3.37505 26.125 4.25005 25.25L11.2501 18.125C13.2501 16.125 16.6251 16.125 18.6251 18.125L25.7501 25.25C26.6251 26.125 26.0001 27.5 24.8751 27.5H23.1251C22.1251 27.5 21.125 27.125 20.375 26.375L15.8751 21.875C15.3751 21.375 14.5001 21.375 14.0001 21.875L9.50005 26.375C8.87505 27 7.87505 27.5 6.87505 27.5Z" fill="white"/>
</svg>
