<svg width="26" height="32" viewBox="0 0 26 32" fill="none" xmlns="http://www.w3.org/2000/svg">
<g clip-path="url(#clip0_6370_6383)">
<path d="M13 -0.142578C9.32286 -0.142578 6.31429 2.77298 6.31429 6.32853V8.9952H1.11429C0.482857 8.9952 0 9.45742 0 10.0619V26.773C0 29.7241 2.48857 32.1063 5.57143 32.1063H20.4286C23.5114 32.1063 26 29.7241 26 26.773V10.0619C26 9.45742 25.5171 8.9952 24.8857 8.9952H19.6857V6.32853C19.6857 2.77298 16.6771 -0.142578 13 -0.142578ZM8.54286 6.32853C8.54286 3.94631 10.5486 1.99076 13 1.99076C15.4514 1.99076 17.4571 3.94631 17.4571 6.32853V8.9952H8.54286V6.32853ZM23.7714 11.1641V26.8085C23.7714 28.5863 22.2857 30.0085 20.4286 30.0085H5.57143C3.71429 30.0085 2.22857 28.5863 2.22857 26.8085V11.1641H6.31429V13.013C6.31429 13.6174 6.79714 14.0796 7.42857 14.0796C8.06 14.0796 8.54286 13.6174 8.54286 13.013V11.1641H17.4571V13.013C17.4571 13.6174 17.94 14.0796 18.5714 14.0796C19.2029 14.0796 19.6857 13.6174 19.6857 13.013V11.1641H23.7714Z" fill="white"/>
</g>
<defs>
<clipPath id="clip0_6370_6383">
<rect width="26" height="32" fill="white"/>
</clipPath>
</defs>
</svg>
