<svg width="26" height="32" viewBox="0 0 26 32" fill="none" xmlns="http://www.w3.org/2000/svg">
<g clip-path="url(#clip0_6370_6375)">
<path d="M24.432 5.79159H24.1873C23.9703 4.32818 22.8516 2.46995 21.4067 2.46995H17.6242V1.77485C17.6242 0.741328 16.7779 -0.0986328 15.733 -0.0986328H10.2655C9.22219 -0.0986328 8.37427 0.739767 8.37427 1.77485V2.46995H4.59182C3.14532 2.46995 2.02661 4.32818 1.81116 5.79159H1.56649C0.763211 5.79159 0.112305 6.43948 0.112305 7.23214V9.15592C0.112305 9.95167 0.766323 10.5965 1.56649 10.5965H2.07893L2.85913 29.9713C2.90683 31.1619 3.884 32.0948 5.08425 32.0948H20.9096C22.1114 32.0948 23.0885 31.1619 23.1347 29.9713L23.9149 10.5965H24.4273C25.2306 10.5965 25.8815 9.94859 25.8815 9.15592V7.23214C25.8815 6.43639 25.2275 5.79159 24.4273 5.79159H24.432ZM4.59359 3.44556H21.4069C22.1748 3.44556 22.995 4.69403 23.1951 5.79159H2.80554C3.01021 4.69555 3.82569 3.44556 4.59359 3.44556ZM22.1546 29.9396C22.1315 30.6027 21.5837 31.1225 20.9143 31.1225H5.09059C4.42121 31.1225 3.87339 30.6042 3.85031 29.9365L3.07011 10.5996H22.9365L22.1563 29.9397L22.1546 29.9396Z" fill="#82B74C"/>
<path d="M12.9648 12.4375H13.0356C13.9881 12.4375 14.7606 13.3811 14.7606 14.1463V27.5395C14.7606 28.4831 13.9881 29.2483 13.0356 29.2483H12.9648C12.0122 29.2483 11.2397 28.3047 11.2397 27.5395V14.1463C11.2397 13.2027 12.0122 12.4375 12.9648 12.4375Z" fill="#82B74C"/>
<path d="M7.52483 14.416H7.59561C8.54816 14.416 9.32063 15.3596 9.32063 16.1249V25.5578C9.32063 26.5014 8.54816 27.2667 7.59561 27.2667H7.52483C6.57228 27.2667 5.7998 26.3231 5.7998 25.5578V16.1249C5.7998 15.1812 6.57228 14.416 7.52483 14.416Z" fill="#82B74C"/>
<path d="M18.4042 14.416H18.475C19.4276 14.416 20.2 15.3596 20.2 16.1249V25.5578C20.2 26.5014 19.4276 27.2667 18.475 27.2667H18.4042C17.4517 27.2667 16.6792 26.3231 16.6792 25.5578V16.1249C16.6792 15.1812 17.4517 14.416 18.4042 14.416Z" fill="#82B74C"/>
</g>
<defs>
<clipPath id="clip0_6370_6375">
<rect width="26" height="32" fill="white"/>
</clipPath>
</defs>
</svg>
