<svg width="99" height="145" viewBox="0 0 99 145" fill="none" xmlns="http://www.w3.org/2000/svg">
<path fill-rule="evenodd" clip-rule="evenodd" d="M45.4389 18.2468C42.9746 17.5087 40.452 17.2775 37.9254 16.973C37.3944 16.9091 36.8512 16.7643 36.3165 16.7061C35.5924 16.6265 34.7376 16.6188 34.0093 16.7207C33.2753 16.8224 32.5222 16.6944 31.795 16.8117C31.1428 16.9168 30.4742 17.0941 29.8285 17.254C28.7757 17.514 28.0712 17.8454 27.1583 18.4753C26.0458 19.2428 25.1019 19.8826 24.1668 20.9061C23.2534 21.9042 22.2876 22.8699 21.3383 23.8299C20.6522 24.5238 19.9405 25.3028 19.0993 25.7759C18.6 26.055 18.5204 25.7336 18.1988 25.2843C17.3273 24.0709 16.0169 23.2874 15.0121 22.1976C14.3038 21.4281 13.5192 20.7047 12.7695 19.9758C11.4505 18.6928 10.5351 17.0605 9.24309 15.7559C8.58557 15.092 7.84525 14.5425 7.23649 13.8242C6.53919 13.002 5.80852 12.2206 5.08845 11.4233C4.75872 11.0588 4.38886 10.7269 4.08664 10.3399C3.95747 10.1747 3.88742 9.95269 3.69136 9.86153C3.34705 10.2639 2.89928 11.2762 2.75541 11.8396C2.5474 12.6533 3.39941 13.1243 3.95653 13.5591C6.12864 15.2569 8.3037 16.6578 9.97398 18.9587C10.9274 20.2729 11.7669 21.6756 12.7259 22.985C14.1406 24.9162 15.618 26.7566 16.6929 28.9543C17.7462 31.1073 18.5958 33.4944 19.2701 35.8212C19.5566 36.8107 19.9156 37.9014 19.7293 38.9263C19.3792 40.8515 19.3431 42.9401 18.8705 44.909C18.3406 47.1179 18.3715 49.4738 17.5118 51.5856C17.0243 52.781 16.4052 53.9554 15.8721 55.1339C14.6137 57.9154 13.3933 60.715 12.1144 63.4855C11.4599 64.9054 10.6918 66.2539 10.3672 67.8067C9.74929 70.7659 9.70807 74.1423 9.5242 77.1547C9.17854 82.8353 9.4421 88.5628 9.31525 94.248C9.68288 92.5765 11.0632 91.1988 11.8582 89.7289C14.161 85.4684 16.2932 81.2041 18.2683 76.7748C20.4393 71.908 22.6449 66.9592 23.5856 61.6601C24.4412 56.8428 22.9813 52.3258 22.328 47.5766C21.9374 44.7457 21.9445 42.1258 21.868 39.2933C21.8252 37.7523 21.1945 36.2559 21.0096 34.8146C21.5225 35.7459 22.1039 36.4684 22.675 37.3215C23.8067 39.0103 24.6106 40.9801 25.3245 42.9057C25.6066 43.6663 25.883 44.4341 26.1918 45.1842C26.5865 46.144 27.2484 46.9394 27.6773 47.8799C28.1997 49.0264 28.7801 50.1131 29.2284 51.3007C29.4812 51.9722 29.7715 52.6579 30.0941 53.29C30.2728 53.6379 30.5631 53.8973 30.7401 54.2492C30.9487 54.6618 31.0221 55.0073 31.2892 55.385C31.7181 55.9891 31.9832 56.6381 32.369 57.2635C32.7417 57.869 33.2216 58.5061 33.4745 59.1851C33.6772 59.7341 33.6348 60.3263 33.7184 60.9034C33.8858 62.0418 34.017 63.1888 34.0769 64.3425C34.184 66.4033 35.6376 68.0167 35.9066 70.0366C36.2466 72.592 35.692 75.3695 35.758 77.9504C35.845 81.3066 36.2771 84.649 36.3859 88.0107C36.4941 91.3351 35.5817 94.5862 35.9213 97.9053C36.1177 99.8191 36.4936 101.73 36.8295 103.619C37.2291 105.868 37.34 108.241 37.8769 110.452C38.5108 113.061 40.2624 115.338 41.4004 117.709C42.1009 119.168 42.6553 120.793 43.477 122.179C43.6077 120.276 44.0731 118.025 44.6107 116.161C45.1815 114.187 45.7431 112.591 46.016 110.539C46.3164 108.282 47.0265 106.056 47.1954 103.783C47.4429 100.46 47.1731 97.1654 46.9885 93.8772C46.8262 90.9706 47.559 88.1672 46.8378 85.2537C46.4302 83.6112 45.6311 82.1699 45.0275 80.626C44.2252 78.5732 43.8516 76.2052 43.0032 74.1957C42.3362 72.6154 40.8226 71.0374 39.9403 69.5551C38.9585 67.9033 37.9114 66.3399 37.0391 64.6147C36.6647 63.8741 35.9956 62.8275 35.6849 61.7994C37.3961 63.7243 39.2483 65.5083 41.1913 67.088C43.6626 71.17 46.3654 75.1975 49.2674 78.906C52.2215 82.6813 54.4757 87.0527 57.0877 91.1021C59.0534 94.1492 60.2617 97.3964 61.5482 100.757C62.4507 103.114 63.8444 105.125 65.1361 107.265C66.984 110.328 68.4411 113.628 70.2745 116.7C73.2497 121.684 77.6805 125.452 81.8639 129.266C84.569 131.732 87.2778 134.19 90.1061 136.501C91.2023 137.395 93.4025 138.648 94.5375 140.065C94.168 139.301 93.9786 138.414 93.7827 137.606C92.8978 133.972 92.2782 130.301 91.081 126.76C89.0852 120.859 87.0094 114.831 83.1643 110.014C80.1309 106.212 76.2835 103.354 72.398 100.597C70.0526 98.9322 67.6247 97.3119 65.5099 95.3225C64.029 93.9289 62.9209 92.2365 61.6421 90.6561C59.9828 88.6056 58.9311 86.1023 57.2333 84.1012C55.9398 82.5766 54.2633 81.2191 52.67 80.07C51.3384 79.1101 50.3671 78.6216 49.4594 77.1494C48.8876 76.2232 48.1345 75.5789 47.511 74.7033C46.3553 73.0781 45.9215 71.1212 44.8395 69.5276C45.5101 69.5743 45.9622 70.0317 46.5791 70.2647C47.6231 70.661 48.7516 70.7723 49.8116 71.1589C54.5966 72.9055 59.598 73.8374 64.4281 75.4194C69.9487 77.2276 75.5986 78.4224 81.4006 79.0046C83.6855 79.2345 85.9827 79.3087 88.274 79.4578C89.4116 79.4305 90.5132 79.6017 91.58 79.9731C92.0014 80.2754 92.4491 80.3598 92.9228 80.2275C92.5649 78.8058 90.9995 77.664 90.0296 76.8102C88.0131 75.034 86.0494 73.1586 83.907 71.5465C81.2087 69.5173 78.504 67.6256 75.4843 66.1738C73.3125 65.1305 71.7065 64.939 69.3138 64.9202C67.1059 64.9021 65.0197 65.4277 62.8055 65.5212C59.8844 65.6431 57.3611 64.3888 54.5016 64.1274C53.375 64.1045 52.2566 64.0041 51.146 63.8249C50.0143 63.5667 48.8965 63.2621 47.7917 62.9082C46.5957 62.9545 45.5618 64.0096 44.3127 64.251C42.975 64.5093 41.3998 64.8427 40.2081 64.1528C39.2894 63.6192 38.5139 62.6599 37.7057 61.876C35.9876 59.9046 34.3395 57.873 32.9285 55.5973C31.6789 53.5823 30.6147 51.4303 29.8063 49.1751C32.0862 49.1363 34.6221 48.2131 36.8872 47.6855C40.3914 46.8698 43.8944 46.8914 47.4436 46.6357C50.3821 46.4236 53.415 46.0507 56.2906 46.379C57.383 46.5038 58.3244 46.0699 59.3896 45.8749C60.9484 45.5905 62.5466 45.3753 64.1217 45.3092C65.7146 45.2419 67.461 45.0186 69.03 45.3255C70.2346 45.5607 71.0481 46.2018 72.3393 46.2626C74.3722 46.3586 76.2162 45.6286 78.2606 46.0406C79.4687 46.2835 80.8181 46.8774 82.0761 46.6883C81.069 44.3763 77.5128 42.7187 75.4917 41.4997C72.153 39.4852 68.7955 37.5072 65.2081 35.9986C62.1342 34.7057 58.0899 34.3221 54.7149 34.5994C51.23 34.887 47.702 36.9421 44.2758 37.7285C41.3651 38.3951 38.7015 39.9202 35.8075 40.6576C34.033 41.1102 33.0026 40.9915 31.3849 40.1919C28.7088 38.8684 26.1006 37.8952 23.8719 35.7811C22.2758 34.2684 21.2202 32.2154 19.6827 30.647C19.2425 30.1965 18.5319 29.7993 18.4233 29.1313C19.4442 28.4285 22.176 27.8946 23.0144 27.6382C28.1256 26.0792 33.572 25.1448 38.7854 24.2064C45.5502 22.9873 52.0037 22.5955 58.5373 24.779C56.9215 24.3475 54.3222 22.3657 53.2461 21.7631C50.7178 20.345 48.2146 19.0794 45.4389 18.2468Z" fill="#82B74C"/>
</svg>
