<svg width="116" height="163" viewBox="0 0 116 163" fill="none" xmlns="http://www.w3.org/2000/svg">
<path fill-rule="evenodd" clip-rule="evenodd" d="M115.904 69.5717C116.302 66.9435 116.207 64.3217 116.182 61.6862C116.177 61.1323 116.247 60.5553 116.236 59.9983C116.222 59.2441 116.122 58.365 115.933 57.6301C115.744 56.8894 115.772 56.0989 115.569 55.3673C115.386 54.711 115.133 54.0474 114.899 53.405C114.518 52.3575 114.112 51.6772 113.395 50.8219C112.521 49.7795 111.79 48.8936 110.693 48.067C109.623 47.2594 108.577 46.3937 107.539 45.5442C106.789 44.9303 105.954 44.3012 105.395 43.499C105.065 43.0226 105.363 42.8987 105.753 42.5095C106.806 41.4552 107.392 40.0064 108.309 38.8315C108.957 38.0031 109.552 37.1023 110.155 36.2367C111.219 34.7135 112.667 33.5593 113.754 32.0612C114.307 31.2987 114.741 30.4662 115.352 29.7468C116.052 28.9227 116.709 28.0698 117.382 27.2256C117.689 26.8391 117.961 26.4157 118.294 26.0545C118.435 25.9002 118.639 25.7991 118.702 25.5858C118.274 25.2848 117.248 24.9574 116.691 24.8834C115.886 24.7763 115.542 25.7132 115.195 26.3425C113.842 28.7963 112.773 31.2143 110.779 33.2315C109.64 34.3831 108.402 35.4293 107.269 36.586C105.597 38.2922 104.02 40.0511 102.051 41.4431C100.121 42.8072 97.9422 43.9927 95.7989 44.9902C94.8873 45.4141 93.8881 45.9257 92.8834 45.8686C90.9963 45.7612 88.9921 45.9976 87.0478 45.7699C84.8665 45.515 82.6146 45.8552 80.485 45.2486C79.2794 44.9044 78.0775 44.4222 76.8823 44.029C74.0616 43.1005 71.2281 42.2135 68.4153 41.2625C66.9738 40.7761 65.5865 40.1637 64.0591 40.0336C61.1484 39.7864 57.9106 40.1863 55.0033 40.392C49.5212 40.7809 44.0704 41.8019 38.6113 42.4162C40.2577 42.5749 41.7497 43.8125 43.2567 44.4367C47.6243 46.2443 51.9743 47.8762 56.4626 49.3251C61.3943 50.9179 66.4088 52.5356 71.6003 52.8079C76.3197 53.0559 80.4616 50.9644 84.9268 49.6713C87.5883 48.8992 90.0977 48.5633 92.8 48.1138C94.27 47.868 95.6238 47.024 96.9805 46.6453C96.1532 47.2942 95.5343 47.9861 94.789 48.6846C93.3138 50.0684 91.5286 51.1522 89.7744 52.1379C89.0815 52.5272 88.381 52.9118 87.7016 53.3272C86.832 53.8585 86.1534 54.6426 85.3067 55.2064C84.2744 55.8932 83.3066 56.6318 82.2258 57.2479C81.6145 57.5956 80.9944 57.9836 80.4295 58.3978C80.1189 58.627 79.9069 58.9592 79.5922 59.1871C79.2233 59.4554 78.9016 59.5761 78.5735 59.8999C78.0489 60.4196 77.4606 60.7771 76.9102 61.2553C76.3771 61.7174 75.8273 62.2939 75.2089 62.6427C74.7087 62.9228 74.1364 62.9569 73.5942 63.1183C72.5252 63.4394 71.4435 63.7244 70.3465 63.9371C68.3867 64.317 67.0241 66.0216 65.1239 66.5625C62.7199 67.2465 59.9911 67.0406 57.5282 67.4464C54.3258 67.9754 51.1798 68.8571 47.9748 69.4091C44.8054 69.9557 41.5784 69.4442 38.443 70.2278C36.6353 70.6803 34.8529 71.3167 33.0862 71.9092C30.9834 72.6143 28.725 73.0391 26.6757 73.8802C24.2567 74.8731 22.2962 76.9708 20.1688 78.4504C18.8592 79.3613 17.3727 80.1436 16.149 81.1693C17.9874 81.0543 20.2007 81.2376 22.0527 81.5457C24.0139 81.8736 25.6125 82.2414 27.6113 82.253C29.8098 82.2661 32.0304 82.7039 34.2278 82.5797C37.4407 82.3987 40.5611 81.69 43.6863 81.0696C46.4489 80.5223 49.2247 80.9079 51.9239 79.7854C53.4455 79.1514 54.7253 78.1418 56.1279 77.3195C57.9928 76.2264 60.2132 75.5325 62.0309 74.3977C63.4604 73.5055 64.7816 71.7439 66.0902 70.6433C67.5487 69.4183 68.9144 68.1379 70.4569 67.0157C71.1191 66.5342 72.0373 65.7097 72.9828 65.2558C71.3542 67.2659 69.8782 69.4024 68.6091 71.6054C65.0104 74.6788 61.493 77.9829 58.3059 81.4499C55.0613 84.9791 51.1584 87.8674 47.6086 91.0812C44.9375 93.4997 41.9798 95.1663 38.9231 96.9282C36.7795 98.164 35.0286 99.8592 33.1416 101.466C30.4412 103.766 27.4635 105.695 24.7526 107.981C20.3531 111.69 17.3004 116.735 14.1728 121.533C12.1505 124.635 10.1365 127.739 8.27865 130.948C7.55968 132.191 6.6359 134.615 5.42151 135.967C6.1069 135.487 6.93193 135.176 7.68121 134.869C11.0495 133.484 14.4865 132.367 17.7272 130.673C23.1264 127.85 28.6384 124.928 32.7686 120.347C36.0288 116.733 38.2827 112.406 40.436 108.053C41.736 105.426 42.9832 102.719 44.623 100.286C45.7717 98.5823 47.2532 97.2223 48.6062 95.7015C50.3615 93.7283 52.6266 92.3201 54.3298 90.3138C55.6275 88.7853 56.7172 86.8852 57.6177 85.0978C58.37 83.6042 58.716 82.5424 60.0118 81.4171C60.8269 80.7083 61.3494 79.8502 62.1097 79.095C63.5209 77.6949 65.3401 76.993 66.7304 75.6727C66.7697 76.3677 66.3884 76.8921 66.2427 77.5563C65.994 78.6808 66.0288 79.8547 65.7914 80.9943C64.7187 86.1386 64.4531 91.3987 63.5436 96.568C62.5039 102.476 62.0679 108.437 62.2373 114.474C62.3035 116.851 62.5203 119.221 62.6646 121.594C62.8332 122.759 62.8074 123.913 62.5854 125.058C62.3488 125.53 62.324 126.001 62.5101 126.471C63.8264 125.917 64.7235 124.159 65.4195 123.051C66.8674 120.747 68.417 118.484 69.6921 116.072C71.2968 113.034 72.7691 110.007 73.7809 106.715C74.5077 104.347 74.4898 102.672 74.208 100.212C73.9487 97.9413 73.1842 95.867 72.8172 93.6045C72.3345 90.6197 73.2193 87.8631 73.1113 84.8914C72.9921 83.7309 72.9481 82.5689 72.9805 81.4044C73.086 80.208 73.2376 79.0198 73.4379 77.8385C73.2438 76.6159 72.104 75.692 71.7164 74.4404C71.3016 73.0999 70.785 71.5255 71.2962 70.2108C71.692 69.1972 72.5133 68.2749 73.1626 67.3419C74.8348 65.3187 76.5735 63.3594 78.5756 61.6118C80.3483 60.0642 82.2753 58.689 84.3334 57.5632C84.6561 59.9003 85.8577 62.3845 86.6467 64.6424C87.8667 68.1354 88.2849 71.7369 88.9743 75.3495C89.5456 78.3405 90.2826 81.4074 90.3286 84.4045C90.3459 85.543 90.8793 86.4534 91.1994 87.5221C91.6671 89.0863 92.0733 90.6999 92.3339 92.3093C92.598 93.9369 93.0306 95.7018 92.9333 97.3538C92.8591 98.6221 92.3472 99.5418 92.4507 100.876C92.6135 102.977 93.5434 104.776 93.4052 106.93C93.3239 108.203 92.9244 109.667 93.263 110.935C95.3505 109.597 96.492 105.727 97.4058 103.491C98.9164 99.7971 100.389 96.0889 101.384 92.2059C102.237 88.8787 102.098 84.6737 101.409 81.2429C100.697 77.7004 98.2878 74.3453 97.1057 70.9286C96.1028 68.0257 94.3088 65.4891 93.2402 62.6126C92.5845 60.8489 92.5691 59.7749 93.132 58.0083C94.0639 55.0858 94.6689 52.2788 96.4139 49.7124C97.6622 47.8745 99.4955 46.5212 100.805 44.7363C101.181 44.2251 101.472 43.4431 102.098 43.244C102.899 44.2007 103.752 46.9372 104.103 47.7649C106.236 52.8115 107.813 58.2842 109.364 63.5171C111.379 70.3069 112.563 76.8854 111.291 83.8834C111.501 82.1669 113.073 79.237 113.515 78.0526C114.556 75.2696 115.455 72.5323 115.904 69.5717Z" fill="#82B74C"/>
</svg>
