<svg width="30" height="30" viewBox="0 0 30 30" fill="none" xmlns="http://www.w3.org/2000/svg">
<path d="M13.2322 15.0095L8.78707 10.6159C8.53518 10.3669 8.40825 10.0731 8.40627 9.73424C8.40429 9.39542 8.52779 9.10007 8.77676 8.84818C9.02572 8.59629 9.31962 8.46935 9.65843 8.46738C9.99725 8.4654 10.2926 8.58889 10.5445 8.83786L14.9896 13.2314L19.3832 8.78629C19.6321 8.5344 19.926 8.40747 20.2649 8.40549C20.6037 8.40352 20.899 8.52701 21.1509 8.77598C21.4028 9.02495 21.5297 9.31884 21.5317 9.65766C21.5337 9.99647 21.4102 10.2918 21.1612 10.5437L16.7677 14.9888L21.2128 19.3824C21.4647 19.6314 21.5916 19.9253 21.5936 20.2641C21.5956 20.6029 21.4721 20.8982 21.2231 21.1501C20.9741 21.402 20.6802 21.529 20.3414 21.5309C20.0026 21.5329 19.7073 21.4094 19.4554 21.1604L15.0102 16.7669L10.6167 21.212C10.3677 21.4639 10.0738 21.5908 9.73501 21.5928C9.3962 21.5948 9.10084 21.4713 8.84895 21.2223C8.59706 20.9734 8.47013 20.6795 8.46815 20.3407C8.46618 20.0018 8.58967 19.7065 8.83864 19.4546L13.2322 15.0095Z" fill="white"/>
</svg>
