<svg width="30" height="30" viewBox="0 0 30 30" fill="none" xmlns="http://www.w3.org/2000/svg">
<path d="M15 18.75L18.75 15M18.75 15L15 11.25M18.75 15L5 15M11.25 21.25C11.25 22.4149 11.25 22.9973 11.4403 23.4567C11.694 24.0693 12.1804 24.556 12.793 24.8097C13.2524 25 13.8351 25 15 25H21C22.4001 25 23.1 25 23.6347 24.7275C24.1051 24.4878 24.4881 24.1054 24.7278 23.635C25.0003 23.1003 25 22.4001 25 20.9999V8.99994C25 7.59981 25.0003 6.89983 24.7278 6.36505C24.4881 5.89465 24.1051 5.51217 23.6347 5.27248C23.1 5 22.4001 5 21 5H15C13.8351 5 13.2524 5 12.793 5.1903C12.1804 5.44404 11.694 5.9307 11.4403 6.54327C11.25 7.0027 11.25 7.58513 11.25 8.74998" stroke="#82B74C" stroke-width="2" stroke-linecap="round" stroke-linejoin="round"/>
</svg>
