<svg width="18" height="22" viewBox="0 0 18 22" fill="none" xmlns="http://www.w3.org/2000/svg">
<path d="M14.8962 11.1928C14.8713 8.5338 17.1638 7.2402 17.2686 7.17997C15.9703 5.3625 13.9579 5.11417 13.2507 5.09437C11.5606 4.9236 9.92109 6.0654 9.06011 6.0654C8.18195 6.0654 6.85611 5.11087 5.42716 5.13892C3.58835 5.16615 1.86811 6.18832 0.924645 7.77562C-1.02244 11.0121 0.429712 15.7682 2.29516 18.3843C3.22832 19.6655 4.31872 21.0961 5.74595 21.0457C7.14225 20.9905 7.66382 20.191 9.34882 20.191C11.0184 20.191 11.5081 21.0457 12.9637 21.0136C14.4623 20.9905 15.4057 19.7266 16.3062 18.4338C17.3846 16.9653 17.8177 15.5191 17.8349 15.4448C17.7996 15.4333 14.9246 14.3797 14.8962 11.1928Z" fill="#82B74C"/>
<path d="M12.1466 3.37342C12.8976 2.4717 13.4114 1.24492 13.2688 0C12.1818 0.0462 10.8225 0.721875 10.0397 1.6038C9.3471 2.38095 8.72844 3.65475 8.88826 4.85265C10.1093 4.9401 11.3629 4.26112 12.1466 3.37342Z" fill="#82B74C"/>
</svg>
