<svg xmlns="http://www.w3.org/2000/svg" version="1.1" xmlns:xlink="http://www.w3.org/1999/xlink" width="1000" height="1000"><style>
    #light-icon {
      display: inline;
    }
    #dark-icon {
      display: none;
    }

    @media (prefers-color-scheme: dark) {
      #light-icon {
        display: none;
      }
      #dark-icon {
        display: inline;
      }
    }
  </style><g id="light-icon"><svg xmlns="http://www.w3.org/2000/svg" version="1.1" xmlns:xlink="http://www.w3.org/1999/xlink" width="1000" height="1000"><g clip-path="url(#SvgjsClipPath1083)"><rect width="1000" height="1000" fill="#ffffff"></rect><g transform="matrix(1.953125,0,0,1.953125,0,0)"><svg xmlns="http://www.w3.org/2000/svg" version="1.1" xmlns:xlink="http://www.w3.org/1999/xlink" width="512" height="512"><svg width="512" height="512" viewBox="0 0 512 512" fill="none" xmlns="http://www.w3.org/2000/svg">
<path fill-rule="evenodd" clip-rule="evenodd" d="M209.513 264.55C203.637 253.961 204.506 235.601 217.068 230.113C225.002 226.565 230.993 234.393 227.077 241.436C225.47 244.319 219.521 248.193 226.134 259.258C229.604 265.093 231.941 270.507 230.667 278.757C227.077 302.793 205.459 295.773 210.908 282.773C214.662 274.007 213.788 272.183 209.513 264.55Z" fill="#82B84C"></path>
<path fill-rule="evenodd" clip-rule="evenodd" d="M245.488 248.266C237.933 234.323 242.493 214.492 254.881 211.562C263.499 209.479 266.753 218.863 262.768 224.608C260.619 227.776 258.824 228.625 258.966 233.875C259.156 244.038 270.038 249.331 268.359 264.88C265.689 288.986 241.687 285.987 249.473 267.906C253.228 259.256 248.631 254.154 245.488 248.266Z" fill="#82B84C"></path>
<path fill-rule="evenodd" clip-rule="evenodd" d="M282.857 264.287C276.576 252.896 279.908 234.056 290.791 229.971C298.678 226.972 305.001 234.604 300.4 241.694C298.462 244.72 296.598 245.052 296.74 250.744C296.999 260.317 306.939 264.144 304.08 279.884C300.136 301.724 278.988 296.9 284.652 282.436C288.264 273.243 287.058 271.92 282.857 264.287Z" fill="#82B84C"></path>
<path fill-rule="evenodd" clip-rule="evenodd" d="M356.978 388.508C350.913 365.394 342.578 351.119 329.832 338.262C317.818 326.138 301.387 315.881 278.111 312.006C276.315 300.542 269.707 294.59 256.746 294.59C243.478 294.522 238.592 300.947 235.475 312.08C204.102 317.093 180.215 334.062 166.074 359.374C160.456 369.421 159.134 376.722 155.191 388.186C149.716 389.32 145.914 388.851 143.977 394.544C137.628 413.098 169.401 408.418 183.679 408.486C201.101 408.486 356.094 409.551 361.311 407.685C371.251 404.001 371.578 388.186 356.967 388.519L356.978 388.508ZM246.953 343.154C236.26 345.827 233.874 345.162 224.056 349.986C217.448 353.27 210.578 358.304 206.518 362.394C199.506 369.416 197.642 374.993 193.698 379.458C188.434 385.625 178.214 380.401 186.096 368.087C190.371 361.377 193.888 355.489 198.963 351.188C209.256 342.348 220.728 334.715 238.95 331.499C255.355 328.685 253.892 341.41 246.953 343.154Z" fill="#82B84C"></path>
<path fill-rule="evenodd" clip-rule="evenodd" d="M425.034 350.67C422.106 306.85 418.163 262.418 414.504 218.482C413.63 207.824 412.309 196.311 411.834 185.774C410.818 161.268 407.823 146.73 378.529 147.32C366.989 147.531 354.522 147.863 342.954 147.389C342.365 113.026 336.816 98.3504 319.821 78.9888C286.984 41.6681 226.317 42.4008 193.106 78.3984C173.821 99.22 169.077 118.718 169.403 147.267C149.313 149.276 119.145 141.569 107.014 154.758C100.876 161.4 100.618 171.631 99.8865 183.096C99.2017 194.155 98.1385 205.736 97.1481 216.801C93.1369 260.073 89.2617 305.5 87.0665 348.846C85.7921 372.293 82.5801 390.985 91.2673 411.88C98.4649 429.111 110.342 442.11 124.03 450.476C143.437 462.268 158.99 460.734 184.556 460.734H324.606C346.161 460.734 369.574 461.398 385.863 451.209C394.666 445.795 399.273 441.968 405.148 435.347C410.698 429.106 416.431 421.806 419.832 413.888C429.04 392.26 426.702 375.719 425.023 350.665L425.034 350.67ZM201.63 119.783C210.717 97.0688 231.323 81.8032 255.9 81.4032C274.311 81.1448 291.333 91.3288 298.719 100.501C309.744 114.042 314.014 123.947 313.945 147.462L197.902 147.32C197.644 137.415 198.302 128.17 201.63 119.783ZM387.948 409.824C370.126 436.813 340.101 429.986 307.195 430.055C287.863 430.102 163.533 430.904 155.388 429.844C140.92 427.904 129.848 418.996 124.157 410.414C116.297 398.48 113.701 386.166 114.833 368.418C116.839 336.063 119.434 304.04 122.104 271.801C124.631 240.795 126.305 207.966 129.917 177.218L169.409 177.266C169.15 190.882 168.534 205.626 183.692 205.673C198.776 205.673 197.902 191.282 197.834 177.145L314.282 177.214C314.424 183.713 313.339 191.746 315.888 197.234C318.083 201.936 322.495 205.626 328.966 205.552C344.85 205.483 343.318 187.73 342.775 177.145L381.746 177.214C382.952 207.961 387.222 241.381 390.006 272.413C392.886 304.293 394.492 336.464 396.946 368.413C398.362 387.11 396.419 396.873 387.948 409.824Z" fill="#82B84C"></path>
</svg></svg></g></g><defs><clipPath id="SvgjsClipPath1083"><rect width="1000" height="1000" x="0" y="0" rx="100" ry="100"></rect></clipPath></defs></svg></g><g id="dark-icon"><svg xmlns="http://www.w3.org/2000/svg" version="1.1" xmlns:xlink="http://www.w3.org/1999/xlink" width="1000" height="1000"><g clip-path="url(#SvgjsClipPath1084)"><rect width="1000" height="1000" fill="#ffffff"></rect><g transform="matrix(1.953125,0,0,1.953125,0,0)"><svg xmlns="http://www.w3.org/2000/svg" version="1.1" xmlns:xlink="http://www.w3.org/1999/xlink" width="512" height="512"><svg width="512" height="512" viewBox="0 0 512 512" fill="none" xmlns="http://www.w3.org/2000/svg">
<path fill-rule="evenodd" clip-rule="evenodd" d="M209.513 264.55C203.637 253.961 204.506 235.601 217.068 230.113C225.002 226.565 230.993 234.393 227.077 241.436C225.47 244.319 219.521 248.193 226.134 259.258C229.604 265.093 231.941 270.507 230.667 278.757C227.077 302.793 205.459 295.773 210.908 282.773C214.662 274.007 213.788 272.183 209.513 264.55Z" fill="#82B84C"></path>
<path fill-rule="evenodd" clip-rule="evenodd" d="M245.488 248.266C237.933 234.323 242.493 214.492 254.881 211.562C263.499 209.479 266.753 218.863 262.768 224.608C260.619 227.776 258.824 228.625 258.966 233.875C259.156 244.038 270.038 249.331 268.359 264.88C265.689 288.986 241.687 285.987 249.473 267.906C253.228 259.256 248.631 254.154 245.488 248.266Z" fill="#82B84C"></path>
<path fill-rule="evenodd" clip-rule="evenodd" d="M282.857 264.287C276.576 252.896 279.908 234.056 290.791 229.971C298.678 226.972 305.001 234.604 300.4 241.694C298.462 244.72 296.598 245.052 296.74 250.744C296.999 260.317 306.939 264.144 304.08 279.884C300.136 301.724 278.988 296.9 284.652 282.436C288.264 273.243 287.058 271.92 282.857 264.287Z" fill="#82B84C"></path>
<path fill-rule="evenodd" clip-rule="evenodd" d="M356.978 388.508C350.913 365.394 342.578 351.119 329.832 338.262C317.818 326.138 301.387 315.881 278.111 312.006C276.315 300.542 269.707 294.59 256.746 294.59C243.478 294.522 238.592 300.947 235.475 312.08C204.102 317.093 180.215 334.062 166.074 359.374C160.456 369.421 159.134 376.722 155.191 388.186C149.716 389.32 145.914 388.851 143.977 394.544C137.628 413.098 169.401 408.418 183.679 408.486C201.101 408.486 356.094 409.551 361.311 407.685C371.251 404.001 371.578 388.186 356.967 388.519L356.978 388.508ZM246.953 343.154C236.26 345.827 233.874 345.162 224.056 349.986C217.448 353.27 210.578 358.304 206.518 362.394C199.506 369.416 197.642 374.993 193.698 379.458C188.434 385.625 178.214 380.401 186.096 368.087C190.371 361.377 193.888 355.489 198.963 351.188C209.256 342.348 220.728 334.715 238.95 331.499C255.355 328.685 253.892 341.41 246.953 343.154Z" fill="#82B84C"></path>
<path fill-rule="evenodd" clip-rule="evenodd" d="M425.034 350.67C422.106 306.85 418.163 262.418 414.504 218.482C413.63 207.824 412.309 196.311 411.834 185.774C410.818 161.268 407.823 146.73 378.529 147.32C366.989 147.531 354.522 147.863 342.954 147.389C342.365 113.026 336.816 98.3504 319.821 78.9888C286.984 41.6681 226.317 42.4008 193.106 78.3984C173.821 99.22 169.077 118.718 169.403 147.267C149.313 149.276 119.145 141.569 107.014 154.758C100.876 161.4 100.618 171.631 99.8865 183.096C99.2017 194.155 98.1385 205.736 97.1481 216.801C93.1369 260.073 89.2617 305.5 87.0665 348.846C85.7921 372.293 82.5801 390.985 91.2673 411.88C98.4649 429.111 110.342 442.11 124.03 450.476C143.437 462.268 158.99 460.734 184.556 460.734H324.606C346.161 460.734 369.574 461.398 385.863 451.209C394.666 445.795 399.273 441.968 405.148 435.347C410.698 429.106 416.431 421.806 419.832 413.888C429.04 392.26 426.702 375.719 425.023 350.665L425.034 350.67ZM201.63 119.783C210.717 97.0688 231.323 81.8032 255.9 81.4032C274.311 81.1448 291.333 91.3288 298.719 100.501C309.744 114.042 314.014 123.947 313.945 147.462L197.902 147.32C197.644 137.415 198.302 128.17 201.63 119.783ZM387.948 409.824C370.126 436.813 340.101 429.986 307.195 430.055C287.863 430.102 163.533 430.904 155.388 429.844C140.92 427.904 129.848 418.996 124.157 410.414C116.297 398.48 113.701 386.166 114.833 368.418C116.839 336.063 119.434 304.04 122.104 271.801C124.631 240.795 126.305 207.966 129.917 177.218L169.409 177.266C169.15 190.882 168.534 205.626 183.692 205.673C198.776 205.673 197.902 191.282 197.834 177.145L314.282 177.214C314.424 183.713 313.339 191.746 315.888 197.234C318.083 201.936 322.495 205.626 328.966 205.552C344.85 205.483 343.318 187.73 342.775 177.145L381.746 177.214C382.952 207.961 387.222 241.381 390.006 272.413C392.886 304.293 394.492 336.464 396.946 368.413C398.362 387.11 396.419 396.873 387.948 409.824Z" fill="#82B84C"></path>
</svg></svg></g></g><defs><clipPath id="SvgjsClipPath1084"><rect width="1000" height="1000" x="0" y="0" rx="100" ry="100"></rect></clipPath></defs></svg></g></svg>