<svg width="37" height="32" viewBox="0 0 37 32" fill="none" xmlns="http://www.w3.org/2000/svg">
<g clip-path="url(#clip0_6385_6359)">
<path d="M23.1129 30.3842L23.2087 29.3809H0.572891C0.243496 29.3809 -0.0253906 29.6511 -0.0253906 29.9822V31.1832C-0.0253906 31.5143 0.243505 31.7845 0.572891 31.7845H23.4712C23.1955 31.3758 23.0645 30.8842 23.1132 30.3859L23.1129 30.3842Z" fill="white"/>
<path d="M5.95117 -0.046875H26.268V5.35853H5.95117V-0.046875Z" fill="white"/>
<path d="M31.6458 7.76105H30.451V3.55664H27.1637V6.25934H5.05536V3.55664H1.76813V7.76105H0.573242V10.1631C0.573242 11.4908 1.64379 12.5651 2.96305 12.5651C4.28232 12.5651 5.35287 11.4891 5.35287 10.1631C5.35287 11.4908 6.42342 12.5651 7.74268 12.5651C9.06195 12.5651 10.1325 11.4891 10.1325 10.1631V9.86241C10.1325 11.3556 11.3358 12.5651 12.8214 12.5651C14.3071 12.5651 15.5104 11.3556 15.5104 9.86241V9.56174C15.5104 11.2205 16.8482 12.5651 18.4985 12.5651C20.1488 12.5651 21.4866 11.2205 21.4866 9.56174V9.86241C21.4866 11.3556 22.6899 12.5651 24.1755 12.5651C25.6612 12.5651 26.8645 11.3556 26.8645 9.86241V10.1631C26.8645 11.4908 27.935 12.5651 29.2543 12.5651C30.5736 12.5651 31.6441 11.4891 31.6441 10.1631V7.76105H31.6458Z" fill="white"/>
<path d="M23.2633 28.7813L24.0817 20.175C24.1825 19.0872 25.08 18.2713 26.1606 18.2713H31.0476V12.9269C30.5333 13.2698 29.9182 13.4674 29.2544 13.4674C28.2679 13.4674 27.3839 13.0283 26.7805 12.3323C26.1285 13.0283 25.2025 13.4674 24.1756 13.4674C23.058 13.4674 22.0597 12.9505 21.4026 12.1465C20.6918 12.9573 19.6515 13.4674 18.4986 13.4674C17.3457 13.4674 16.3054 12.9573 15.5945 12.1465C14.9374 12.9505 13.9391 13.4674 12.8215 13.4674C11.793 13.4674 10.867 13.0283 10.2166 12.3323C9.61328 13.0283 8.72928 13.4674 7.74276 13.4674C6.79827 13.4674 5.94955 13.0654 5.35294 12.4218C4.75466 13.0637 3.90762 13.4674 2.96313 13.4674C2.29928 13.4674 1.68418 13.2698 1.16992 12.9269V28.7833H11.477V22.1771C11.477 19.6129 13.5559 17.5215 16.1089 17.5215C18.66 17.5215 20.7408 19.611 20.7408 22.1771V28.7833H23.2617L23.2633 28.7813ZM8.93954 25.1783H4.16008V21.5752C4.16008 20.2475 5.22895 19.1732 6.54989 19.1732C7.20699 19.1732 7.80531 19.4435 8.24058 19.8759C8.67081 20.3151 8.93971 20.9147 8.93971 21.5752L8.93954 25.1783Z" fill="white"/>
<path d="M15.6613 18.4492C13.8126 18.6722 12.374 20.2567 12.374 22.1739V23.2246H15.6613V18.4492Z" fill="white"/>
<path d="M16.5571 24.127H19.8444V28.7825H16.5571V24.127Z" fill="white"/>
<path d="M19.8444 22.1739C19.8444 20.2567 18.4058 18.6739 16.5571 18.4492V23.2246H19.8444V22.1739Z" fill="white"/>
<path d="M12.376 24.127H15.6632V28.7825H12.376V24.127Z" fill="white"/>
<path d="M34.7412 19.1699H26.1603C25.5452 19.1699 25.0309 19.6378 24.9704 20.2577L24.0024 30.467C23.9368 31.1697 24.4864 31.7829 25.1922 31.7829H35.7093C36.4151 31.7829 36.9647 31.1697 36.8991 30.467L35.9311 20.2577C35.8706 19.6395 35.358 19.1699 34.7412 19.1699ZM33.1279 22.5703C32.8472 23.8203 31.7229 24.7257 30.4507 24.7257C29.1785 24.7257 28.0541 23.8186 27.7735 22.5703C27.7197 22.3304 27.8693 22.0905 28.1079 22.0365C28.3533 21.9824 28.5919 22.1328 28.6457 22.3794C28.8373 23.2138 29.5952 23.827 30.4506 23.827C31.3044 23.827 32.064 23.2138 32.2556 22.3794C32.3094 22.1328 32.548 21.9824 32.7934 22.0365C33.032 22.0905 33.1817 22.3304 33.1279 22.5703Z" fill="white"/>
</g>
<defs>
<clipPath id="clip0_6385_6359">
<rect width="37" height="32" fill="white"/>
</clipPath>
</defs>
</svg>
