<svg width="32" height="32" viewBox="0 0 32 32" fill="none" xmlns="http://www.w3.org/2000/svg">
<g clip-path="url(#clip0_6367_6333)">
<path d="M23.7111 21.5772C24.1986 21.2578 24.4415 21.0981 24.5825 21.0251C25.3771 20.6206 26.1575 20.5842 26.9896 20.914C27.136 20.9713 27.2575 21.0356 27.5003 21.164C29.4574 22.1987 30.8825 23.9904 31.4485 26.0982L31.6253 26.7528C31.7878 27.3587 31.936 27.9038 32.0146 28.357C32.095 28.8188 32.1343 29.35 31.9646 29.8969C31.7271 30.6608 31.2093 31.3135 30.5092 31.7285C30.0074 32.0271 29.4682 32.1226 28.9878 32.1625C28.5164 32.2042 27.9378 32.2024 27.2932 32.2024H4.7076C4.06294 32.2024 3.48438 32.2042 3.01297 32.1625C2.53261 32.1226 1.9951 32.0271 1.49156 31.7285C0.791578 31.3135 0.273681 30.6608 0.0379779 29.8969C-0.131663 29.35 -0.0923811 28.8187 -0.0138074 28.357C0.0647663 27.9038 0.212977 27.3587 0.375477 26.7528L0.552264 26.0982C1.11834 23.9906 2.54513 22.199 4.50225 21.164C4.74154 21.0373 4.86296 20.973 5.00762 20.9158C5.83976 20.5842 6.62371 20.6206 7.4201 21.0286C7.55939 21.0998 7.80046 21.2578 8.28259 21.5755C10.4862 23.0234 13.1416 23.8689 16.0005 23.8689C18.8577 23.8689 21.5095 23.0234 23.7111 21.5772Z" fill="white"/>
<path d="M16.0001 -0.203125C22.0499 -0.203125 26.9537 4.56443 26.9537 10.4444C26.9537 16.3244 22.0499 21.092 16.0001 21.092C9.95211 21.092 5.04834 16.3244 5.04834 10.4444C5.04834 4.56443 9.95211 -0.203125 16.0001 -0.203125Z" fill="white"/>
</g>
<defs>
<clipPath id="clip0_6367_6333">
<rect width="32" height="32" fill="white"/>
</clipPath>
</defs>
</svg>
