<svg width="110" height="110" viewBox="0 0 110 110" fill="none" xmlns="http://www.w3.org/2000/svg">
<path fill-rule="evenodd" clip-rule="evenodd" d="M100 82.8939V36.8809H94.75V75.5809C94.7489 75.9026 94.6815 76.2206 94.5517 76.5149C94.422 76.8093 94.2329 77.0737 93.9962 77.2915C93.7595 77.5093 93.4803 77.6759 93.1762 77.7808C92.8721 77.8856 92.5496 77.9265 92.229 77.9009C81.199 77.0119 71.447 78.6919 63.129 82.8949L100 82.8939ZM10 36.8809V82.8939H46.881C38.563 78.6939 28.811 77.0109 17.781 77.8999C17.4604 77.9254 17.138 77.8844 16.8339 77.7795C16.5299 77.6745 16.2508 77.508 16.0141 77.2902C15.7775 77.0724 15.5883 76.808 15.4586 76.5138C15.3288 76.2195 15.2612 75.9016 15.26 75.5799V36.8799L10 36.8809ZM19.919 27.0899C32.707 26.4369 43.719 29.3429 52.676 35.7339V80.8149C44.308 75.6299 34.498 73.0149 23.41 73.0149C22.257 73.0149 21.096 73.0429 19.919 73.1019V27.0899ZM90.086 27.0899V73.0979C77.555 72.4979 66.575 75.0879 57.328 80.8169V35.7339C66.287 29.3469 77.292 26.4379 90.088 27.0899H90.086Z" fill="#82B74C"/>
</svg>
