<svg width="60" height="60" viewBox="0 0 60 60" fill="none" xmlns="http://www.w3.org/2000/svg">
<path d="M29.6327 50H45.4368C46.8198 50 47.5122 50 48.0404 49.7275C48.5051 49.4878 48.881 49.1054 49.1177 48.635C49.3868 48.1003 49.3878 47.4001 49.3878 45.9999V33.9999C49.3878 32.5998 49.3868 31.8998 49.1177 31.3651C48.881 30.8946 48.5051 30.5122 48.0404 30.2725C47.5122 30 46.8188 30 45.4358 30H33.5827M29.6327 50V33.9999M29.6327 50H13.8276C12.4447 50 11.7539 50 11.2256 49.7275C10.761 49.4878 10.3835 49.1054 10.1467 48.635C9.87759 48.1003 9.87759 47.4001 9.87759 45.9999V33.9999C9.87759 32.5998 9.87759 31.8998 10.1467 31.3651C10.3835 30.8946 10.761 30.5122 11.2256 30.2725C11.7539 30 12.4447 30 13.8276 30H25.6807M29.6327 33.9999C29.6327 32.5998 29.6327 31.8998 29.9018 31.3651C30.1386 30.8946 30.5161 30.5122 30.9807 30.2725C31.509 30 32.1998 30 33.5827 30M29.6327 33.9999C29.6327 32.5998 29.6317 31.8998 29.3626 31.3651C29.1259 30.8946 28.75 30.5122 28.2853 30.2725C27.7571 30 27.0637 30 25.6807 30M33.5827 30H47.9052C49.2882 30 49.9816 30 50.5098 29.7275C50.9745 29.4878 51.3503 29.1054 51.5871 28.635C51.8562 28.1003 51.8572 27.4001 51.8572 25.9999V23.9999C51.8572 22.5998 51.8562 21.8998 51.5871 21.3651C51.3503 20.8946 50.9745 20.5122 50.5098 20.2725C49.9816 20 49.2882 20 47.9052 20H33.5827C32.1998 20 31.509 20 30.9807 20.2725C30.5161 20.5122 30.1386 20.8946 29.9018 21.3651C29.6327 21.8998 29.6327 22.5998 29.6327 23.9999M33.5827 30C32.1998 30 31.509 30 30.9807 29.7275C30.5161 29.4878 30.1386 29.1054 29.9018 28.635C29.6327 28.1003 29.6327 27.4001 29.6327 25.9999M25.6807 30H11.3583C9.97527 30 9.28447 30 8.75624 29.7275C8.29159 29.4878 7.9141 29.1054 7.67735 28.635C7.4082 28.1003 7.4082 27.4001 7.4082 25.9999V23.9999C7.4082 22.5998 7.4082 21.8998 7.67735 21.3651C7.9141 20.8946 8.29159 20.5122 8.75624 20.2725C9.28447 20 9.97527 20 11.3583 20H25.6807C27.0637 20 27.7571 20 28.2853 20.2725C28.75 20.5122 29.1259 20.8946 29.3626 21.3651C29.6317 21.8998 29.6327 22.5998 29.6327 23.9999M25.6807 30C27.0637 30 27.7571 30 28.2853 29.7275C28.75 29.4878 29.1259 29.1054 29.3626 28.635C29.6317 28.1003 29.6327 27.4001 29.6327 25.9999M29.6327 25.9999V23.9999M29.6327 13.75V20M29.6327 13.75C29.6327 10.2982 32.3966 7.5 35.8062 7.5C39.2157 7.5 41.9796 10.2982 41.9796 13.75C41.9796 17.2018 39.2157 20 35.8062 20H29.6327M29.6327 13.75C29.6327 10.2982 26.8687 7.5 23.4592 7.5C20.0497 7.5 17.2858 10.2982 17.2858 13.75C17.2858 17.2018 20.0497 20 23.4592 20H29.6327" stroke="#182F00" stroke-width="3" stroke-linecap="round" stroke-linejoin="round"/>
</svg>
