<svg width="58" height="60" viewBox="0 0 58 60" fill="none" xmlns="http://www.w3.org/2000/svg">
<path d="M7.14551 30V31.5H50.0195V30V28.5H7.14551V30ZM28.5825 52.5V51C17.6392 51 8.64551 41.6672 8.64551 30H7.14551H5.64551C5.64551 43.1856 15.8472 54 28.5825 54V52.5ZM7.14551 30H8.64551C8.64551 18.3328 17.6392 9 28.5825 9V7.5V6C15.8472 6 5.64551 16.8144 5.64551 30H7.14551ZM28.5825 7.5V9C39.5258 9 48.5195 18.3328 48.5195 30H50.0195H51.5195C51.5195 16.8144 41.3179 6 28.5825 6V7.5ZM50.0195 30H48.5195C48.5195 41.6672 39.5258 51 28.5825 51V52.5V54C41.3179 54 51.5195 43.1856 51.5195 30H50.0195ZM28.5825 52.5V51C27.7808 51 26.8872 50.6226 25.934 49.6706C24.9749 48.7126 24.0423 47.2508 23.2268 45.325C21.5983 41.4792 20.555 36.062 20.555 30H19.055H17.555C17.555 36.3644 18.6444 42.1972 20.4642 46.4948C21.3729 48.6407 22.4933 50.474 23.8139 51.7931C25.1405 53.1182 26.7533 54 28.5825 54V52.5ZM19.055 30H20.555C20.555 23.938 21.5983 18.5208 23.2268 14.675C24.0423 12.7492 24.9749 11.2874 25.934 10.3294C26.8872 9.37736 27.7808 9 28.5825 9V7.5V6C26.7533 6 25.1405 6.88184 23.8139 8.2069C22.4933 9.52602 21.3729 11.3593 20.4642 13.5052C18.6444 17.8028 17.555 23.6356 17.555 30H19.055ZM28.5825 7.5V9C29.3843 9 30.2779 9.37736 31.231 10.3294C32.1901 11.2874 33.1228 12.7492 33.9383 14.675C35.5667 18.5208 36.6101 23.938 36.6101 30H38.1101H39.6101C39.6101 23.6356 38.5206 17.8028 36.7008 13.5052C35.7921 11.3593 34.6718 9.52602 33.3511 8.2069C32.0246 6.88184 30.4117 6 28.5825 6V7.5ZM38.1101 30H36.6101C36.6101 36.062 35.5667 41.4792 33.9383 45.325C33.1228 47.2508 32.1901 48.7126 31.231 49.6706C30.2779 50.6226 29.3843 51 28.5825 51V52.5V54C30.4117 54 32.0246 53.1182 33.3511 51.7931C34.6718 50.474 35.7921 48.6407 36.7008 46.4948C38.5206 42.1972 39.6101 36.3644 39.6101 30H38.1101Z" fill="#182F00"/>
</svg>
