<svg width="20" height="20" viewBox="0 0 20 20" fill="none" xmlns="http://www.w3.org/2000/svg">
<path d="M9.42022 10.3619C10.861 10.3619 12.0289 9.19397 12.0289 7.75323C12.0289 6.31248 10.861 5.14453 9.42022 5.14453C7.97948 5.14453 6.81152 6.31248 6.81152 7.75323C6.81152 9.19397 7.97948 10.3619 9.42022 10.3619Z" stroke="#82B74C" stroke-linecap="round" stroke-linejoin="round"/>
<path d="M9.42045 1.66602C7.80609 1.66602 6.25785 2.32564 5.11632 3.49978C3.9748 4.67392 3.3335 6.2664 3.3335 7.92689C3.3335 9.40758 3.63937 10.3765 4.4748 11.4486L9.42045 17.3182L14.3661 11.4486C15.2015 10.3765 15.5074 9.40758 15.5074 7.92689C15.5074 6.2664 14.8661 4.67392 13.7246 3.49978C12.5831 2.32564 11.0348 1.66602 9.42045 1.66602Z" stroke="#82B74C" stroke-linecap="round" stroke-linejoin="round"/>
</svg>
