<svg width="110" height="110" viewBox="0 0 110 110" fill="none" xmlns="http://www.w3.org/2000/svg">
<path d="M23.899 49.621L33.5536 53.6437C32.465 56.4051 31.5967 59.2491 30.9568 62.1489L30.5906 63.8215L44.4316 77.7376L46.0961 77.378C48.9819 76.735 51.8123 75.8625 54.5605 74.7687L58.5638 84.4699C58.603 84.566 58.6654 84.6509 58.7454 84.7168C58.8253 84.7827 58.9203 84.8276 59.0218 84.8475C59.1233 84.8674 59.2281 84.8617 59.3269 84.8308C59.4256 84.7999 59.5152 84.7449 59.5875 84.6706L65.6382 78.5906C66.6257 77.5985 67.3951 76.4094 67.8969 75.1C68.3986 73.7906 68.6215 72.39 68.5512 70.9886L68.3348 67.0831C79.5374 58.7702 90.8732 44.1934 93.9609 18.753C94.0485 18.1152 93.9883 17.4656 93.785 16.855C93.5817 16.2444 93.2409 15.6891 92.789 15.2326C92.3371 14.7761 91.7864 14.4306 91.1798 14.2231C90.5732 14.0156 89.9271 13.9517 89.2918 14.0362C63.982 17.164 49.4669 28.5629 41.194 39.7861L37.3155 39.5854C35.9239 39.5093 34.5319 39.7267 33.2289 40.2236C31.926 40.7205 30.7409 41.4859 29.75 42.4706L23.6993 48.5506C23.6155 48.6222 23.552 48.7148 23.5152 48.819C23.4785 48.9232 23.4698 49.0354 23.4901 49.144C23.5104 49.2527 23.5589 49.3541 23.6307 49.4378C23.7025 49.5216 23.7951 49.5848 23.899 49.621ZM62.7169 34.8017C63.7655 33.7517 65.1002 33.0374 66.5526 32.7491C68.0049 32.4608 69.5097 32.6114 70.8769 33.1818C72.2441 33.7523 73.4124 34.717 74.2343 35.9542C75.0563 37.1914 75.4949 38.6456 75.4949 40.1332C75.4949 41.6207 75.0563 43.0749 74.2343 44.3121C73.4124 45.5493 72.2441 46.514 70.8769 47.0845C69.5097 47.6549 68.0049 47.8055 66.5526 47.5172C65.1002 47.2289 63.7655 46.5146 62.7169 45.4646C62.0186 44.7653 61.4645 43.9344 61.0864 43.0195C60.7084 42.1047 60.5138 41.1238 60.5138 40.1332C60.5138 39.1425 60.7084 38.1616 61.0864 37.2468C61.4645 36.3319 62.0186 35.501 62.7169 34.8017ZM22.093 78.8499C20.4909 78.2849 18.7704 78.1466 17.0993 78.4485C16.9507 78.4808 16.7965 78.4747 16.6509 78.4308C16.5054 78.3869 16.3733 78.3067 16.267 78.1976C16.1352 78.0657 16.0469 77.8962 16.0142 77.7122C15.9814 77.5282 16.0058 77.3386 16.0839 77.1689C17.8566 73.3386 22.5591 65.6363 31.0734 71.8584C31.1178 71.8984 31.1534 71.9474 31.1778 72.0021C31.2021 72.0569 31.2147 72.1162 31.2147 72.1762C31.2147 72.2362 31.2021 72.2955 31.1778 72.3502C31.1534 72.405 31.1178 72.454 31.0734 72.494C29.9335 73.396 29.0208 74.5549 28.4092 75.877C27.7976 77.1991 27.5042 78.6472 27.5528 80.1044C27.559 80.2754 27.6294 80.4377 27.7498 80.5587C27.8702 80.6797 28.0318 80.7505 28.202 80.7567C29.6459 80.815 31.0834 80.5322 32.3988 79.9308C33.7142 79.3295 34.8708 78.4265 35.7758 77.2944C35.8156 77.2454 35.8657 77.2059 35.9226 77.1788C35.9795 77.1517 36.0416 77.1377 36.1045 77.1377C36.1675 77.1377 36.2296 77.1517 36.2865 77.1788C36.3433 77.2059 36.3935 77.2454 36.4333 77.2944C37.6151 78.7077 40.8694 83.3241 37.2656 87.7816C35.6923 89.6817 33.438 90.8834 30.9901 91.1269C27.4945 91.5032 21.036 92.6489 18.3976 95.6764C18.2917 95.8025 18.1537 95.8973 17.9984 95.9508C17.843 96.0043 17.6762 96.0144 17.5156 95.98C17.355 95.9457 17.2066 95.8682 17.0864 95.7558C16.9662 95.6434 16.8786 95.5003 16.8329 95.3418C15.9008 92.1472 14.4526 85.0051 22.093 78.8499Z" fill="#82B74C"/>
</svg>
