<svg width="110" height="110" viewBox="0 0 110 110" fill="none" xmlns="http://www.w3.org/2000/svg">
<path d="M57.523 82.5695L75.711 91.7023C77.7501 92.7257 80.0977 91.0226 79.754 88.7648L76.6876 68.6478C76.4181 66.89 77.0001 65.1126 78.2462 63.847L92.5512 49.37C94.1567 47.745 93.2583 44.9872 91.0082 44.6161L70.9262 41.3153C69.1723 41.0263 67.6567 39.9247 66.8403 38.3465L57.4926 20.2685C56.4457 18.2412 53.5434 18.2412 52.4965 20.2685L43.1488 38.3465C42.3324 39.9246 40.8207 41.0262 39.0629 41.3153L18.9809 44.6161C16.727 44.9872 15.8325 47.745 17.4379 49.37L31.7429 63.847C32.9929 65.1126 33.571 66.89 33.3015 68.6478L30.2351 88.7648C29.8914 91.0226 32.239 92.7257 34.2781 91.7023L52.4661 82.5695C54.0559 81.7727 55.927 81.7727 57.513 82.5695H57.523Z" fill="#82B74C"/>
<path d="M14.7658 72.0202C14.4454 71.0358 14.9845 69.9772 15.9689 69.6569L19.5353 68.4967C20.5196 68.1764 21.5783 68.7155 21.8986 69.6998C22.2189 70.6842 21.6798 71.7428 20.6955 72.0631L17.1291 73.2233C16.1447 73.5436 15.0861 73.0046 14.7658 72.0202Z" fill="#82B74C"/>
<path d="M30.1332 24.7186C30.973 24.1092 32.1449 24.2967 32.7504 25.1327L34.9535 28.1679C35.5629 29.0077 35.3754 30.1796 34.5394 30.7851C33.6996 31.3945 32.5277 31.207 31.9222 30.371L29.7191 27.3358C29.1097 26.496 29.2972 25.3241 30.1332 24.7186Z" fill="#82B74C"/>
<path d="M95.234 72.0202C95.5543 71.0358 95.0153 69.9772 94.0309 69.6569L90.4645 68.4967C89.4801 68.1764 88.4215 68.7155 88.1012 69.6998C87.7809 70.6842 88.32 71.7428 89.3043 72.0631L92.8707 73.2233C93.8551 73.5436 94.9137 73.0046 95.234 72.0202Z" fill="#82B74C"/>
<path d="M79.867 24.7186C79.0272 24.1092 77.8554 24.2967 77.2499 25.1327L75.0467 28.1679C74.4374 29.0077 74.6249 30.1796 75.4608 30.7851C76.3007 31.3945 77.4725 31.207 78.078 30.371L80.2811 27.3358C80.8905 26.496 80.703 25.3241 79.867 24.7186Z" fill="#82B74C"/>
<path d="M55 101.25C53.9648 101.25 53.125 100.41 53.125 99.375V95.625C53.125 94.5898 53.9648 93.75 55 93.75C56.0352 93.75 56.875 94.5898 56.875 95.625V99.375C56.875 100.41 56.0352 101.25 55 101.25Z" fill="#82B74C"/>
</svg>
