<svg width="24" height="24" viewBox="0 0 24 24" fill="none" xmlns="http://www.w3.org/2000/svg">
<path d="M13.3242 8.43688L9.49518 12.1909C9.13118 12.5509 8.93118 13.0429 8.93918 13.5599C8.95009 14.0829 9.16549 14.5808 9.53918 14.9469C9.91418 15.3179 10.4192 15.5309 10.9422 15.5399C11.1982 15.5453 11.4527 15.4994 11.6908 15.4049C11.9288 15.3105 12.1455 15.1693 12.3282 14.9899L16.1562 11.2359C16.5173 10.8786 16.8021 10.4517 16.9933 9.98103C17.1844 9.51037 17.2779 9.00578 17.2682 8.49788C17.2472 7.45179 16.8171 6.45559 16.0702 5.72288C15.3212 4.98173 14.3157 4.55738 13.2622 4.53788C12.7507 4.52767 12.2423 4.61951 11.7667 4.80804C11.291 4.99656 10.8578 5.27799 10.4922 5.63588L6.66118 9.39088C6.11989 9.92703 5.69305 10.5675 5.40651 11.2734C5.11997 11.9794 4.9797 12.7361 4.99418 13.4979C5.02638 15.0666 5.67183 16.5603 6.79218 17.6589C7.91504 18.7703 9.42256 19.407 11.0022 19.4369C11.7697 19.4529 12.5328 19.3155 13.2466 19.0329C13.9604 18.7502 14.6106 18.328 15.1592 17.7909L18.9882 14.0349" stroke="#82B74C" stroke-width="2" stroke-linecap="round" stroke-linejoin="round"/>
</svg>
