<svg width="500" height="500" viewBox="0 0 500 500" fill="none" xmlns="http://www.w3.org/2000/svg">
<g clip-path="url(#clip0_5102_5401)">
<path fill-rule="evenodd" clip-rule="evenodd" d="M217.616 193.163C213.256 185.324 213.904 171.722 223.217 167.664C229.097 165.04 233.542 170.835 230.64 176.043C229.452 178.18 225.038 181.05 229.938 189.236C232.508 193.556 234.244 197.569 233.295 203.671C230.633 221.471 214.606 216.271 218.65 206.65C221.435 200.153 220.787 198.811 217.616 193.155V193.163Z" fill="white"/>
<path fill-rule="evenodd" clip-rule="evenodd" d="M244.282 181.104C238.68 170.78 242.06 156.098 251.25 153.93C257.639 152.387 260.054 159.338 257.099 163.59C255.509 165.935 254.174 166.568 254.282 170.449C254.421 177.971 262.492 181.891 261.25 193.41C259.275 211.263 241.474 209.033 247.245 195.647C250.031 189.243 246.612 185.463 244.29 181.104H244.282Z" fill="white"/>
<path fill-rule="evenodd" clip-rule="evenodd" d="M271.991 192.97C267.338 184.537 269.8 170.587 277.871 167.563C283.719 165.341 288.403 170.996 284.993 176.243C283.557 178.48 282.176 178.727 282.277 182.947C282.469 190.038 289.838 192.869 287.716 204.527C284.792 220.699 269.113 217.127 273.311 206.418C275.988 199.613 275.093 198.633 271.983 192.977L271.991 192.97Z" fill="white"/>
<path fill-rule="evenodd" clip-rule="evenodd" d="M325.857 285.771C321.359 268.658 315.178 258.088 305.734 248.567C296.822 239.586 284.646 231.994 267.385 229.124C266.058 220.637 261.158 216.224 251.544 216.224C241.706 216.17 238.087 220.93 235.772 229.171C212.516 232.882 194.8 245.442 184.322 264.191C180.155 271.628 179.175 277.037 176.251 285.524C172.192 286.365 169.376 286.018 167.94 290.23C163.234 303.971 186.791 300.5 197.377 300.554C210.294 300.554 325.209 301.34 329.075 299.959C336.443 297.228 336.69 285.524 325.857 285.763V285.771ZM244.283 252.186C236.359 254.161 234.584 253.675 227.308 257.247C222.408 259.677 217.315 263.404 214.306 266.436C209.105 271.636 207.724 275.764 204.8 279.074C200.896 283.641 193.318 279.776 199.167 270.656C202.338 265.688 204.947 261.328 208.704 258.142C216.335 251.599 224.838 245.944 238.349 243.567C250.51 241.484 249.43 250.897 244.283 252.193V252.186Z" fill="white"/>
<path fill-rule="evenodd" clip-rule="evenodd" d="M376.32 257.756C374.151 225.313 371.227 192.414 368.511 159.878C367.863 151.986 366.883 143.46 366.536 135.66C365.78 117.513 363.557 106.75 341.844 107.19C333.287 107.344 324.043 107.591 315.471 107.244C315.031 81.7985 310.918 70.9275 298.318 56.6C273.974 28.9711 228.997 29.5112 204.368 56.1602C190.07 71.5756 186.551 86.0189 186.798 107.159C171.906 108.648 149.537 102.939 140.54 112.706C135.988 117.621 135.795 125.198 135.255 133.692C134.746 141.886 133.959 150.458 133.226 158.644C130.247 190.686 127.377 224.325 125.749 256.414C124.807 273.773 122.423 287.615 128.866 303.084C134.205 315.846 143.01 325.467 153.156 331.662C167.539 340.396 179.074 339.254 198.033 339.254H301.868C317.847 339.254 335.209 339.748 347.284 332.202C353.812 328.198 357.222 325.359 361.582 320.459C365.695 315.838 369.946 310.429 372.469 304.566C379.298 288.556 377.562 276.304 376.32 257.756ZM210.687 86.7981C217.423 69.9785 232.701 58.6754 250.926 58.3745C264.576 58.1817 277.199 65.7273 282.678 72.5169C290.849 82.5469 294.02 89.8766 293.966 107.29L207.932 107.182C207.739 99.8526 208.233 93.009 210.695 86.7981H210.687ZM348.82 301.557C335.61 321.539 313.341 316.486 288.951 316.54C274.614 316.578 182.439 317.173 176.397 316.386C165.672 314.951 157.462 308.354 153.241 302.004C147.415 293.17 145.486 284.05 146.327 270.903C147.817 246.947 149.738 223.23 151.721 199.366C153.596 176.405 154.838 152.101 157.516 129.333L186.798 129.372C186.605 139.448 186.15 150.373 197.384 150.404C208.565 150.404 207.917 139.749 207.871 129.279L294.205 129.333C294.314 134.148 293.503 140.096 295.394 144.154C297.022 147.634 300.293 150.365 305.093 150.311C316.868 150.257 315.733 137.118 315.332 129.279L344.229 129.333C345.124 152.101 348.287 176.845 350.355 199.821C352.493 223.43 353.681 247.248 355.502 270.903C356.551 284.745 355.116 291.974 348.835 301.564L348.82 301.557Z" fill="white"/>
<path d="M69.1821 419.718C64.8611 415.937 58.3102 412.789 49.5139 410.267C47.5 409.688 45.1543 409.055 42.4768 408.376C39.7994 407.713 37.716 407.165 36.25 406.748C34.7994 406.332 33.1559 405.838 31.3503 405.298C29.5448 404.758 28.2022 404.248 27.2762 403.778C26.3503 403.323 25.4398 402.729 24.5139 402.026C23.588 401.309 22.9707 400.522 22.6235 399.681C22.2917 398.84 22.1296 397.876 22.1296 396.795C22.1296 393.594 23.4105 391.109 25.9645 389.288C28.5185 387.483 32.0525 386.596 36.5741 386.596C47.1451 386.596 52.8009 391.04 53.5494 399.951H72.1528C71.9753 390.376 68.7037 383.201 62.338 378.464C55.9877 373.719 47.7623 371.342 37.716 371.342C27.6698 371.342 18.9892 373.773 12.7083 378.656C6.42747 383.525 3.29475 390.029 3.29475 398.184C3.29475 400.707 3.59568 403.029 4.22068 405.182C4.85339 407.319 5.54784 409.117 6.30401 410.591C7.06018 412.064 8.30247 413.476 10.0154 414.811C11.7284 416.161 13.1636 417.21 14.3364 417.959C15.5093 418.73 17.3843 419.571 19.9383 420.482C22.4923 421.408 24.3518 422.071 25.5401 422.441C26.6975 422.827 28.7963 423.421 31.821 424.262C32.1528 424.347 32.5231 424.455 32.9398 424.579C33.3565 424.717 33.696 424.826 33.9583 424.91C34.2052 424.98 34.5679 425.065 35.0772 425.157C43.7963 427.68 49.5139 429.655 52.2299 431.075C54.9614 432.51 56.3272 434.786 56.3272 437.88C56.3272 441.576 54.838 444.492 51.8673 446.645C48.8889 448.782 44.8457 449.847 39.7377 449.847C26.5741 449.847 19.838 444.23 19.5062 432.958H0C0.0848765 443.126 3.53395 451.004 10.3627 456.582C17.1914 462.184 26.6744 464.961 38.8349 464.961C43.6111 464.961 48.1096 464.436 52.3457 463.387C56.5664 462.338 60.463 460.71 64.0201 458.472C67.5926 456.25 70.409 453.226 72.5077 449.407C74.6065 445.595 75.6559 441.113 75.6559 435.982C75.6559 428.93 73.4877 423.506 69.1821 419.726V419.718Z" fill="white"/>
<path d="M144.005 373.217V426.909C144.005 434.208 142.724 439.631 140.17 443.165C137.616 446.683 132.816 448.45 125.787 448.45C118.758 448.45 113.464 446.683 110.717 443.165C107.955 439.631 106.566 434.208 106.566 426.909V373.217H86.9443V426.909C86.9443 439.755 90.0771 449.276 96.3039 455.448C102.554 461.605 112.284 464.707 125.532 464.707C138.781 464.707 148.217 461.659 154.375 455.571C160.532 449.484 163.619 440.017 163.619 427.148V373.209H143.997L144.005 373.217Z" fill="white"/>
<path d="M252.076 402.073C252.076 411.486 249.151 418.607 243.287 423.437C237.423 428.267 229.738 430.682 220.293 430.682H200.185V462.932H180.71V373.209H212.122L212.137 374.783L212.153 379.999C210.509 380.454 208.881 381.156 207.253 382.19C207.199 382.298 207.099 382.345 207.006 382.437C204.028 384.435 201.79 386.727 200.286 389.35H200.178V389.543C198.202 393.023 197.462 397.05 197.886 401.687C198.534 408.23 199.321 414.78 200.023 421.338C200.077 421.863 200.131 422.372 200.216 422.858C200.478 424.378 201.142 425.62 203.295 425.551C203.665 425.535 203.974 425.481 204.259 425.412C206.134 424.903 206.358 423.066 206.304 421.122C206.304 419.147 206.304 417.149 206.289 415.174C206.304 411.956 206.289 408.716 206.25 405.498C206.25 403.122 206.551 401.085 209.614 401.039C212.346 401.039 213.133 402.474 213.326 404.519V415.174L213.38 423.066C213.38 424.394 214.468 425.497 215.81 425.497C217.153 425.497 218.171 424.394 218.171 423.066V411.763L218.133 404.465C218.326 402.466 219.059 400.985 221.844 401.031C224.908 401.031 225.201 403.03 225.201 405.46C225.201 408.33 225.216 411.2 225.216 414.07C225.232 416.4 225.255 418.746 225.255 421.068C225.255 422.835 225.409 424.517 226.844 425.181C227.23 425.373 227.685 425.481 228.264 425.497C230.718 425.551 231.219 423.884 231.451 422.048C231.489 421.786 231.505 421.508 231.536 421.222C232.168 414.68 232.917 408.129 233.511 401.571C234.244 393.347 231.32 386.997 224.36 382.375C224.252 382.291 224.151 382.237 224.059 382.128C222.431 381.149 220.787 380.393 219.159 379.96L219.144 374.853V373.209H219.267C229.329 373.209 237.315 375.624 243.21 380.454C249.105 385.284 252.068 392.498 252.068 402.065L252.076 402.073Z" fill="white"/>
<path d="M299.575 373.094H279.344L245.285 462.94H265.393L272.677 442.903H305.98L313.032 462.94H333.634L299.575 373.094ZM277.453 428.537L289.406 395.144L301.219 428.537H277.453Z" fill="white"/>
<path d="M404.252 389.736V373.217H341.173V462.94H360.772V426.137H398.596V410.529H360.772V389.736H404.244H404.252Z" fill="white"/>
<path d="M500 418.214C500 432.248 495.956 443.551 487.87 452.161C481.08 459.406 472.469 463.603 462.052 464.745V444.214C464.313 443.582 466.62 442.517 468.927 441.082C473.163 438.266 476.257 434.995 478.341 431.337C478.935 430.342 479.429 429.308 479.861 428.244C482.122 422.627 482.361 416.254 481.049 409.341C479.768 402.659 477.777 395.777 474.552 389.867C470.455 382.375 463.68 378.633 456.929 378.633C450.177 378.633 443.449 382.375 439.359 389.867C438.325 391.742 437.415 393.733 436.628 395.762C435.91 397.544 435.301 399.365 434.776 401.224C433.973 403.917 433.341 406.648 432.855 409.341C430.401 422.326 433.364 433.367 445 441.082C447.307 442.517 449.552 443.582 451.859 444.214V464.915C440.517 464.112 431.211 459.838 423.966 452.154C415.848 443.543 411.767 432.24 411.767 418.206C411.767 404.171 415.81 392.606 423.896 383.996C431.983 375.385 442.731 371.08 456.134 371.08C469.537 371.08 479.799 375.424 487.862 384.119C495.949 392.814 499.992 404.171 499.992 418.206L500 418.214Z" fill="white"/>
<path fill-rule="evenodd" clip-rule="evenodd" d="M200.285 389.35C200.231 389.404 200.201 389.473 200.178 389.542V389.35H200.285Z" fill="white"/>
</g>
<defs>
<clipPath id="clip0_5102_5401">
<rect width="500" height="429" fill="white" transform="translate(0 36)"/>
</clipPath>
</defs>
</svg>
