<svg width="98" height="105" viewBox="0 0 98 105" fill="none" xmlns="http://www.w3.org/2000/svg">
<path fill-rule="evenodd" clip-rule="evenodd" d="M50.9272 104.999C34.6445 105.058 17.3276 101.387 7.58798 88.32C-1.88579 75.6095 -1.1366 56.6213 2.55702 41.1979C6.18128 26.0642 13.4921 11.7329 27.5288 5.05341C41.5071 -1.59821 51.1633 -1.77018 65.0587 5.05341C78.787 11.795 90.493 24.0549 94.8559 38.7301C99.5444 54.501 99.9157 71.8575 89.499 84.5835C79.2319 97.1267 67.1227 104.941 50.9272 104.999Z" fill="#B3D293"/>
<path d="M39.6828 73.4081C39.5648 73.6734 39.5648 73.9681 39.671 74.2393C39.7772 74.5104 39.9896 74.7168 40.2551 74.8288C40.7861 75.0528 41.3938 74.8229 41.6475 74.3041L43.6417 70.1896C42.9042 69.9067 42.1903 69.5707 41.5059 69.1875L39.6828 73.4081Z" fill="#182F00"/>
<path d="M50.5913 51.0263C50.2255 50.9261 49.8479 50.8672 49.4526 50.8672C47.1457 50.8672 45.2695 52.7417 45.2695 55.0466C45.2695 57.3514 47.1457 59.2259 49.4526 59.2259C51.7595 59.2259 53.6357 57.3514 53.6357 55.0466C53.6357 54.6516 53.5767 54.2685 53.4764 53.903L50.8922 56.4849C50.5087 56.868 49.9954 57.0802 49.4526 57.0802C48.9098 57.0802 48.3965 56.868 48.013 56.4849C47.6295 56.1017 47.4171 55.5889 47.4171 55.0466C47.4171 54.5042 47.6295 53.9914 48.013 53.6082L50.5972 51.0263H50.5913Z" fill="#182F00"/>
<path d="M57.3936 69.1875C56.7033 69.5766 55.9894 69.9067 55.2578 70.1896L57.252 74.3041C57.4998 74.8229 58.1134 75.0528 58.6444 74.8288C58.9099 74.7168 59.1223 74.5046 59.2285 74.2393C59.3347 73.9681 59.3347 73.6734 59.2167 73.4081L57.3936 69.1875Z" fill="#182F00"/>
<path d="M54.3908 47.2312C52.9571 46.3235 51.2638 45.7988 49.4466 45.7988C44.3431 45.7988 40.1895 49.9487 40.1895 55.0477C40.1895 60.1466 44.3431 64.2965 49.4466 64.2965C54.5501 64.2965 58.7037 60.1466 58.7037 55.0477C58.7037 53.2321 58.1786 51.5403 57.27 50.1079L54.5324 52.843C54.8274 53.5209 54.9867 54.2637 54.9867 55.0418C54.9867 58.0952 52.5028 60.5769 49.4466 60.5769C46.3904 60.5769 43.9065 58.0952 43.9065 55.0418C43.9065 51.9883 46.3904 49.5007 49.4466 49.5007C50.2313 49.5007 50.9747 49.6658 51.6473 49.9546L54.3849 47.2195L54.3908 47.2312Z" fill="#182F00"/>
<path d="M61.3061 46.0861L58.2558 49.1278C59.4004 50.8196 60.0671 52.8592 60.0671 55.0461C60.0671 60.8937 55.3058 65.6566 49.4471 65.6566C43.5884 65.6566 38.8271 60.8996 38.8271 55.0461C38.8271 49.1926 43.5884 44.4356 49.4471 44.4356C51.636 44.4356 53.6774 45.1017 55.3707 46.2453L58.4151 43.2036C55.8486 41.2524 52.7275 40.1973 49.4412 40.1973C45.4705 40.1973 41.7358 41.7417 38.9274 44.5476C36.119 47.3535 34.5732 51.0848 34.5732 55.052C34.5732 59.0192 36.119 62.7505 38.9274 65.5505C39.7121 66.3345 40.5735 67.0242 41.488 67.6019C41.5234 67.6196 41.5529 67.6373 41.5824 67.6608C42.5736 68.2798 43.6238 68.775 44.7271 69.1404C44.7625 69.1463 44.7979 69.1581 44.8333 69.1758C46.3024 69.6533 47.8482 69.9008 49.4353 69.9008C51.0224 69.9008 52.5741 69.6533 54.0373 69.1758C54.0727 69.164 54.1081 69.1522 54.1435 69.1404C55.2468 68.775 56.297 68.2798 57.2882 67.6608C57.3177 67.6373 57.3472 67.6196 57.3826 67.6019C58.2971 67.0183 59.1585 66.3345 59.9432 65.5505C62.7516 62.7446 64.2974 59.0133 64.2974 55.052C64.2974 51.7745 63.2413 48.6562 61.2884 46.0861H61.3061Z" fill="#182F00"/>
<path d="M30.0304 52.2168L24.4313 52.8593C24.0596 52.9006 23.7882 53.2366 23.8354 53.6138C23.8767 53.9616 24.1717 54.2151 24.508 54.2151C24.5316 54.2151 24.5611 54.2151 24.5847 54.2151L30.1838 53.5726C30.5555 53.5313 30.8269 53.1953 30.7797 52.8181C30.7384 52.4467 30.4021 52.1755 30.0245 52.2227L30.0304 52.2168Z" fill="#182F00"/>
<path d="M31.8116 47.1115L26.6963 44.7418C26.3541 44.5827 25.9529 44.73 25.7936 45.0719C25.6343 45.4138 25.7818 45.8147 26.124 45.9738L31.2393 48.3435C31.3337 48.3848 31.4281 48.4084 31.5225 48.4084C31.7762 48.4084 32.024 48.261 32.142 48.0134C32.3013 47.6715 32.1538 47.2707 31.8116 47.1115Z" fill="#182F00"/>
<path d="M34.6558 41.7947L30.5848 37.8983C30.3134 37.6389 29.8827 37.6507 29.6231 37.9219C29.3635 38.1931 29.3753 38.6234 29.6467 38.8827L33.7177 42.7792C33.8475 42.9029 34.0186 42.9678 34.1897 42.9678C34.3667 42.9678 34.5496 42.8971 34.6794 42.7556C34.939 42.4844 34.9272 42.0541 34.6558 41.7947Z" fill="#182F00"/>
<path d="M74.4152 55.1875L68.8161 55.83C68.4444 55.8713 68.173 56.2073 68.2202 56.5846C68.2615 56.9323 68.5565 57.1858 68.8928 57.1858C68.9164 57.1858 68.9459 57.1858 68.9695 57.1858L74.5686 56.5433C74.9403 56.502 75.2117 56.166 75.1645 55.7888C75.1232 55.4174 74.7869 55.1462 74.4093 55.1934L74.4152 55.1875Z" fill="#182F00"/>
<path d="M72.8761 63.4162L67.7608 61.0465C67.4186 60.8874 67.0174 61.0347 66.8581 61.3766C66.6988 61.7185 66.8463 62.1194 67.1885 62.2785L72.3038 64.6482C72.3982 64.6895 72.4926 64.713 72.587 64.713C72.8407 64.713 73.0885 64.5657 73.2065 64.3181C73.3658 63.9762 73.2183 63.5754 72.8761 63.4162Z" fill="#182F00"/>
<path d="M65.283 66.619C65.0116 66.3597 64.5809 66.3714 64.3213 66.6426C64.0617 66.9138 64.0735 67.3441 64.3449 67.6034L68.4159 71.4999C68.5457 71.6237 68.7168 71.6885 68.8879 71.6885C69.0649 71.6885 69.2478 71.6178 69.3776 71.4822C69.6372 71.211 69.6254 70.7807 69.354 70.5213L65.283 66.6249V66.619Z" fill="#182F00"/>
<path d="M55.495 48.05L52.8577 50.6849L51.8842 51.6576L48.9696 54.5696C48.7041 54.8348 48.7041 55.2651 48.9696 55.5304C49.0994 55.666 49.2764 55.7308 49.4475 55.7308C49.6186 55.7308 49.7956 55.666 49.9254 55.5304L52.84 52.6184L53.8135 51.6458L56.4508 49.0108L57.4125 48.05L60.4215 45.0437L61.3832 44.0828L62.6635 42.8037L66.7168 43.3578C66.7463 43.3578 66.7758 43.3637 66.8112 43.3637C66.9882 43.3637 67.1652 43.2929 67.2891 43.1632L71.2834 39.1725C71.4722 38.9839 71.5312 38.7068 71.4427 38.4592C71.3542 38.2117 71.1241 38.0407 70.8645 38.0171L66.8466 37.6752L66.4985 33.6609C66.4749 33.3957 66.3038 33.1717 66.056 33.0832C65.8082 32.9948 65.5309 33.0538 65.3421 33.2424L61.3478 37.2331C61.1944 37.3805 61.1236 37.5927 61.1531 37.8049L61.7077 41.8546L60.4274 43.1338L59.4657 44.0946L56.4567 47.1009L55.495 48.0618V48.05Z" fill="#182F00"/>
</svg>
