<svg width="98" height="105" viewBox="0 0 98 105" fill="none" xmlns="http://www.w3.org/2000/svg">
<path fill-rule="evenodd" clip-rule="evenodd" d="M50.9272 104.999C34.6445 105.058 17.3276 101.387 7.58798 88.32C-1.88579 75.6095 -1.1366 56.6213 2.55702 41.1979C6.18128 26.0642 13.4921 11.7329 27.5288 5.05341C41.5071 -1.59821 51.1633 -1.77018 65.0587 5.05341C78.787 11.795 90.493 24.0549 94.8559 38.7301C99.5444 54.501 99.9157 71.8575 89.499 84.5835C79.2319 97.1267 67.1227 104.941 50.9272 104.999Z" fill="#B3D293"/>
<g clip-path="url(#clip0_4934_5578)">
<path d="M61.6875 53.4518C61.6875 46.4562 56.0071 40.7852 49 40.7852C41.9929 40.7852 36.3125 46.4562 36.3125 53.4518C36.3125 60.4474 41.9929 66.1185 49 66.1185C56.0071 66.1185 61.6875 60.4474 61.6875 53.4518ZM45.375 59.7327V57.6762C45.375 57.1713 45.1557 56.6954 44.7723 56.3697C43.1148 54.9582 42.2512 52.8076 42.4614 50.619C42.7605 47.5166 45.1956 45.0158 48.2523 44.6729C50.1283 44.4612 51.9362 45.0366 53.3428 46.2906C54.7583 47.5537 55.5703 49.3741 55.5703 51.284C55.5703 53.2546 54.7112 55.113 53.2141 56.3814C52.8452 56.6936 52.625 57.2138 52.625 57.7739V59.7345C52.625 61.1351 51.5067 62.2742 50.1328 62.2742H47.8672C46.4924 62.2742 45.375 61.1342 45.375 59.7327Z" fill="#182F00"/>
<path d="M51.2656 59.7347V58.6481L46.7344 58.5703V59.7347C46.7344 60.3871 47.2428 60.9182 47.8672 60.9182H50.1328C50.7572 60.9182 51.2656 60.3871 51.2656 59.7347Z" fill="#182F00"/>
<path d="M48.3202 54.6387L45.8008 52.1235L46.7623 51.1635L49.0008 53.3983L51.2392 51.1635L52.2007 52.1235L49.6814 54.6387V57.2625L51.3162 57.2906C51.4241 56.5179 51.773 55.8249 52.3358 55.3471C53.5284 54.3365 54.2126 52.8554 54.2126 51.2839C54.2126 49.7602 53.5665 48.309 52.4382 47.3029C51.4757 46.4443 50.275 45.9883 49.0062 45.9883C48.8077 45.9883 48.6075 45.9991 48.4054 46.0218C45.9839 46.2932 44.0536 48.2819 43.8161 50.7491C43.6476 52.498 44.3354 54.2135 45.6558 55.3372C46.2213 55.8194 46.5738 56.4862 46.6844 57.21L48.3211 57.2381V54.6369L48.3202 54.6387Z" fill="#182F00"/>
<path d="M26.1007 50.4266C30.4743 45.0306 39.1054 36.2607 48.9998 36.2607C56.6205 36.2607 63.5189 41.5789 67.9631 46.0412C68.2785 46.3578 69.3334 47.4662 69.5508 47.7023L70.8876 46.48C70.6637 46.2348 69.5744 45.0921 69.2482 44.7646C64.561 40.0598 57.2431 34.4512 48.9998 34.4512C38.3496 34.4512 29.2617 43.649 24.6842 49.2983L22.6434 47.6734L22.0869 54.1741L28.311 52.1872L26.1007 50.4275V50.4266Z" fill="#182F00"/>
<path d="M49.9062 25.4043H48.0938V30.8329H49.9062V25.4043Z" fill="#182F00"/>
<path d="M62.3913 28.485L59.1475 32.8418L60.6021 33.9213L63.8459 29.5645L62.3913 28.485Z" fill="#182F00"/>
<path d="M73.3399 57.6156L75.4813 59.321L76.0378 52.8203L69.8136 54.8072L71.9234 56.4873C67.5471 61.8842 58.9214 70.6414 49.0342 70.6414C41.4145 70.6414 34.5152 65.3232 30.071 60.8618C29.7556 60.5443 28.7007 59.4368 28.4832 59.1998L27.1465 60.4221C27.3703 60.6673 28.4587 61.81 28.785 62.1376C33.473 66.8432 40.791 72.4509 49.0342 72.4509C59.6772 72.4509 68.7597 63.2658 73.3399 57.6156Z" fill="#182F00"/>
<path d="M35.6101 28.4833L34.1553 29.5625L37.3982 33.9199L38.8531 32.8407L35.6101 28.4833Z" fill="#182F00"/>
<path d="M49.9062 75.9062H48.0938V81.3348H49.9062V75.9062Z" fill="#182F00"/>
<path d="M60.6045 72.8176L59.1494 73.8965L62.3915 78.2546L63.8466 77.1757L60.6045 72.8176Z" fill="#182F00"/>
<path d="M37.3986 72.8167L34.1553 77.1738L35.61 78.2532L38.8534 73.896L37.3986 72.8167Z" fill="#182F00"/>
</g>
<defs>
<clipPath id="clip0_4934_5578">
<rect width="58" height="57" fill="white" transform="translate(20 24.5)"/>
</clipPath>
</defs>
</svg>
