<svg width="98" height="105" viewBox="0 0 98 105" fill="none" xmlns="http://www.w3.org/2000/svg">
<path fill-rule="evenodd" clip-rule="evenodd" d="M50.9272 104.999C34.6445 105.058 17.3276 101.387 7.58798 88.32C-1.88579 75.6095 -1.1366 56.6213 2.55702 41.1979C6.18128 26.0642 13.4921 11.7329 27.5288 5.05341C41.5071 -1.59821 51.1633 -1.77018 65.0587 5.05341C78.787 11.795 90.493 24.0549 94.8559 38.7301C99.5444 54.501 99.9157 71.8575 89.499 84.5835C79.2319 97.1267 67.1227 104.941 50.9272 104.999Z" fill="#B3D293"/>
<path d="M52.9202 57.2128C52.6723 57.285 51.6337 57.4284 51.4599 57.3803C51.2871 57.3322 51.0646 56.9019 50.9401 56.8061C50.8166 56.7103 50.4457 56.3036 50.4457 56.3036C50.4457 56.3036 50.3466 56.4711 50.3959 56.5669C50.4452 56.6627 50.4696 57.2369 50.4696 57.2369C50.4696 57.2369 50.2471 57.2605 50.1236 57.1888C49.9996 57.1175 49.3559 56.6386 49.3559 56.6386C49.3559 56.6386 49.0343 57.1175 48.9606 57.1416C48.8859 57.1652 48.6384 57.1175 48.5394 57.0698C48.4408 57.0217 48.4154 56.8538 48.4652 56.7825C48.515 56.7108 48.5394 56.3286 48.4408 56.304C48.3417 56.2804 47.8468 55.9214 47.8468 55.9214C47.8468 55.9214 47.5496 55.9214 47.3519 55.9214C47.1538 55.9214 47.1538 55.7775 46.9312 55.9214C46.7086 56.0653 46.3257 56.3998 46.2329 56.5442C46.1395 56.6876 45.7643 57.0462 45.7538 57.1656C45.7433 57.2859 45.0741 57.7426 45.323 57.6681C45.323 57.6681 46.8321 57.2137 46.9068 57.2137C46.9814 57.2137 47.9956 57.2619 48.1196 57.3331C48.2431 57.4053 48.1933 57.5006 48.2431 57.6686C48.2929 57.8366 48.5398 57.9559 48.8122 58.2424C49.084 58.5297 49.3564 58.4622 49.431 58.5672C49.5047 58.6732 49.7273 58.6732 49.7273 58.6732C49.7273 58.6732 49.7527 57.9791 49.8762 58.0749C50.0001 58.1706 50.7669 58.3617 51.2374 58.4335C51.7074 58.5057 52.3262 58.4335 52.4497 58.2183C52.5737 58.0027 52.9197 57.5724 52.9197 57.5002C52.9202 57.4284 53.1681 57.1416 52.9202 57.2128Z" fill="#182F00"/>
<path d="M51.7577 55.8589C51.9559 55.8265 52.1287 55.938 52.2278 55.8589C52.3268 55.7784 52.8681 55.9704 53.0309 55.9704C53.1931 55.9704 53.6134 55.7784 53.5397 55.635C53.4655 55.4915 53.1434 55.1324 53.1434 55.1324C53.1434 55.1324 52.6078 54.7743 52.6532 54.7021C52.6987 54.6299 52.5748 54.4148 52.5006 54.5578C52.4264 54.7021 52.5503 55.0843 52.4762 55.2398C52.4015 55.3957 51.9564 55.2398 51.9564 55.2398C51.9564 55.2398 51.2633 55.0598 51.1887 55.2398C51.1145 55.4193 51.3624 55.97 51.3624 55.97L51.7577 55.8589Z" fill="#182F00"/>
<path d="M53.8364 60.4684C53.7866 60.3731 53.4406 59.7752 53.3659 59.6313C53.2922 59.4874 53.0314 59.1529 53.0314 59.1529C53.0314 59.1529 52.7227 59.033 52.7227 59.1529C52.7227 59.2727 52.7227 59.6313 52.7227 59.6313C52.995 60.1574 53.2917 60.6599 53.3659 60.8034C53.4406 60.9468 53.936 61.7122 53.9604 61.7839C53.9848 61.8561 54.406 62.3581 54.505 62.2383C54.6036 62.1189 54.5788 61.7117 54.505 61.5923C54.4304 61.4734 53.8857 60.5646 53.8364 60.4684Z" fill="#182F00"/>
<path d="M23.7408 55.7941C24.3793 52.99 25.6797 50.4234 27.4736 48.2537C27.3089 48.0445 27.1462 47.8331 26.9744 47.6309C25.0216 49.9468 23.6154 52.7087 22.9453 55.7312C23.21 55.7589 23.4751 55.7839 23.7408 55.7941Z" fill="#182F00"/>
<path d="M61.1418 56.1871C61.4003 56.1348 61.6592 56.0826 61.9162 56.027C61.3314 53.167 60.0898 50.5337 58.3491 48.2793C58.1461 48.4449 57.9355 48.6004 57.7168 48.7434C59.3886 50.9089 60.5814 53.4395 61.1418 56.1871Z" fill="#182F00"/>
<path d="M61.3088 57.1298C61.437 57.991 61.5031 58.8706 61.5031 59.7655C61.5031 60.7201 61.4275 61.6589 61.2824 62.5746C61.258 62.5108 61.2413 62.4659 61.235 62.4441C61.169 62.2216 61.0699 62.0295 60.9058 61.6464C60.7402 61.2642 60.6085 61.0403 60.4104 60.7858C60.2127 60.5308 60.1136 60.3712 59.3215 59.8927C58.5304 59.4143 58.5634 59.5739 58.4643 59.5415C58.3652 59.5101 57.5071 59.2866 56.6824 59.095C55.8572 58.9034 55.8242 58.8076 55.7251 58.8076C55.6266 58.8076 55.6926 58.9673 55.7582 59.1269C55.8242 59.2866 56.187 59.5734 56.3191 59.6688C56.4512 59.765 56.814 59.765 56.9461 59.7331C57.0782 59.7012 57.375 59.7331 57.375 59.7331L57.9684 60.4346C57.9684 60.4346 57.6392 60.7858 57.5066 61.168C57.375 61.5511 56.9131 61.7107 56.6819 61.807C56.4512 61.9028 55.3293 62.5085 55.0321 62.6362C54.7349 62.7634 54.9996 62.9226 54.9996 62.9226L56.3852 62.7634C56.3852 62.7634 56.22 63.2095 55.8908 63.848C55.561 64.4857 55.1317 64.7725 55.1317 64.7725C55.1317 64.7725 54.3065 65.7928 54.1744 65.9529C54.0428 66.1121 54.0098 67.1333 53.9107 67.5798C53.8116 68.0264 54.0098 68.3456 53.9107 68.5048C53.8116 68.6644 53.0855 69.303 53.0855 69.303L52.8879 69.9087C52.8879 69.9087 52.8548 70.2599 52.7563 70.3552C52.6572 70.451 52.2939 71.0886 52.1618 71.2483C52.0302 71.4084 51.2381 72.2375 51.0074 72.3967C50.7767 72.5559 49.9846 72.7155 49.9846 72.7155C49.9846 72.7155 49.5883 72.3333 49.5227 72.1418C49.4562 71.9502 49.1264 71.0572 49.1264 70.898C49.1264 70.7379 48.7306 69.6218 48.7306 69.6218L48.5989 68.9194V68.7283C48.5989 68.7283 48.8292 68.2818 48.8957 67.931C48.9622 67.5798 48.9948 67.1014 48.8957 67.038C48.7966 66.9737 48.632 66.5591 48.2682 66.1445C47.9054 65.7299 48.0045 65.4106 48.038 65.0599C48.071 64.7087 47.6422 64.6453 47.5431 64.5463C47.444 64.4468 46.9822 64.2941 46.8831 64.2626C46.784 64.2312 46.1905 64.4546 46.0249 64.518C45.8603 64.5814 45.1677 64.518 45.0021 64.518C44.8374 64.518 44.3095 64.3265 44.1985 64.2626C44.0874 64.1988 43.4509 63.6884 43.4509 63.6884C43.4509 63.6884 42.8244 62.5719 42.7583 62.4127C42.6927 62.2526 42.7583 61.3767 42.7583 61.3767L43.0225 60.5632C43.0225 60.5632 43.5839 59.6382 43.6165 59.542C43.649 59.4462 44.4411 58.4254 44.6723 58.139C44.9025 57.8517 44.6063 57.3732 44.4167 57.2136C44.2267 57.0544 44.2435 56.9906 44.1774 56.7671C44.1114 56.5445 44.309 56.2886 44.4167 55.9374C44.5235 55.5862 45.0653 55.7148 45.0653 55.7148L45.6497 55.5233C45.6497 55.5233 45.7942 55.0129 45.2663 54.6936C45.2663 54.6936 45.6616 54.4868 45.755 54.4544C45.8478 54.4229 46.2398 54.168 46.3714 53.976C46.503 53.7853 46.5696 53.4503 46.6194 53.4184C46.6687 53.3865 47.0477 53.0038 47.1468 52.8603C47.2464 52.716 47.4766 52.0626 47.4766 52.0626C47.4766 52.0626 47.6915 52.238 47.7245 52.3176C47.757 52.3976 48.0217 52.6364 48.0217 52.6364C48.0217 52.6364 48.4668 52.6364 48.6487 52.5568C48.8296 52.4768 49.4073 52.3657 49.539 52.238C49.6711 52.1107 49.7208 51.7757 49.7208 51.7757C49.7208 51.7757 49.9515 51.456 49.9353 51.3292C49.9185 51.202 50.1659 51.0576 50.4632 51.0419C50.7604 51.0261 50.7604 51.0261 50.8427 50.9304C50.925 50.8346 50.612 50.9142 50.0013 50.6435C49.3911 50.3723 49.605 50.6435 49.539 50.5953C49.4734 50.5477 49.539 49.5265 49.572 49.4635C49.605 49.3992 49.6873 49.1285 49.5883 49.0323C49.4901 48.9374 49.2752 49.2081 49.1929 49.3511C49.1101 49.495 48.8459 50.3561 48.7966 50.5162C48.7473 50.6754 48.978 50.9308 49.011 51.0423C49.0441 51.1538 48.8459 51.6957 48.7636 51.8558C48.6813 52.0159 48.318 52.1584 48.2682 52.1741C48.2189 52.1903 48.0212 51.8396 48.0045 51.7595C47.9882 51.68 47.7408 51.2816 47.6915 51.2654C47.6417 51.2496 47.4933 51.4093 47.3942 51.5046C47.2957 51.6004 47.0645 51.4889 46.9989 51.5046C46.9324 51.5208 46.6849 50.5796 46.6849 50.5796C46.6849 50.5796 47.0147 50.3247 47.2794 50.165C47.5431 50.0058 47.6091 49.687 47.7077 49.4635C47.8073 49.2405 48.104 48.1869 48.4668 47.7408C48.8296 47.2934 49.3576 47.23 49.6222 47.1347C49.886 47.0384 50.1497 47.1023 50.1497 47.1023C50.1497 47.1023 50.4144 47.4211 50.8097 47.5493C51.206 47.6765 51.4372 47.6446 51.6013 47.8047C51.7669 47.9634 52.3935 48.4109 52.3935 48.4109L52.2614 47.7085L52.8888 47.9C52.8888 47.9 53.8786 47.4216 53.9772 47.4216C54.0763 47.4216 54.2012 47.1351 54.2012 47.1351C54.2012 47.1351 53.2516 46.975 53.119 46.975C52.9879 46.975 52.5911 45.827 52.5581 45.3167C52.5256 44.8058 52.9214 44.4199 52.9214 44.4199C52.9214 44.4199 53.1521 45.4444 53.1521 45.5397C53.1521 45.6355 53.1521 45.8585 53.2186 46.0505C53.2842 46.2416 54.373 46.7529 54.5382 46.8159C54.7033 46.8802 54.9014 46.6243 54.9014 46.6243L54.7358 46.0505L54.8263 45.7512C55.6519 46.436 56.4144 47.1884 57.1093 47.9981C57.329 47.857 57.5391 47.6992 57.7411 47.5322C54.0883 43.2585 48.5673 40.5312 42.3993 40.5312C36.5333 40.5312 31.2537 42.998 27.609 46.9149C27.7817 47.1125 27.9459 47.3175 28.112 47.5215C28.6351 46.9519 29.1937 46.4124 29.7852 45.9085L29.9236 46.2093L30.3854 46.4642C30.3854 46.4642 30.7219 46.1135 30.7353 45.9543C30.7487 45.7947 30.8808 45.2843 30.8808 45.2843C30.8808 45.2843 30.8995 45.164 30.9071 45.0224C31.3255 44.717 31.7577 44.4278 32.2013 44.1557C32.2497 44.2177 32.2851 44.2672 32.2995 44.2959C32.3655 44.4236 32.2334 44.5194 32.1343 44.5402C32.0353 44.5606 32.5306 44.8701 32.5306 44.8701C32.5306 44.8701 33.0581 44.6467 33.1897 44.5518C33.3223 44.456 33.0581 44.9979 32.959 45.1256C32.8604 45.2528 32.3985 45.9548 32.3655 46.0501C32.333 46.1463 32.2664 46.5933 32.2664 46.5933L31.8046 46.7844C31.8046 46.7844 31.4092 46.7201 31.2436 46.8154C31.078 46.9117 31.5073 47.1985 31.6064 47.2629C31.706 47.3272 31.9702 47.2629 31.9702 47.2629C31.9702 47.2629 32.5637 46.752 32.6292 46.6567C32.6958 46.5609 33.1902 46.0496 33.3227 45.8914C33.4544 45.7308 33.8172 45.158 33.8837 44.9345C33.9493 44.711 34.5102 44.9345 34.5102 44.9345C34.5102 44.9345 34.973 44.9345 35.0716 44.9345C35.1702 44.9345 34.5437 45.3491 34.4446 45.3805C34.3456 45.4129 33.9828 45.859 33.9828 45.859C33.9828 45.859 33.5865 46.6886 33.5865 46.7844C33.5865 46.8797 33.5865 47.3586 33.5865 47.3586L33.8172 47.2943L34.279 46.7839L34.3116 46.4971C34.3116 46.4971 34.4772 46.0186 34.5432 45.9228C34.6088 45.827 35.1042 45.3486 35.3019 45.2528C35.4995 45.158 35.8628 45.2528 35.8628 45.2528C35.8628 45.2528 36.2261 45.3167 36.3577 45.4758C36.4893 45.635 36.3577 45.7308 36.3577 45.7308C36.3577 45.7308 36.3902 46.2736 36.4893 46.3374C36.5884 46.4013 36.7865 47.2305 36.7865 47.2305L36.5558 47.6451L36.9186 48.4747L36.8196 48.8893L36.3242 49.0489C36.3242 49.0489 36.0944 48.8574 36.0279 48.9846C35.9614 49.1123 36.0279 49.3039 36.0605 49.3992C36.094 49.495 35.8628 49.8138 35.7307 49.9735C35.5991 50.1331 35.2363 49.9415 35.2363 49.9415C35.2363 49.9415 34.7079 49.5269 34.6088 49.3992C34.5097 49.2715 34.3781 49.2081 34.3781 49.2081L34.5437 48.8893C34.5437 48.8893 34.9065 48.6658 35.0056 48.6024C35.1047 48.539 35.4009 47.7413 35.3684 47.6455C35.3354 47.5497 35.3023 46.9755 35.2368 46.8802C35.1702 46.7844 34.9395 46.9436 34.7749 47.1037C34.6093 47.2629 34.4121 48.092 34.4121 48.1878C34.4121 48.2836 33.7186 48.5066 33.7186 48.5066L33.4548 48.7297C33.4548 48.7297 33.7186 49.0485 33.7186 49.1443C33.7186 49.24 33.2241 49.2715 33.1251 49.2715C33.026 49.2715 32.9595 49.0485 32.9595 49.0485V48.5062C32.9595 48.5062 31.7725 49.3673 31.6069 49.4626C31.4422 49.5589 31.1125 49.9411 30.8813 50.165C30.6506 50.388 30.6506 50.8665 30.6171 51.0261C30.5841 51.1853 30.8478 51.3454 31.178 51.7595C31.5073 52.1741 31.6069 52.2065 31.739 52.4615C31.8711 52.7169 31.6069 53.2911 31.6404 53.3865C31.6729 53.4822 32.1023 52.7488 32.1023 52.7488C32.1023 52.7488 32.5967 52.2065 32.6632 52.0793C32.7293 51.952 33.1906 51.5046 33.1906 51.5046L33.026 50.9623C33.026 50.9623 33.3558 50.8984 33.4218 50.7073C33.4879 50.5158 33.5869 50.0378 33.686 49.9735C33.7851 49.9101 34.2144 49.9735 34.2144 49.9735C34.2144 49.9735 34.5442 50.165 34.6428 50.2613C34.7423 50.3561 34.7754 50.6111 34.6763 50.8031C34.5772 50.9947 34.94 51.2177 34.94 51.2177C34.94 51.2177 35.501 50.7073 35.6 50.6439C35.6991 50.5805 35.6666 51.0585 35.6666 51.2177C35.6666 51.3769 35.7321 52.0784 35.7321 52.0784L36.0294 52.908L36.0959 53.4961C36.0959 53.4961 36.4252 54.3434 36.4252 54.4387C36.4252 54.5349 36.0294 54.9171 35.9303 54.9069C35.8312 54.8958 35.6005 54.7899 35.4019 54.6626C35.2033 54.5354 35.2703 54.3114 35.2703 54.3114C35.2703 54.3114 35.7647 53.6095 35.6991 53.5137C35.6326 53.4184 35.0721 53.7367 34.94 53.7687C34.8084 53.8011 34.1814 53.8968 34.0493 53.9292C33.9177 53.9602 33.9837 54.2156 33.9837 54.2156L34.1484 54.503L34.6768 54.9069C34.6768 54.9069 34.3795 55.3641 34.2805 55.3313C34.1819 55.2998 33.5549 55.5233 33.5549 55.5233C33.5549 55.5233 32.9939 55.6195 32.8618 55.7148C32.7302 55.8102 32.3669 56.2567 32.3669 56.2567C32.3669 56.2567 32.0041 56.4168 31.6413 56.8633C31.2781 57.3103 31.0139 58.1071 30.8822 58.3306C30.7506 58.5541 30.585 58.4902 30.486 58.5541C30.3869 58.6179 30.2553 59.319 30.2553 59.319C30.2553 59.319 30.3869 60.1801 30.3869 60.2759C30.3869 60.3721 30.0241 60.3721 29.9915 60.2759C29.9585 60.1801 29.6943 59.8613 29.4962 59.6382C29.2985 59.4147 29.2324 59.319 28.9352 59.1598C28.6389 59.0001 28.5724 59.2241 28.3743 59.3828C28.1766 59.542 27.5496 59.4143 27.385 59.4143C27.2203 59.4143 26.791 59.8608 26.7249 60.0209C26.6589 60.1801 26.6263 61.0731 26.6263 61.2647C26.6263 61.4562 26.6919 61.552 26.8901 61.8074C27.0882 62.0624 27.4185 62.1263 27.4185 62.1263C27.4185 62.1263 28.0785 61.4243 28.1445 61.3285C28.2106 61.2327 28.6725 61.7112 28.6725 61.7112V61.9662C28.6725 61.9662 28.3752 62.4446 28.5078 62.5409C28.6394 62.6362 29.4641 62.731 29.4641 62.731L29.5632 63.3372C29.5632 63.3372 29.6297 63.5607 29.7613 63.6565C29.8929 63.7522 30.0911 63.7842 30.2892 63.8795C30.4869 63.9753 30.8832 64.0706 30.8832 64.0706L31.3121 63.8795C31.3121 63.8795 31.6418 63.5921 31.7739 63.5283C31.9055 63.4649 32.2683 63.5921 32.3674 63.5921C32.4665 63.5921 32.8623 63.6241 33.06 63.7203C33.2581 63.8152 33.4563 63.8476 33.6209 63.8476C33.7865 63.8476 34.2154 63.7518 34.2154 63.7518C34.2154 63.7518 34.2154 63.7518 34.2479 63.8476C34.2805 63.9424 34.2805 64.0067 34.3795 64.103C34.4786 64.1983 35.0396 64.5805 35.1712 64.6763C35.3033 64.7721 35.3693 64.8045 35.7321 64.8998C36.0959 64.9951 35.9968 65.0266 36.1284 65.1228C36.2601 65.2186 36.2931 65.2824 36.3922 65.5693C36.3922 65.5693 37.448 66.176 37.6792 66.2717C37.9099 66.3671 38.108 66.4309 38.3387 66.4624C38.5694 66.4943 38.8011 66.5586 38.8671 66.5989C38.9332 66.6396 39.8239 67.324 39.8239 67.324C39.8239 67.324 39.5266 68.1217 39.395 68.217C39.2634 68.3123 39.4611 68.4086 39.395 68.7274C39.329 69.0467 39.2634 70.3867 39.2634 70.3867C39.2634 70.3867 38.9662 70.4815 38.8346 70.5139C38.7029 70.5449 38.3397 70.8961 38.2411 70.9919C38.142 71.0872 38.0429 71.63 38.0429 71.63L37.9113 72.4277C37.9113 72.4277 37.8122 73.0015 37.7131 73.1611C37.6141 73.3208 37.449 73.9903 37.449 73.9903C37.449 73.9903 37.1848 75.1064 37.1848 75.2026C37.1848 75.298 37.0857 75.6811 37.0531 75.7764C37.0201 75.8722 37.1522 76.1591 37.1522 76.1591L37.581 76.446C37.581 76.446 37.581 76.9568 37.581 77.0526C37.581 77.1474 38.0348 77.4936 38.042 77.748C37.7782 77.6879 37.5164 77.6227 37.2575 77.5523C37.2025 77.5306 37.1527 77.5125 37.1192 77.4991C36.9536 77.4357 36.7229 77.0845 36.7229 77.0845L36.3266 76.6061L35.9312 75.9037C35.9312 75.9037 35.6015 75.4252 35.5359 75.2665C35.4694 75.1059 35.2712 74.6918 35.1396 74.4368C35.008 74.1819 34.8424 73.7344 34.6777 73.001C34.5121 72.2676 34.1168 71.6615 33.9852 71.2145C33.8531 70.7684 33.6554 70.2585 33.2586 69.7477C32.8628 69.2368 32.6651 69.2692 32.3679 69.1415C32.0707 69.0138 31.6423 68.4081 31.6423 68.4081C31.6423 68.4081 31.0479 67.8658 30.8167 67.5785C30.5855 67.2911 30.619 67.1 30.619 67.1C30.619 67.1 30.586 66.4619 30.4869 66.3032C30.3878 66.1431 30.5204 65.9201 30.5204 65.9201L31.0148 64.9632C31.0148 64.9632 30.6851 64.4847 30.652 64.3251C30.619 64.1655 30.4539 64.4523 30.4539 64.4523C30.4539 64.4523 30.1902 64.5167 30.0911 64.4523C29.992 64.3885 29.332 64.1021 29.0022 63.7832C28.6725 63.4644 28.1115 63.2409 27.1547 62.8573C26.198 62.4751 26.0664 62.5061 26.0664 62.5061C26.0664 62.5061 25.3073 62.1239 25.2082 62.092C25.1091 62.0601 25.0105 61.6136 25.0105 61.6136C25.0105 61.6136 24.8124 61.0717 24.7138 60.8806C24.6147 60.6909 24.0863 59.8594 23.9872 59.6993C23.8886 59.5401 23.6574 59.4124 23.6574 59.4124C23.6574 59.4124 23.6249 59.5401 23.724 59.7312C23.823 59.9228 23.9547 60.2735 23.9547 60.2735C23.9547 60.2735 24.2514 60.9116 24.2184 60.8797C24.1858 60.8482 23.9547 60.8797 23.9547 60.8797C23.9547 60.8797 23.6574 60.529 23.5584 60.3693C23.5081 60.2879 23.3966 60.0884 23.2999 59.8788C23.2994 59.8404 23.2985 59.802 23.2985 59.7636C23.2985 58.7341 23.3875 57.7244 23.5555 56.7402C23.2918 56.7236 23.0285 56.6953 22.7653 56.668C22.5959 57.6763 22.5068 58.71 22.5068 59.7636C22.5068 70.3696 31.4312 78.9978 42.4022 78.9978C53.3727 78.9978 62.2976 70.3696 62.2976 59.7636C62.2976 58.8146 62.2258 57.8818 62.088 56.9693C61.8266 57.0257 61.5677 57.0762 61.3088 57.1298ZM47.8068 43.4982C47.9054 43.4019 48.7353 43.0197 48.7353 43.0197C48.7353 43.0197 48.7961 43.3709 48.7353 43.4982C48.6746 43.625 48.6971 43.9447 48.7301 44.04C48.7631 44.1363 48.6315 44.5189 48.5324 44.394C48.4333 44.2691 48.2677 44.3278 48.1691 44.394C48.0705 44.4597 47.7403 44.9706 47.7403 44.9706C47.7403 44.9706 47.5747 44.5189 47.2784 43.817C47.2789 43.8165 47.7073 43.594 47.8068 43.4982ZM30.7353 61.807L30.1878 61.5516C30.1878 61.5516 29.4942 61.2961 29.3956 61.2961V60.9454H29.8575C29.8575 60.9454 30.4515 61.1055 30.5836 61.137C30.7157 61.1689 31.3101 61.5196 31.3427 61.5516C31.3752 61.5835 30.7353 61.807 30.7353 61.807ZM32.4641 62.03L32.0022 62.2535H31.3432V62.03L31.9041 61.8074H32.4641V62.03ZM44.8039 53.386C44.7379 53.4818 44.3023 53.7048 44.3023 53.7048C44.3023 53.7048 44.1114 52.9714 44.0118 52.8756C43.9127 52.7794 44.4081 52.6521 44.6063 52.5568L44.8039 52.7794C44.8039 52.7794 44.87 53.2907 44.8039 53.386ZM45.6497 51.7276C45.7028 51.8229 45.7282 52.1422 45.755 52.2375C45.7818 52.3338 45.7612 52.6207 45.9919 52.8603C46.2226 53.0996 46.2561 53.4503 46.2226 53.7053C46.19 53.9602 45.7282 53.7367 45.6291 53.7053C45.53 53.6733 45.0653 54.2156 45.0653 54.2156C45.0653 54.2156 45.0681 53.8334 45.0653 53.7053C45.0629 53.578 45.2333 52.8761 45.3319 52.7164C45.4309 52.5568 45.1012 52.3338 45.0681 52.1103C45.0346 51.8873 45.3319 51.5037 45.3319 51.5037C45.3319 51.5037 45.5961 51.6318 45.6497 51.7276ZM41.1745 48.7616C40.9764 48.9208 40.2173 49.4631 40.0527 49.5589C39.8875 49.6537 38.9638 50.9618 38.8317 51.1219C38.7001 51.2816 38.5349 50.7707 38.5019 50.6749C38.4694 50.5796 38.1721 49.6537 38.2545 49.2396C38.3368 48.825 38.5675 47.8996 38.5675 47.8996C38.5675 47.8996 38.7987 47.5174 38.7326 47.4216C38.6666 47.3267 38.8977 46.4642 38.8977 46.4642C38.8977 46.4642 38.9638 45.7951 38.9638 45.5402C38.9638 45.2843 38.9312 44.8382 38.9312 44.8382L38.5354 44.6786C38.5354 44.6786 38.3042 44.4232 38.2549 44.376C38.2052 44.3283 38.5354 43.6578 38.6015 43.4987C38.6675 43.3381 39.3931 43.116 39.4922 43.116C39.5913 43.116 39.6238 42.893 39.822 42.6061C40.0196 42.3201 39.822 42.3428 39.822 42.3428C39.822 42.3428 38.667 42.9559 38.4694 43.0202C38.2712 43.0845 38.0731 43.3714 37.8419 43.4987C37.6112 43.6254 37.7428 43.8499 37.6112 44.0724C37.4796 44.2955 37.0833 44.4236 36.9579 44.3598C36.833 44.2955 36.6879 43.9771 36.6879 43.9771C36.6879 43.9771 36.4898 43.4667 36.6879 43.3709C36.8856 43.2747 37.0024 43.0521 37.0024 43.0521H36.6879L37.0172 42.1586C37.0172 42.1586 37.0297 42.1133 37.0493 42.0346C38.7479 41.5552 40.5428 41.2966 42.3993 41.2966C43.4418 41.2966 44.4646 41.3789 45.4625 41.5353C45.2385 42.0406 44.9691 42.4455 44.9691 42.4455C44.9691 42.4455 44.5732 42.9878 44.4081 43.3066C44.243 43.6254 44.1114 43.6893 44.1114 43.6893C44.1114 43.6893 43.7811 45.1246 43.7156 45.5073C43.649 45.8909 43.5835 46.1459 43.4509 46.3055C43.3193 46.4647 43.1216 46.752 43.1216 46.8473C43.1216 46.9431 42.9895 47.5817 42.9565 47.6775C42.9234 47.7723 42.4281 48.3146 42.2304 48.4113C42.0322 48.5057 41.3727 48.6015 41.1745 48.7616ZM42.3955 49.0799L43.2034 48.9522L44.0113 49.0799C44.0113 49.0799 43.9123 49.4312 43.7806 49.526C43.649 49.6218 43.2532 49.973 43.2532 49.973H42.5927C42.5932 49.973 42.3955 49.3034 42.3955 49.0799ZM55.5686 69.055C55.5437 69.1272 55.2221 69.6537 55.1479 70.1081C55.0737 70.562 54.8761 70.6819 54.8014 70.6578C54.7272 70.6342 54.2003 70.2511 54.2003 70.2511V69.8925C54.3065 69.7727 54.7023 68.8639 54.8014 68.8158C54.9005 68.7681 55.3705 68.2896 55.4696 68.1939C55.5686 68.0981 55.7419 67.6196 55.8161 67.8117C55.8907 68.0028 55.593 68.9837 55.5686 69.055Z" fill="#182F00"/>
<path d="M69.899 32.4558C69.6379 30.3391 67.8105 28.7264 65.5654 28.7264C64.8867 28.7264 64.2601 28.8776 63.738 29.1296C62.9026 27.7689 61.4407 26.9121 59.6654 26.9121C58.0469 26.9121 56.6372 27.7185 55.8018 28.8776C57.5248 28.9784 59.1433 29.8856 60.1354 31.2463C60.7619 31.0447 61.3884 30.9439 62.015 30.9439C64.6778 30.9439 66.9229 32.8086 67.3928 35.3285C69.2203 36.1853 70.4211 37.9996 70.4211 40.0155C71.7264 39.3099 72.5618 37.9492 72.5618 36.3869C72.5618 34.6229 71.4654 33.111 69.899 32.4558Z" fill="#182F00"/>
<path d="M60.5529 35.9824C60.0308 35.9824 59.5609 36.184 59.1954 36.5368C58.8299 36.8896 58.6211 37.3432 58.6211 37.8975C58.6211 38.4015 58.8299 38.8551 59.1954 39.2583C59.5609 39.611 60.0308 39.8126 60.5529 39.8126C61.0751 39.8126 61.545 39.611 61.9105 39.2583C62.2759 38.9055 62.4848 38.4519 62.4848 37.8975C62.4848 37.3936 62.2759 36.94 61.9105 36.5368C61.545 36.1336 61.1273 35.9824 60.5529 35.9824Z" fill="#182F00"/>
<path d="M66.9229 35.6317C66.6618 33.263 64.5733 31.3983 62.0672 31.3983C61.3362 31.3983 60.6052 31.5495 59.9787 31.8519C59.0389 30.34 57.3681 29.332 55.4362 29.332C52.5124 29.332 50.1106 31.6503 50.1106 34.4222C50.1106 34.5734 50.1106 34.7246 50.1106 34.8758C48.5442 35.8837 47.5 37.5972 47.5 39.5627C47.5 42.5866 50.0584 45.0561 53.1911 45.0561C53.8699 45.0561 54.5486 44.9553 55.1752 44.7033C56.0628 45.7112 57.4203 46.3664 58.9344 46.3664C60.6052 46.3664 62.1194 45.5601 63.007 44.3001C63.6335 44.5521 64.3123 44.7033 64.991 44.7033C67.7061 44.7033 69.899 42.5866 69.899 39.9659C69.899 38.0508 68.6459 36.3373 66.9229 35.6317ZM53.6088 39.1596C53.9743 39.5123 54.392 39.7139 54.9141 39.7139C55.2274 39.7139 55.4884 39.6635 55.7495 39.5627C55.9583 39.4619 56.2194 39.3108 56.4805 39.0588L57.0548 39.6635C56.4805 40.2683 55.8017 40.5707 54.9663 40.5707C54.1309 40.5707 53.4522 40.3187 52.9301 39.8147C52.4079 39.3108 52.0947 38.6556 52.0947 37.8996C52.0947 37.1437 52.3557 36.4885 52.9301 35.9341C53.5044 35.4301 54.1831 35.1782 55.0185 35.1782C55.8539 35.1782 56.5849 35.4805 57.107 36.0853L56.5327 36.6901C56.2716 36.4381 56.0106 36.2869 55.8017 36.1861C55.5929 36.0853 55.2796 36.0349 54.9663 36.0349C54.4442 36.0349 53.9743 36.1861 53.6088 36.5389C53.2433 36.8917 53.0345 37.2948 53.0345 37.8492C53.0867 38.4036 53.2433 38.8068 53.6088 39.1596ZM62.5893 39.8147C62.0672 40.3187 61.3884 40.5707 60.553 40.5707C59.7698 40.5707 59.0911 40.3187 58.5167 39.8147C57.9424 39.3108 57.6813 38.6556 57.6813 37.8996C57.6813 37.1437 57.9424 36.4885 58.5167 35.9845C59.0389 35.4805 59.7176 35.2285 60.553 35.2285C61.3362 35.2285 62.0149 35.4805 62.5893 35.9845C63.1636 36.4885 63.4247 37.1437 63.4247 37.8996C63.4247 38.6556 63.1636 39.2604 62.5893 39.8147ZM65.4609 42.9898H63.2158V42.5362L64.2079 41.5786C64.4167 41.3771 64.5733 41.1755 64.6778 41.0747C64.7822 40.9739 64.8344 40.8227 64.8344 40.7219C64.8344 40.6211 64.7822 40.4699 64.6778 40.4195C64.5733 40.3187 64.4689 40.2683 64.3123 40.2683C64.0512 40.2683 63.8424 40.4195 63.6335 40.6715L63.2158 40.4195C63.3725 40.2179 63.5291 40.0667 63.6857 39.9659C63.8424 39.8651 64.1034 39.8147 64.3645 39.8147C64.6255 39.8147 64.8866 39.9155 65.0955 40.0667C65.3043 40.2179 65.4087 40.4699 65.4087 40.7219C65.4087 40.8731 65.3565 41.0243 65.3043 41.1755C65.1999 41.3267 65.0432 41.5282 64.8344 41.7298L64.0512 42.4858H65.5132V42.9898H65.4609Z" fill="#182F00"/>
</svg>
