<svg width="98" height="105" viewBox="0 0 98 105" fill="none" xmlns="http://www.w3.org/2000/svg">
<path fill-rule="evenodd" clip-rule="evenodd" d="M50.9272 104.999C34.6445 105.058 17.3276 101.387 7.58798 88.32C-1.88579 75.6095 -1.1366 56.6213 2.55702 41.1979C6.18128 26.0642 13.4921 11.7329 27.5288 5.05341C41.5071 -1.59821 51.1633 -1.77018 65.0587 5.05341C78.787 11.795 90.493 24.0549 94.8559 38.7301C99.5444 54.501 99.9157 71.8575 89.499 84.5835C79.2319 97.1267 67.1227 104.941 50.9272 104.999Z" fill="#B3D293"/>
<g clip-path="url(#clip0_4935_5672)">
<path fill-rule="evenodd" clip-rule="evenodd" d="M61.2994 36.1902C61.0324 36.457 60.5968 36.457 60.3269 36.1902C60.0599 35.9205 60.0599 35.4851 60.3269 35.2182L63.6041 31.9401C63.8711 31.6705 64.3067 31.6705 64.5766 31.9401C64.8436 32.207 64.8436 32.6424 64.5766 32.9121L61.2994 36.1902ZM25.2929 49.7208C25.6723 49.7208 25.9815 50.0269 25.9815 50.4062C25.9815 50.7882 25.6723 51.0944 25.2929 51.0944H20.6554C20.276 51.0944 19.9668 50.7882 19.9668 50.4062C19.9668 50.0269 20.276 49.7208 20.6554 49.7208H25.2929ZM31.8724 35.2179C32.1423 35.4848 32.1423 35.9202 31.8724 36.1899C31.6026 36.4567 31.167 36.4567 30.9 36.1899L27.62 32.9118C27.353 32.6421 27.353 32.2067 27.62 31.9398C27.8898 31.6702 28.3254 31.6702 28.5925 31.9398L31.8724 35.2179ZM30.9 64.6277C31.0264 64.4873 31.2035 64.4058 31.3918 64.4002C31.5801 64.3946 31.7656 64.4676 31.8977 64.5996C32.0326 64.7317 32.1057 64.9142 32.1001 65.1053C32.0944 65.2935 32.0129 65.4704 31.8724 65.5968L28.5924 68.8749C28.3254 69.1418 27.8898 69.1418 27.6199 68.8749C27.3529 68.6053 27.3529 68.1699 27.6199 67.903L30.8999 64.6249L30.9 64.6277ZM46.7882 29.6111C46.777 29.9847 46.4706 30.2796 46.0996 30.2796C45.7286 30.2796 45.4223 29.9847 45.411 29.6111V24.9791C45.4223 24.6055 45.7286 24.3105 46.0996 24.3105C46.4706 24.3105 46.777 24.6055 46.7882 24.9791V29.6139V29.6111ZM49.6663 77.4342L42.533 77.437C43.2047 78.7881 44.5875 79.6449 46.0996 79.6449C47.6117 79.6449 48.9945 78.7881 49.669 77.437L49.6663 77.4342ZM66.6454 64.0467C65.004 62.4063 62.4295 62.1507 60.4958 63.4428C58.5649 64.7321 57.8145 67.2068 58.7026 69.35C59.5908 71.4961 61.8729 72.7152 64.1523 72.263C66.4318 71.8107 68.0731 69.8107 68.0731 67.4877C68.0759 66.1984 67.5617 64.9597 66.6454 64.0467ZM63.2081 61.2462C66.1873 61.249 68.7533 63.3529 69.3323 66.2743C69.9141 69.1956 68.3486 72.1198 65.5943 73.2574C62.8399 74.3978 59.6667 73.4343 58.0113 70.9568C56.3559 68.4793 56.6819 65.1787 58.7898 63.0719C59.9618 61.9005 61.5498 61.2432 63.2081 61.2432V61.2462ZM51.5412 71.479C51.5074 71.3779 51.4737 71.2795 51.4428 71.1756L49.4473 70.7908C49.1044 70.7262 48.8683 70.4172 48.888 70.0717V68.2683H36.5239V69.8723C36.5267 70.7571 37.2434 71.4734 38.1288 71.479L51.5412 71.479ZM51.5046 76.0351L51.2208 75.7514C50.9819 75.5098 50.9538 75.1278 51.1561 74.8553L52.2804 73.1952C52.2213 73.0829 52.1623 72.9677 52.1089 72.8525H39.3937V74.4565C39.3993 75.3413 40.116 76.0576 41.0014 76.0604H51.1983C51.3023 76.0604 51.4035 76.052 51.5047 76.0324L51.5046 76.0351ZM42.8201 62.4456C39.7088 60.3837 38.2473 58.1591 37.7048 55.8697C37.3816 55.645 37.0556 55.4343 36.7239 55.2377C36.3136 54.9933 35.9032 54.7742 35.4901 54.5748V54.572C35.1472 54.4091 35.0039 54.0017 35.1669 53.6591C35.3299 53.3192 35.7402 53.1731 36.0803 53.336C36.5384 53.5551 36.9881 53.7967 37.4266 54.0551L37.4547 54.072V54.0748C37.4266 53.4035 37.4462 52.7349 37.5221 52.0692C35.9904 51.3753 34.3377 50.9905 32.657 50.94C32.0555 50.9175 31.4512 50.9371 30.8526 50.9933H30.8076C30.1556 51.0551 29.5091 51.1619 28.874 51.3079C30.5912 52.4119 31.707 54.3388 32.8594 56.336C34.8437 59.7714 36.96 63.4344 42.8203 62.4344L42.8201 62.4456ZM49.8044 50.1281C50.2822 49.732 50.7797 49.364 51.2996 49.0241C54.0849 47.2348 57.3228 46.2769 60.6339 46.2572C59.8076 41.3583 56.567 37.2037 52.0112 35.2125C47.4555 33.2214 42.2021 33.6591 38.0398 36.3783C33.8801 39.1002 31.3702 43.7347 31.373 48.7044C31.373 48.9881 31.3787 49.2465 31.3927 49.4797C31.3927 49.5162 31.3927 49.5527 31.3983 49.5892C31.8368 49.5667 32.2724 49.5639 32.7053 49.578H32.7024C34.4309 49.6313 36.1342 50.0021 37.7306 50.6678C37.9555 49.4347 38.2871 48.2015 38.6104 46.9909C39.4676 43.7942 40.2883 40.7409 38.7537 38.3171C38.5907 38.0586 38.6188 37.7244 38.8212 37.4969C39.0235 37.2693 39.3524 37.2019 39.6278 37.3311C42.4946 38.6513 44.9876 40.6654 46.8762 43.1906C48.3939 45.2356 49.4001 47.6148 49.8048 50.1288L49.8044 50.1281ZM44.1467 61.6617C37.2438 57.3921 38.6351 52.1984 39.9336 47.3444C40.6755 44.5832 41.3894 41.9202 40.7374 39.4767L40.7402 39.4739C42.7021 40.6341 44.4109 42.1762 45.7684 44.0048C47.3564 46.1284 48.3232 48.6509 48.5649 51.2915C47.7386 52.1538 47.0135 53.1089 46.4064 54.1398C46.3839 53.5134 46.3389 52.8982 46.2687 52.2971H46.2715C46.0972 50.6987 45.7431 49.1257 45.2147 47.6089C45.0882 47.2522 44.6975 47.0612 44.3406 47.1876C43.9837 47.3112 43.7953 47.7016 43.919 48.0583C44.4137 49.4797 44.7425 50.9516 44.9055 52.446C45.0798 54.0752 45.0995 55.7185 44.9646 57.3505C44.5149 58.7493 44.2422 60.196 44.1523 61.6623L44.1467 61.6617ZM49.172 64.3078H49.1692C48.995 64.437 48.8882 64.6421 48.8882 64.8612V66.8949H37.7724C37.5897 66.319 37.4211 65.7713 37.2497 65.2151C37.0164 64.4567 36.7831 63.6898 36.5302 62.9258C38.4076 64.0466 40.9118 64.4455 44.5405 63.4707H44.5461V63.4679C44.5658 63.4764 44.5855 63.482 44.6051 63.4876C46.016 63.9174 47.4691 64.187 48.939 64.2966L49.172 64.3078ZM52.9748 63.5775C53.0113 63.4848 53.0479 63.3949 53.0844 63.3022C53.2559 62.8837 53.4554 62.4764 53.6803 62.0831C53.8067 61.8584 53.7955 61.5775 53.6522 61.364L52.5953 59.7994L55.5127 56.8837L57.0755 57.9399H57.0726C57.3031 58.0944 57.601 58.0972 57.8343 57.9455C58.2166 57.7292 58.61 57.5382 59.0148 57.3697C59.4335 57.1983 59.8579 57.0522 60.2935 56.9314C60.5465 56.8612 60.7376 56.6562 60.7854 56.3977L61.1451 54.5494H65.2711L65.6309 56.3977C65.6843 56.673 65.8979 56.8865 66.1705 56.9427C67.0249 57.1842 67.8456 57.5298 68.6185 57.968C68.8434 58.0944 69.1216 58.0831 69.338 57.9399L70.9007 56.8837L72.3594 58.3415L73.8209 59.7993L72.7641 61.3611V61.3583C72.6095 61.5887 72.6067 61.8864 72.7584 62.1196C72.972 62.5016 73.166 62.8948 73.3346 63.2993C73.5061 63.7151 73.655 64.1421 73.7731 64.5774C73.8433 64.8302 74.0485 65.0212 74.3071 65.069L76.1592 65.4285V69.5493L74.3071 69.9089C74.0316 69.9622 73.818 70.1729 73.7618 70.4482C73.5201 71.3021 73.1772 72.1251 72.7387 72.8976C72.6095 73.1251 72.6207 73.4032 72.7669 73.6167L73.8208 75.1785L70.9034 78.0943L69.3407 77.038C69.1102 76.8836 68.8123 76.8807 68.5818 77.0324C68.1996 77.2487 67.8033 77.4397 67.3986 77.6083C66.9826 77.7824 66.5554 77.9285 66.1226 78.0493C65.8696 78.1167 65.6785 78.3246 65.6279 78.5802L65.2682 80.4285H61.145L60.7852 78.5802C60.7318 78.3077 60.521 78.0914 60.2456 78.0352C59.8268 77.9173 59.4165 77.7768 59.0146 77.6083C58.5958 77.4341 58.1883 77.2375 57.7948 77.0128C57.57 76.8864 57.2889 76.8948 57.0753 77.0409L55.5126 78.0971L54.0539 76.6392L52.5952 75.1786L53.6521 73.6168V73.6196C53.8066 73.3893 53.8095 73.0915 53.6577 72.8584C53.4891 72.5606 53.3345 72.2488 53.1911 71.9286V71.9314C53.1799 71.9033 53.1686 71.8752 53.1546 71.8499C53.1293 71.7937 53.1068 71.7347 53.0815 71.6786H53.0843C52.9101 71.2628 52.7639 70.8358 52.6431 70.4005C52.5728 70.1477 52.3676 69.9567 52.1119 69.9089L50.2597 69.5494V67.6421C50.2625 67.6028 50.2625 67.5606 50.2597 67.5213V65.4286L52.1119 65.069C52.3845 65.0157 52.5981 64.805 52.6543 64.5325C52.7386 64.2292 52.8398 63.9258 52.9522 63.6252C52.9607 63.6084 52.9663 63.5915 52.9719 63.5747L52.9748 63.5775ZM61.1621 53.1786L60.5804 53.1758C60.2515 53.1758 59.9676 53.4117 59.9058 53.7347L59.5208 55.7319C59.1666 55.8415 58.8237 55.9679 58.4921 56.1055C58.1604 56.2431 57.8288 56.3976 57.4999 56.569L55.8389 55.4454L55.8417 55.4426C55.5662 55.2403 55.1868 55.2684 54.9451 55.51L51.2238 59.2291V59.2263C50.9934 59.4566 50.9568 59.8218 51.1395 60.0943L52.2806 61.7797C52.112 62.0999 51.9574 62.4258 51.8197 62.76L51.8225 62.7628C50.8978 62.9342 49.9591 62.9904 49.0203 62.923C47.9579 62.8499 46.904 62.6786 45.8697 62.4117C47.2469 60.2712 48.8573 58.2909 50.6702 56.5016C52.4015 54.7881 54.4027 53.3667 56.5921 52.2937C56.9322 52.1308 57.0756 51.7206 56.9125 51.3808C56.7495 51.0381 56.342 50.8948 55.9991 51.0577C53.6775 52.1954 51.5527 53.701 49.7146 55.5156C48.225 56.9734 46.8759 58.5662 45.6758 60.2684C45.8275 59.26 46.0777 58.2685 46.4234 57.3077C47.4661 54.3752 49.4448 51.8695 52.053 50.1701C54.7287 48.4566 57.8541 47.569 61.0325 47.6223C61.1393 47.6223 61.2489 47.6223 61.3558 47.6279H61.3586H61.4485C62.8594 47.6701 64.2619 47.8723 65.6279 48.2262C64.9055 48.6392 64.2478 49.156 63.6716 49.7571C62.7105 50.7965 61.8701 51.9426 61.1646 53.1701L61.1621 53.1786ZM66.907 51.0971V51.0943C66.5276 51.0943 66.2184 50.7881 66.2184 50.4089C66.2184 50.0297 66.5276 49.7207 66.907 49.7207H71.5445C71.9239 49.7207 72.2331 50.0297 72.2331 50.4089C72.2331 50.7881 71.9239 51.0943 71.5445 51.0943L66.907 51.0971Z" fill="#182F00"/>
</g>
<defs>
<clipPath id="clip0_4935_5672">
<rect width="59" height="64" fill="white" transform="translate(20 20)"/>
</clipPath>
</defs>
</svg>
