<svg width="98" height="105" viewBox="0 0 98 105" fill="none" xmlns="http://www.w3.org/2000/svg">
<path fill-rule="evenodd" clip-rule="evenodd" d="M50.9272 104.999C34.6445 105.058 17.3276 101.387 7.58798 88.32C-1.88579 75.6095 -1.1366 56.6213 2.55702 41.1979C6.18128 26.0642 13.4921 11.7329 27.5288 5.05341C41.5071 -1.59821 51.1633 -1.77018 65.0587 5.05341C78.787 11.795 90.493 24.0549 94.8559 38.7301C99.5444 54.501 99.9157 71.8575 89.499 84.5835C79.2319 97.1267 67.1227 104.941 50.9272 104.999Z" fill="#B3D293"/>
<g clip-path="url(#clip0_4935_5686)">
<path fill-rule="evenodd" clip-rule="evenodd" d="M53.6221 21.0772C53.2397 20.809 52.8207 20.5851 52.3807 20.4132C51.9407 20.2413 51.485 20.1189 51.0241 20.0564C50.5632 19.9913 50.0918 19.9809 49.6177 20.0278C49.1594 20.072 48.6984 20.1736 48.2427 20.3325C47.4832 20.5955 46.8154 20.9965 46.255 21.4965C45.6709 22.0174 45.1995 22.645 44.8669 23.3351C44.5317 24.0278 44.3326 24.7856 44.2907 25.5669C44.2488 26.3195 44.351 27.0903 44.6181 27.8429C45.3986 30.0591 49.7408 32.9914 52.8835 35.1136L52.8861 35.111C52.907 35.1266 52.9306 35.1422 52.949 35.1579L53.918 35.8115C54.0725 35.9183 54.2244 36.0224 54.3737 36.124C54.8032 35.8271 55.3086 35.486 55.8481 35.1214L55.8586 35.1162C57.4588 34.0355 59.3654 32.7464 60.9734 31.4313C62.5056 30.1761 63.7521 28.9157 64.1319 27.8402V27.8376C64.399 27.085 64.5011 26.3141 64.4592 25.5641C64.4147 24.7829 64.2157 24.0251 63.8831 23.3323C63.5478 22.6422 63.0791 22.0146 62.495 21.4938C61.932 20.9938 61.2641 20.5927 60.5073 20.3297C60.0516 20.1709 59.5906 20.0693 59.1323 20.025C58.6609 19.9782 58.1895 19.9886 57.7259 20.0537C57.2545 20.1188 56.7962 20.2386 56.3641 20.4105C55.9293 20.5823 55.5103 20.8063 55.12 21.0823C54.8922 21.2412 54.6303 21.3167 54.3684 21.3141C54.1039 21.3115 53.8472 21.2308 53.6298 21.0771L53.6221 21.0772ZM61.7748 45.8972H62.5658C63.0398 45.8165 63.4641 45.5874 63.7888 45.2644C64.2026 44.853 64.4593 44.2826 64.4593 43.655C64.4593 43.0248 64.2026 42.4571 63.7888 42.0456C63.375 41.6342 62.8014 41.379 62.1703 41.379C61.5391 41.379 60.9655 41.6342 60.5517 42.0456C60.1379 42.4571 59.8813 43.0274 59.8813 43.655C59.8813 44.2852 60.1379 44.853 60.5517 45.2644C60.8765 45.5873 61.3008 45.8139 61.7748 45.8972ZM66.9107 49.1915C66.4026 48.7071 65.8264 48.3087 65.2031 48.0144C64.4279 47.6473 63.5767 47.4415 62.681 47.4363C62.5134 47.4572 62.3432 47.4702 62.1703 47.4702C61.9975 47.4702 61.8246 47.4598 61.6596 47.4363C60.764 47.4441 59.9128 47.6499 59.1376 48.0144C58.5143 48.3087 57.9381 48.7098 57.43 49.1915C57.9198 49.8321 58.2079 50.629 58.2079 51.4962C58.2079 52.5066 57.8124 53.4284 57.1655 54.1108C58.3729 54.5066 59.465 55.1993 60.3685 56.1134C61.1123 56.866 61.7251 57.767 62.1703 58.7722C62.6155 57.767 63.2284 56.866 63.9722 56.116C64.8757 55.2019 65.9678 54.5092 67.1751 54.1134C66.5282 53.4311 66.1328 52.5118 66.1328 51.4988C66.1328 50.6316 66.4235 49.8347 66.9106 49.1941L66.9107 49.1915ZM46.1762 45.8972H46.9671C47.4412 45.8165 47.8654 45.5874 48.1902 45.2644C48.604 44.853 48.8606 44.2826 48.8606 43.655C48.8606 43.0248 48.604 42.4571 48.1902 42.0456C47.7764 41.6342 47.2028 41.379 46.5716 41.379C45.9404 41.379 45.3669 41.6342 44.9531 42.0456C44.5393 42.4571 44.2826 43.0274 44.2826 43.655C44.2826 44.2852 44.5393 44.853 44.9531 45.2644C45.2778 45.5873 45.7022 45.8139 46.1762 45.8972ZM51.312 49.1915C50.8039 48.7071 50.2277 48.3087 49.6044 48.0144C48.8292 47.6473 47.978 47.4415 47.0824 47.4363C46.9148 47.4572 46.7445 47.4702 46.5717 47.4702C46.3988 47.4702 46.226 47.4598 46.061 47.4363C45.1653 47.4441 44.3141 47.6499 43.5389 48.0144C42.9156 48.3087 42.3394 48.7098 41.8313 49.1915C42.3211 49.8321 42.6092 50.629 42.6092 51.4962C42.6092 52.5066 42.2137 53.4284 41.5668 54.1108C42.7192 54.4884 43.7667 55.1368 44.6441 55.9884C45.4429 56.7645 46.1029 57.7097 46.569 58.7722C47.0378 57.7097 47.6978 56.7645 48.4966 55.9884C49.374 55.1368 50.4215 54.4884 51.5739 54.1108C50.927 53.4285 50.5315 52.5093 50.5315 51.4962C50.5315 50.629 50.8222 49.8321 51.3094 49.1915H51.312ZM69.5738 53.741H70.3648C70.8388 53.6603 71.2631 53.4311 71.5878 53.1082C72.0016 52.6967 72.2583 52.1264 72.2583 51.4988C72.2583 50.8712 72.0016 50.3008 71.5878 49.8894C71.174 49.4779 70.6004 49.2227 69.9693 49.2227C69.3355 49.2227 68.7645 49.4779 68.3507 49.8894C67.9369 50.3008 67.6803 50.8712 67.6803 51.4988C67.6803 52.129 67.9369 52.6967 68.3507 53.1082C68.6755 53.4311 69.0998 53.6576 69.5738 53.741ZM75.7258 58.2462C74.6154 58.1472 73.4604 58.3946 72.4364 59.0092L63.9324 64.1186C63.8433 63.6837 63.7019 63.2592 63.5107 62.8582C63.3536 62.5327 63.165 62.2228 62.945 61.9363C63.0917 60.0665 63.8826 58.3921 65.0716 57.1915C66.2319 56.0171 67.7744 55.293 69.4584 55.28C69.626 55.3009 69.7963 55.3139 69.9691 55.3139C70.142 55.3139 70.3122 55.3035 70.4798 55.28C71.7867 55.2905 73.0045 55.7254 74.0259 56.4675C74.6833 56.9467 75.2596 57.5483 75.7258 58.2462ZM46.6683 62.3634C46.6578 62.3634 46.6473 62.366 46.6342 62.366L45.8931 62.4129C44.8586 62.478 43.6565 61.9675 42.2711 61.3816C40.6499 60.6967 38.7459 59.8894 36.8577 59.9337C35.5587 59.9623 34.1654 60.2253 32.8559 60.7097C31.6459 61.155 30.5197 61.7879 29.6162 62.5925C29.2784 62.8946 28.917 63.1264 28.5241 63.2879C28.1339 63.4493 27.7149 63.5457 27.2618 63.5743L20.1201 64.0196L21.0263 78.3763L34.3335 77.5482C34.6242 77.5299 34.8887 77.5325 35.148 77.5534C35.4046 77.5742 35.6665 77.6211 35.9546 77.6888C36.4181 77.8008 36.8791 77.9128 37.3348 78.0247C41.863 79.1289 46.0661 80.1523 50.833 79.9831C55.1543 79.8294 57.4878 78.4153 60.8195 76.3945C61.2044 76.1602 61.6026 75.9206 62.1211 75.6107L63.8208 74.6003C68.3595 71.8997 72.7412 69.293 77.2299 66.3969C78.0706 65.8553 78.6101 65.0193 78.8065 64.1105C79.0004 63.199 78.8511 62.2173 78.3063 61.3813C77.7668 60.5557 76.9471 60.0349 76.0488 59.8448C75.1243 59.6495 74.116 59.8005 73.2412 60.3266L64.0252 65.863C63.9833 66.2563 63.9021 66.6443 63.779 67.0167C63.1897 68.7849 61.6917 70.2302 59.2246 70.3839L42.3298 71.436C41.9029 71.462 41.5363 71.1417 41.51 70.7172C41.4839 70.2928 41.806 69.9282 42.2329 69.9021L59.1276 68.85C60.8614 68.7433 61.9063 67.7485 62.3097 66.5323C62.4302 66.1729 62.4956 65.7927 62.5087 65.4125C62.5087 65.3969 62.5087 65.3786 62.5114 65.363C62.514 65.2432 62.5114 65.126 62.5035 65.0063C62.4721 64.4906 62.3437 63.9802 62.1211 63.5166C61.5685 62.3604 60.4057 61.5037 58.672 61.613L46.6742 62.3604L46.6683 62.3634ZM53.9749 53.7407H54.7658C55.2399 53.66 55.6641 53.4308 55.9889 53.1079C56.4027 52.6964 56.6593 52.1261 56.6593 51.4985C56.6593 50.8709 56.4027 50.3006 55.9889 49.8891C55.5751 49.4776 55.0015 49.2224 54.3703 49.2224C53.7366 49.2224 53.1656 49.4776 52.7518 49.8891C52.338 50.3006 52.0813 50.8709 52.0813 51.4985C52.0813 52.1287 52.338 52.6964 52.7518 53.1079C53.0766 53.4308 53.5009 53.6574 53.9749 53.7407ZM61.1508 60.514C60.4201 60.1859 59.5585 60.0219 58.5658 60.0818L47.5214 60.7692C47.8567 59.3213 48.5847 58.0453 49.5721 57.087C50.7218 55.9724 52.2199 55.2901 53.8567 55.2771C54.0243 55.2979 54.1946 55.3109 54.3674 55.3109C54.5403 55.3109 54.7105 55.3005 54.8781 55.2771C56.5621 55.2901 58.1047 56.0141 59.2649 57.1886C60.1422 58.0766 60.8049 59.2224 61.1479 60.5115L61.1508 60.514ZM38.3761 53.7407H39.167C39.6411 53.66 40.0653 53.4308 40.3901 53.1079C40.8039 52.6964 41.0605 52.1261 41.0605 51.4985C41.0605 50.8709 40.8039 50.3006 40.3901 49.8891C39.9763 49.4776 39.4027 49.2224 38.7715 49.2224C38.1378 49.2224 37.5668 49.4776 37.153 49.8891C36.7392 50.3006 36.4825 50.8709 36.4825 51.4985C36.4825 52.1287 36.7392 52.6964 37.153 53.1079C37.4778 53.4308 37.9021 53.6574 38.3761 53.7407ZM45.6412 60.8787C44.9707 60.8527 43.9912 60.4386 42.8729 59.9673C41.113 59.2225 39.0466 58.3475 36.8231 58.3995C35.3958 58.4334 33.8847 58.7068 32.4652 59.2121C32.9104 58.2693 33.539 57.4438 34.2959 56.798C35.3958 55.8578 36.7708 55.2928 38.2584 55.2798C38.426 55.3006 38.5962 55.3136 38.7691 55.3136C38.9419 55.3136 39.1122 55.3032 39.2798 55.2798C40.9166 55.2928 42.4173 55.9751 43.567 57.0896C44.5779 58.0714 45.319 59.3891 45.6412 60.8787Z" fill="#182F00"/>
</g>
<defs>
<clipPath id="clip0_4935_5686">
<rect width="59" height="64" fill="white" transform="translate(20 20)"/>
</clipPath>
</defs>
</svg>
