<svg width="210" height="225" viewBox="0 0 210 225" fill="none" xmlns="http://www.w3.org/2000/svg">
<path fill-rule="evenodd" clip-rule="evenodd" d="M109.13 224.999C74.2383 225.123 37.1305 217.258 16.26 189.257C-4.04095 162.02 -2.43556 121.331 5.47935 88.2813C13.2456 55.8518 28.9117 25.1418 58.9904 10.8287C88.9437 -3.42474 109.636 -3.79324 139.411 10.8287C168.829 25.275 193.914 51.5462 203.263 82.9931C213.309 116.788 214.105 153.98 191.783 181.25C169.783 208.129 143.834 224.874 109.13 224.999Z" fill="#B3D293"/>
<path d="M76.3803 171.98C76.0303 172.766 76.0303 173.64 76.3453 174.444C76.6603 175.247 77.2903 175.859 78.0778 176.191C79.6528 176.855 81.4553 176.174 82.2078 174.636L88.1228 162.439C85.9353 161.601 83.8178 160.605 81.7878 159.469L76.3803 171.98Z" fill="#182F00"/>
<path d="M108.737 105.632C107.652 105.335 106.532 105.16 105.36 105.16C98.5171 105.16 92.9521 110.717 92.9521 117.549C92.9521 124.381 98.5171 129.938 105.36 129.938C112.202 129.938 117.767 124.381 117.767 117.549C117.767 116.378 117.592 115.242 117.295 114.159L109.63 121.813C108.492 122.948 106.97 123.577 105.36 123.577C103.75 123.577 102.227 122.948 101.09 121.813C99.9521 120.677 99.3221 119.157 99.3221 117.549C99.3221 115.941 99.9521 114.421 101.09 113.285L108.755 105.632H108.737Z" fill="#182F00"/>
<path d="M128.915 159.469C126.868 160.622 124.75 161.601 122.58 162.439L128.495 174.636C129.23 176.174 131.05 176.855 132.625 176.191C133.413 175.859 134.043 175.23 134.358 174.444C134.673 173.64 134.673 172.766 134.323 171.98L128.915 159.469Z" fill="#182F00"/>
<path d="M120.006 94.3809C115.754 91.6899 110.731 90.1348 105.341 90.1348C90.2038 90.1348 77.8838 102.436 77.8838 117.551C77.8838 132.666 90.2038 144.967 105.341 144.967C120.479 144.967 132.799 132.666 132.799 117.551C132.799 112.169 131.241 107.154 128.546 102.908L120.426 111.016C121.301 113.025 121.774 115.227 121.774 117.534C121.774 126.585 114.406 133.941 105.341 133.941C96.2763 133.941 88.9088 126.585 88.9088 117.534C88.9088 108.482 96.2763 101.108 105.341 101.108C107.669 101.108 109.874 101.598 111.869 102.454L119.989 94.3459L120.006 94.3809Z" fill="#182F00"/>
<path d="M140.518 90.9894L131.471 100.006C134.866 105.021 136.843 111.067 136.843 117.549C136.843 134.883 122.721 149.002 105.343 149.002C87.9656 149.002 73.8431 134.901 73.8431 117.549C73.8431 100.198 87.9656 86.0968 105.343 86.0968C111.836 86.0968 117.891 88.0713 122.913 91.4612L131.943 82.4448C124.331 76.661 115.073 73.5332 105.326 73.5332C93.5481 73.5332 82.4706 78.1113 74.1406 86.4288C65.8106 94.7463 61.2256 105.807 61.2256 117.567C61.2256 129.327 65.8106 140.388 74.1406 148.688C76.4681 151.012 79.0231 153.056 81.7356 154.768C81.8406 154.821 81.9281 154.873 82.0156 154.943C84.9556 156.778 88.0706 158.246 91.3431 159.329C91.4481 159.346 91.5531 159.381 91.6581 159.434C96.0156 160.849 100.601 161.583 105.308 161.583C110.016 161.583 114.618 160.849 118.958 159.434C119.063 159.399 119.168 159.364 119.273 159.329C122.546 158.246 125.661 156.778 128.601 154.943C128.688 154.873 128.776 154.821 128.881 154.768C131.593 153.038 134.148 151.012 136.476 148.688C144.806 140.37 149.391 129.309 149.391 117.567C149.391 107.852 146.258 98.6079 140.466 90.9894H140.518Z" fill="#182F00"/>
<path d="M47.7502 109.162L31.1427 111.067C30.0402 111.189 29.2352 112.185 29.3752 113.303C29.4977 114.334 30.3727 115.086 31.3702 115.086C31.4402 115.086 31.5277 115.086 31.5977 115.086L48.2052 113.181C49.3077 113.059 50.1127 112.063 49.9727 110.944C49.8502 109.844 48.8527 109.04 47.7327 109.18L47.7502 109.162Z" fill="#182F00"/>
<path d="M53.0344 94.0269L37.8619 87.0025C36.8469 86.5307 35.6569 86.9675 35.1844 87.981C34.7119 88.9945 35.1494 90.1827 36.1644 90.6545L51.3369 97.6789C51.6169 97.8012 51.8969 97.8711 52.1769 97.8711C52.9294 97.8711 53.6644 97.4343 54.0144 96.7004C54.4869 95.6869 54.0494 94.4987 53.0344 94.0269Z" fill="#182F00"/>
<path d="M61.4701 78.2677L49.3951 66.7176C48.5901 65.9487 47.3126 65.9837 46.5426 66.7874C45.7726 67.5912 45.8076 68.8668 46.6126 69.6357L58.6876 81.1858C59.0726 81.5527 59.5801 81.7449 60.0876 81.7449C60.6126 81.7449 61.1551 81.5352 61.5401 81.1159C62.3101 80.3121 62.2751 79.0365 61.4701 78.2677Z" fill="#182F00"/>
<path d="M179.403 117.969L162.795 119.873C161.693 119.996 160.888 120.992 161.028 122.11C161.15 123.141 162.025 123.892 163.023 123.892C163.093 123.892 163.18 123.892 163.25 123.892L179.858 121.988C180.96 121.865 181.765 120.869 181.625 119.751C181.503 118.65 180.505 117.846 179.385 117.986L179.403 117.969Z" fill="#182F00"/>
<path d="M174.835 142.359L159.663 135.335C158.648 134.863 157.458 135.3 156.985 136.313C156.513 137.327 156.95 138.515 157.965 138.987L173.138 146.011C173.418 146.133 173.698 146.203 173.978 146.203C174.73 146.203 175.465 145.766 175.815 145.032C176.288 144.019 175.85 142.831 174.835 142.359Z" fill="#182F00"/>
<path d="M152.312 151.85C151.507 151.082 150.23 151.116 149.46 151.92C148.69 152.724 148.725 154 149.53 154.768L161.605 166.319C161.99 166.686 162.497 166.878 163.005 166.878C163.53 166.878 164.072 166.668 164.457 166.266C165.227 165.462 165.192 164.187 164.387 163.418L152.312 151.868V151.85Z" fill="#182F00"/>
<path d="M123.281 96.8074L115.458 104.618L112.571 107.501L103.926 116.133C103.138 116.92 103.138 118.195 103.926 118.981C104.311 119.383 104.836 119.576 105.343 119.576C105.851 119.576 106.376 119.383 106.761 118.981L115.406 110.349L118.293 107.466L126.116 99.6556L128.968 96.8074L137.893 87.8958L140.746 85.0476L144.543 81.2558L156.566 82.8983C156.653 82.8983 156.741 82.9158 156.846 82.9158C157.371 82.9158 157.896 82.7061 158.263 82.3217L170.111 70.492C170.671 69.9328 170.846 69.1116 170.583 68.3777C170.321 67.6438 169.638 67.137 168.868 67.0671L156.951 66.0537L155.918 54.1541C155.848 53.3678 155.341 52.7038 154.606 52.4417C153.871 52.1796 153.048 52.3543 152.488 52.9135L140.641 64.7431C140.186 65.18 139.976 65.809 140.063 66.4381L141.708 78.4425L137.911 82.2343L135.058 85.0825L126.133 93.9941L123.281 96.8423V96.8074Z" fill="#182F00"/>
</svg>
