<svg width="210" height="225" viewBox="0 0 210 225" fill="none" xmlns="http://www.w3.org/2000/svg">
<path fill-rule="evenodd" clip-rule="evenodd" d="M109.13 224.999C74.2383 225.123 37.1305 217.258 16.26 189.257C-4.04095 162.02 -2.43556 121.331 5.47935 88.2813C13.2456 55.8518 28.9117 25.1418 58.9904 10.8287C88.9437 -3.42474 109.636 -3.79324 139.411 10.8287C168.829 25.275 193.914 51.5462 203.263 82.9931C213.309 116.788 214.105 153.98 191.783 181.25C169.783 208.129 143.834 224.874 109.13 224.999Z" fill="#B3D293"/>
<g clip-path="url(#clip0_3432_5684)">
<path d="M138.531 113.683C138.531 95.3966 123.743 80.5723 105.5 80.5723C87.2573 80.5723 72.4688 95.3966 72.4688 113.683C72.4688 131.97 87.2573 146.794 105.5 146.794C123.743 146.794 138.531 131.97 138.531 113.683ZM96.0625 130.102V124.726C96.0625 123.406 95.4915 122.162 94.4935 121.311C90.1782 117.621 87.9297 111.999 88.4771 106.278C89.2557 98.1685 95.5953 91.6314 103.554 90.735C108.437 90.1816 113.144 91.6858 116.806 94.9638C120.491 98.2654 122.605 103.024 122.605 108.017C122.605 113.168 120.369 118.026 116.471 121.341C115.511 122.157 114.938 123.517 114.938 124.981V130.106C114.938 133.768 112.026 136.745 108.449 136.745H102.551C98.9716 136.745 96.0625 133.765 96.0625 130.102Z" fill="#182F00"/>
<path d="M111.398 130.104V127.264L99.6016 127.061V130.104C99.6016 131.81 100.925 133.198 102.551 133.198H108.449C110.075 133.198 111.398 131.81 111.398 130.104Z" fill="#182F00"/>
<path d="M103.73 116.784L97.1709 110.209L99.6742 107.7L105.502 113.542L111.329 107.7L113.833 110.209L107.274 116.784V123.643L111.53 123.716C111.811 121.697 112.719 119.885 114.184 118.636C117.289 115.994 119.071 112.123 119.071 108.015C119.071 104.032 117.388 100.238 114.451 97.6083C111.945 95.3639 108.819 94.1719 105.516 94.1719C104.999 94.1719 104.478 94.2003 103.952 94.2594C97.6474 94.9689 92.622 100.167 92.0038 106.617C91.565 111.189 93.3557 115.673 96.7934 118.61C98.2656 119.871 99.1834 121.614 99.4712 123.506L103.732 123.579V116.78L103.73 116.784Z" fill="#182F00"/>
<path d="M45.8823 105.776C57.2686 91.6705 79.7393 68.7458 105.499 68.7458C125.339 68.7458 143.299 82.6477 154.869 94.3123C155.69 95.1401 158.436 98.0373 159.003 98.6546L162.483 95.4594C161.9 94.8184 159.064 91.8313 158.214 90.9752C146.012 78.6768 126.96 64.0156 105.499 64.0156C77.7716 64.0156 54.1118 88.059 42.1946 102.827L36.8813 98.5789L35.4326 115.572L51.6368 110.378L45.8823 105.778V105.776Z" fill="#182F00"/>
<path d="M107.859 40.3652H103.141V54.5557H107.859V40.3652Z" fill="#182F00"/>
<path d="M140.364 48.4139L131.919 59.8027L135.706 62.6246L144.151 51.2357L140.364 48.4139Z" fill="#182F00"/>
<path d="M168.868 124.568L174.443 129.026L175.891 112.033L159.687 117.227L165.18 121.619C153.786 135.727 131.33 158.618 105.589 158.618C85.7515 158.618 67.7895 144.716 56.2192 133.054C55.3981 132.224 52.6518 129.329 52.0855 128.709L48.6055 131.905C49.1882 132.546 52.0218 135.533 52.8712 136.389C65.0763 148.69 84.1282 163.348 105.589 163.348C133.298 163.348 156.943 139.338 168.868 124.568Z" fill="#182F00"/>
<path d="M70.6382 48.4133L66.8506 51.2344L75.2935 62.6248L79.0811 59.8037L70.6382 48.4133Z" fill="#182F00"/>
<path d="M107.859 172.377H103.141V186.567H107.859V172.377Z" fill="#182F00"/>
<path d="M135.709 164.303L131.921 167.123L140.361 178.515L144.15 175.695L135.709 164.303Z" fill="#182F00"/>
<path d="M75.2945 164.302L66.8506 175.691L70.638 178.513L79.0819 167.123L75.2945 164.302Z" fill="#182F00"/>
</g>
<defs>
<clipPath id="clip0_3432_5684">
<rect width="151" height="149" fill="white" transform="translate(30 38)"/>
</clipPath>
</defs>
</svg>
