<svg width="455" height="494" viewBox="0 0 455 494" fill="none" xmlns="http://www.w3.org/2000/svg">
<path fill-rule="evenodd" clip-rule="evenodd" d="M270.61 484.499C235.885 484.623 198.954 476.792 178.183 448.916C157.978 421.8 159.576 381.292 167.453 348.389C175.183 316.104 190.774 285.53 220.709 271.281C250.52 257.09 271.114 256.724 300.748 271.281C330.025 285.663 354.99 311.817 364.295 343.124C374.294 376.769 375.085 413.796 352.87 440.945C330.974 467.704 305.15 484.375 270.61 484.499Z" fill="#B3D293"/>
<g clip-path="url(#clip0_3315_7930)">
<path fill-rule="evenodd" clip-rule="evenodd" d="M278.328 289.347C277.324 288.639 276.223 288.047 275.067 287.594C273.911 287.14 272.714 286.817 271.503 286.651C270.292 286.48 269.054 286.452 267.808 286.576C266.604 286.693 265.393 286.961 264.196 287.38C262.201 288.075 260.446 289.134 258.974 290.454C257.439 291.83 256.201 293.487 255.327 295.309C254.447 297.138 253.924 299.139 253.814 301.202C253.703 303.19 253.972 305.225 254.674 307.213C256.724 313.065 268.131 320.808 276.388 326.412L276.395 326.405C276.45 326.446 276.512 326.487 276.56 326.529L279.105 328.255C279.511 328.537 279.91 328.812 280.303 329.08C281.431 328.296 282.759 327.395 284.176 326.432L284.204 326.419C288.408 323.565 293.416 320.161 297.641 316.688C301.666 313.374 304.941 310.046 305.939 307.206V307.199C306.64 305.211 306.909 303.176 306.799 301.195C306.682 299.132 306.159 297.131 305.285 295.302C304.404 293.48 303.173 291.822 301.638 290.447C300.159 289.127 298.405 288.068 296.416 287.373C295.219 286.954 294.008 286.686 292.804 286.569C291.566 286.445 290.327 286.472 289.109 286.644C287.871 286.816 286.667 287.132 285.532 287.586C284.389 288.04 283.289 288.632 282.263 289.361C281.665 289.78 280.977 289.979 280.289 289.973C279.594 289.966 278.92 289.752 278.348 289.347L278.328 289.347ZM299.746 354.887H301.824C303.07 354.674 304.184 354.069 305.037 353.216C306.124 352.13 306.799 350.624 306.799 348.967C306.799 347.302 306.124 345.803 305.037 344.717C303.95 343.63 302.443 342.956 300.785 342.956C299.127 342.956 297.62 343.63 296.533 344.717C295.446 345.803 294.772 347.309 294.772 348.967C294.772 350.631 295.446 352.13 296.533 353.216C297.386 354.069 298.501 354.667 299.746 354.887ZM313.239 363.586C311.904 362.307 310.39 361.255 308.753 360.478C306.716 359.509 304.48 358.965 302.127 358.952C301.687 359.007 301.239 359.041 300.785 359.041C300.331 359.041 299.877 359.013 299.444 358.952C297.091 358.972 294.854 359.515 292.818 360.478C291.18 361.255 289.667 362.314 288.332 363.586C289.619 365.278 290.375 367.382 290.375 369.672C290.375 372.34 289.337 374.775 287.637 376.576C290.809 377.622 293.678 379.451 296.052 381.864C298.006 383.852 299.616 386.231 300.785 388.885C301.955 386.231 303.565 383.852 305.519 381.871C307.893 379.458 310.762 377.628 313.934 376.583C312.234 374.782 311.195 372.354 311.195 369.679C311.195 367.389 311.959 365.285 313.239 363.593L313.239 363.586ZM258.767 354.887H260.845C262.09 354.674 263.205 354.069 264.058 353.216C265.145 352.13 265.819 350.624 265.819 348.967C265.819 347.302 265.145 345.803 264.058 344.717C262.971 343.63 261.464 342.956 259.806 342.956C258.148 342.956 256.641 343.63 255.554 344.717C254.466 345.803 253.792 347.309 253.792 348.967C253.792 350.631 254.466 352.13 255.554 353.216C256.407 354.069 257.522 354.667 258.767 354.887ZM272.259 363.586C270.924 362.307 269.411 361.255 267.773 360.478C265.737 359.509 263.5 358.965 261.147 358.952C260.707 359.007 260.26 359.041 259.806 359.041C259.352 359.041 258.898 359.013 258.464 358.952C256.111 358.972 253.875 359.515 251.838 360.478C250.201 361.255 248.687 362.314 247.352 363.586C248.639 365.278 249.396 367.382 249.396 369.672C249.396 372.34 248.357 374.775 246.658 376.576C249.685 377.573 252.437 379.286 254.742 381.534C256.84 383.584 258.574 386.08 259.799 388.885C261.03 386.08 262.764 383.584 264.863 381.534C267.168 379.286 269.92 377.573 272.947 376.576C271.248 374.775 270.209 372.347 270.209 369.672C270.209 367.382 270.972 365.278 272.252 363.586H272.259ZM320.235 375.6H322.313C323.558 375.387 324.673 374.781 325.526 373.929C326.613 372.842 327.288 371.336 327.288 369.679C327.288 368.022 326.613 366.516 325.526 365.429C324.439 364.343 322.932 363.669 321.274 363.669C319.609 363.669 318.109 364.343 317.022 365.429C315.935 366.516 315.261 368.022 315.261 369.679C315.261 371.343 315.935 372.842 317.022 373.929C317.875 374.781 318.99 375.38 320.235 375.6ZM336.397 387.496C333.48 387.235 330.446 387.888 327.756 389.511L305.414 403.003C305.181 401.855 304.809 400.734 304.307 399.675C303.894 398.815 303.398 397.997 302.821 397.241C303.206 392.303 305.284 387.882 308.407 384.711C311.455 381.61 315.508 379.698 319.932 379.664C320.372 379.719 320.82 379.753 321.274 379.753C321.728 379.753 322.175 379.726 322.615 379.664C326.049 379.691 329.248 380.84 331.931 382.8C333.658 384.065 335.172 385.653 336.397 387.496ZM260.06 398.368C260.032 398.368 260.005 398.375 259.97 398.375L258.023 398.499C255.305 398.671 252.147 397.323 248.508 395.776C244.249 393.967 239.247 391.835 234.286 391.952C230.873 392.028 227.213 392.723 223.773 394.002C220.594 395.178 217.635 396.849 215.262 398.973C214.374 399.771 213.425 400.383 212.393 400.81C211.368 401.236 210.267 401.49 209.076 401.566L190.314 402.742L192.695 440.652L227.655 438.466C228.418 438.417 229.113 438.424 229.794 438.479C230.469 438.534 231.157 438.658 231.913 438.837C233.131 439.133 234.342 439.428 235.539 439.724C247.435 442.64 258.478 445.342 271.001 444.895C282.353 444.49 288.484 440.755 297.236 435.419C298.248 434.8 299.294 434.168 300.656 433.349L305.121 430.681C317.045 423.55 328.556 416.667 340.349 409.019C342.557 407.589 343.975 405.382 344.491 402.982C345 400.575 344.608 397.982 343.177 395.775C341.759 393.595 339.606 392.22 337.246 391.718C334.817 391.202 332.168 391.601 329.87 392.99L305.658 407.61C305.548 408.648 305.335 409.673 305.011 410.656C303.463 415.325 299.528 419.142 293.047 419.548L248.662 422.326C247.54 422.394 246.577 421.549 246.508 420.428C246.44 419.307 247.286 418.344 248.407 418.275L292.792 415.497C297.347 415.215 300.092 412.588 301.151 409.377C301.468 408.428 301.64 407.424 301.674 406.42C301.674 406.379 301.674 406.33 301.681 406.289C301.688 405.973 301.681 405.663 301.661 405.347C301.578 403.986 301.241 402.638 300.656 401.414C299.204 398.36 296.149 396.098 291.595 396.387L260.075 398.36L260.06 398.368ZM279.255 375.599H281.333C282.578 375.386 283.693 374.781 284.546 373.928C285.633 372.842 286.307 371.335 286.307 369.678C286.307 368.021 285.633 366.515 284.546 365.428C283.459 364.342 281.952 363.668 280.294 363.668C278.629 363.668 277.129 364.342 276.042 365.428C274.955 366.515 274.28 368.021 274.28 369.678C274.28 371.342 274.955 372.842 276.042 373.928C276.895 374.781 278.01 375.379 279.255 375.599ZM298.107 393.485C296.187 392.618 293.924 392.185 291.316 392.343L262.301 394.159C263.182 390.335 265.094 386.966 267.688 384.435C270.709 381.492 274.644 379.69 278.944 379.656C279.385 379.711 279.832 379.745 280.286 379.745C280.74 379.745 281.187 379.718 281.628 379.656C286.052 379.69 290.104 381.602 293.152 384.704C295.457 387.048 297.198 390.074 298.099 393.478L298.107 393.485ZM238.275 375.599H240.353C241.598 375.386 242.713 374.781 243.566 373.928C244.653 372.842 245.327 371.335 245.327 369.678C245.327 368.021 244.653 366.515 243.566 365.428C242.479 364.342 240.972 363.668 239.314 363.668C237.649 363.668 236.149 364.342 235.062 365.428C233.975 366.515 233.301 368.021 233.301 369.678C233.301 371.342 233.975 372.842 235.062 373.928C235.915 374.781 237.03 375.379 238.275 375.599ZM257.361 394.448C255.6 394.379 253.027 393.286 250.089 392.041C245.465 390.074 240.037 387.764 234.195 387.901C230.446 387.991 226.476 388.713 222.746 390.047C223.916 387.557 225.567 385.378 227.556 383.672C230.446 381.19 234.058 379.698 237.966 379.663C238.406 379.718 238.853 379.753 239.307 379.753C239.762 379.753 240.209 379.725 240.649 379.663C244.949 379.698 248.892 381.499 251.912 384.442C254.568 387.035 256.515 390.514 257.361 394.448Z" fill="#182F00"/>
</g>
<path fill-rule="evenodd" clip-rule="evenodd" d="M119.13 276.499C84.2383 276.623 47.1305 268.758 26.26 240.757C5.95905 213.52 7.56444 172.831 15.4794 139.781C23.2456 107.352 38.9117 76.6418 68.9904 62.3287C98.9437 48.0753 119.636 47.7068 149.411 62.3287C178.829 76.775 203.914 103.046 213.263 134.493C223.309 168.288 224.105 205.48 201.783 232.75C179.783 259.629 153.834 276.374 119.13 276.499Z" fill="#B3D293"/>
<path d="M126.76 177.331C126.016 177.55 122.9 177.986 122.379 177.84C121.86 177.694 121.193 176.387 120.819 176.096C120.449 175.805 119.336 174.57 119.336 174.57C119.336 174.57 119.039 175.079 119.187 175.369C119.335 175.66 119.408 177.404 119.408 177.404C119.408 177.404 118.74 177.476 118.37 177.258C117.998 177.042 116.067 175.587 116.067 175.587C116.067 175.587 115.102 177.042 114.881 177.115C114.657 177.187 113.914 177.042 113.617 176.897C113.321 176.751 113.245 176.241 113.395 176.024C113.544 175.807 113.617 174.646 113.321 174.571C113.024 174.5 111.539 173.409 111.539 173.409C111.539 173.409 110.648 173.409 110.055 173.409C109.46 173.409 109.46 172.972 108.793 173.409C108.125 173.846 106.976 174.862 106.698 175.301C106.418 175.736 105.292 176.825 105.26 177.188C105.229 177.553 103.221 178.94 103.968 178.714C103.968 178.714 108.495 177.334 108.719 177.334C108.943 177.334 111.986 177.48 112.358 177.697C112.728 177.916 112.579 178.205 112.728 178.715C112.878 179.226 113.619 179.588 114.436 180.458C115.251 181.331 116.068 181.126 116.292 181.445C116.513 181.766 117.181 181.766 117.181 181.766C117.181 181.766 117.257 179.658 117.627 179.949C117.999 180.24 120.3 180.821 121.711 181.038C123.121 181.258 124.978 181.038 125.348 180.385C125.72 179.73 126.758 178.423 126.758 178.204C126.76 177.986 127.503 177.115 126.76 177.331Z" fill="#182F00"/>
<path d="M123.272 173.215C123.867 173.116 124.385 173.455 124.682 173.215C124.98 172.97 126.603 173.553 127.092 173.553C127.578 173.553 128.839 172.97 128.618 172.534C128.395 172.099 127.429 171.008 127.429 171.008C127.429 171.008 125.822 169.921 125.959 169.701C126.095 169.482 125.723 168.829 125.501 169.263C125.278 169.701 125.65 170.862 125.427 171.334C125.203 171.808 123.868 171.334 123.868 171.334C123.868 171.334 121.789 170.788 121.565 171.334C121.342 171.88 122.086 173.552 122.086 173.552L123.272 173.215Z" fill="#182F00"/>
<path d="M129.508 187.214C129.359 186.924 128.321 185.109 128.097 184.671C127.876 184.234 127.093 183.218 127.093 183.218C127.093 183.218 126.167 182.854 126.167 183.218C126.167 183.582 126.167 184.671 126.167 184.671C126.984 186.269 127.874 187.795 128.097 188.231C128.321 188.667 129.807 190.991 129.88 191.209C129.953 191.428 131.217 192.953 131.514 192.589C131.81 192.226 131.735 190.99 131.514 190.627C131.29 190.266 129.656 187.506 129.508 187.214Z" fill="#182F00"/>
<path d="M39.2214 173.023C41.1368 164.507 45.0381 156.711 50.4197 150.122C49.9258 149.487 49.4376 148.845 48.9221 148.23C43.0638 155.264 38.8452 163.652 36.835 172.831C37.629 172.916 38.4245 172.992 39.2214 173.023Z" fill="#182F00"/>
<path d="M151.424 174.216C152.199 174.057 152.976 173.898 153.747 173.729C151.992 165.043 148.267 157.046 143.045 150.199C142.436 150.702 141.805 151.174 141.148 151.609C146.164 158.185 149.742 165.871 151.424 174.216Z" fill="#182F00"/>
<path d="M151.925 177.077C152.31 179.692 152.508 182.363 152.508 185.081C152.508 187.98 152.281 190.832 151.846 193.613C151.773 193.419 151.723 193.282 151.704 193.216C151.506 192.54 151.209 191.957 150.716 190.794C150.219 189.633 149.825 188.953 149.23 188.18C148.637 187.405 148.34 186.921 145.964 185.468C143.59 184.014 143.689 184.499 143.392 184.401C143.095 184.305 140.52 183.627 138.046 183.045C135.571 182.463 135.472 182.172 135.174 182.172C134.879 182.172 135.077 182.657 135.274 183.142C135.472 183.627 136.56 184.498 136.956 184.787C137.353 185.08 138.441 185.08 138.837 184.983C139.234 184.886 140.124 184.983 140.124 184.983L141.904 187.113C141.904 187.113 140.917 188.18 140.519 189.34C140.124 190.504 138.738 190.989 138.045 191.281C137.353 191.572 133.987 193.412 133.095 193.799C132.204 194.186 132.998 194.669 132.998 194.669L137.155 194.186C137.155 194.186 136.659 195.541 135.671 197.48C134.682 199.416 133.394 200.288 133.394 200.288C133.394 200.288 130.919 203.386 130.522 203.873C130.127 204.356 130.028 207.457 129.731 208.814C129.434 210.17 130.028 211.139 129.731 211.623C129.434 212.108 127.256 214.047 127.256 214.047L126.663 215.886C126.663 215.886 126.564 216.953 126.268 217.243C125.971 217.533 124.881 219.47 124.484 219.955C124.09 220.441 121.713 222.959 121.021 223.443C120.329 223.926 117.953 224.411 117.953 224.411C117.953 224.411 116.764 223.25 116.567 222.668C116.367 222.087 115.378 219.374 115.378 218.891C115.378 218.405 114.191 215.015 114.191 215.015L113.796 212.882V212.302C113.796 212.302 114.486 210.945 114.686 209.88C114.886 208.814 114.983 207.361 114.686 207.168C114.389 206.973 113.895 205.714 112.804 204.454C111.715 203.195 112.012 202.226 112.113 201.16C112.212 200.094 110.926 199.901 110.628 199.601C110.331 199.298 108.945 198.835 108.648 198.739C108.351 198.644 106.571 199.322 106.074 199.515C105.58 199.707 103.502 199.515 103.005 199.515C102.511 199.515 100.928 198.933 100.594 198.739C100.261 198.545 98.3517 196.995 98.3517 196.995C98.3517 196.995 96.4721 193.604 96.274 193.121C96.0772 192.634 96.274 189.974 96.274 189.974L97.0666 187.504C97.0666 187.504 98.7508 184.695 98.8485 184.402C98.9461 184.111 101.322 181.011 102.016 180.141C102.707 179.269 101.818 177.816 101.249 177.331C100.679 176.847 100.729 176.654 100.531 175.975C100.333 175.299 100.926 174.522 101.249 173.455C101.569 172.389 103.195 172.779 103.195 172.779L104.948 172.197C104.948 172.197 105.382 170.647 103.798 169.678C103.798 169.678 104.984 169.05 105.264 168.951C105.542 168.856 106.718 168.081 107.113 167.498C107.508 166.919 107.708 165.902 107.857 165.805C108.005 165.708 109.142 164.546 109.439 164.11C109.738 163.671 110.429 161.687 110.429 161.687C110.429 161.687 111.073 162.22 111.173 162.462C111.27 162.705 112.064 163.43 112.064 163.43C112.064 163.43 113.4 163.43 113.945 163.188C114.488 162.945 116.221 162.608 116.616 162.22C117.012 161.833 117.162 160.816 117.162 160.816C117.162 160.816 117.854 159.845 117.805 159.46C117.755 159.073 118.497 158.635 119.389 158.587C120.28 158.539 120.28 158.539 120.527 158.248C120.774 157.958 119.835 158.199 118.003 157.377C116.172 156.554 116.814 157.377 116.616 157.231C116.419 157.086 116.616 153.985 116.715 153.794C116.814 153.598 117.061 152.776 116.764 152.484C116.469 152.196 115.825 153.018 115.578 153.452C115.329 153.889 114.537 156.505 114.389 156.991C114.241 157.474 114.933 158.25 115.032 158.589C115.131 158.927 114.537 160.573 114.29 161.059C114.043 161.545 112.953 161.978 112.804 162.026C112.656 162.075 112.063 161.01 112.012 160.767C111.964 160.525 111.221 159.315 111.073 159.266C110.924 159.218 110.479 159.703 110.182 159.992C109.886 160.283 109.192 159.945 108.996 159.992C108.796 160.042 108.054 157.183 108.054 157.183C108.054 157.183 109.043 156.409 109.837 155.924C110.628 155.441 110.826 154.472 111.122 153.794C111.421 153.116 112.311 149.917 113.4 148.562C114.488 147.203 116.072 147.01 116.866 146.721C117.657 146.429 118.448 146.623 118.448 146.623C118.448 146.623 119.242 147.591 120.428 147.98C121.617 148.366 122.311 148.27 122.803 148.756C123.3 149.238 125.179 150.597 125.179 150.597L124.783 148.463L126.666 149.045C126.666 149.045 129.635 147.592 129.931 147.592C130.228 147.592 130.603 146.722 130.603 146.722C130.603 146.722 127.754 146.236 127.356 146.236C126.963 146.236 125.772 142.75 125.673 141.2C125.576 139.648 126.763 138.476 126.763 138.476C126.763 138.476 127.455 141.587 127.455 141.877C127.455 142.168 127.455 142.845 127.655 143.428C127.852 144.009 131.118 145.562 131.614 145.753C132.109 145.948 132.703 145.171 132.703 145.171L132.207 143.428L132.478 142.519C134.955 144.599 137.242 146.884 139.327 149.343C139.986 148.915 140.616 148.435 141.222 147.928C130.264 134.949 113.701 126.666 95.1971 126.666C77.5991 126.666 61.76 134.158 50.8259 146.053C51.3442 146.653 51.8367 147.276 52.335 147.896C53.9044 146.166 55.58 144.527 57.3548 142.997L57.7697 143.91L59.1553 144.685C59.1553 144.685 60.1648 143.619 60.205 143.136C60.2452 142.651 60.6415 141.101 60.6415 141.101C60.6415 141.101 60.6975 140.736 60.7204 140.306C61.9754 139.378 63.272 138.5 64.603 137.674C64.7481 137.862 64.8543 138.012 64.8974 138.099C65.0955 138.487 64.6992 138.778 64.402 138.841C64.1048 138.903 65.5909 139.843 65.5909 139.843C65.5909 139.843 67.1732 139.165 67.5681 138.877C67.9658 138.586 67.1732 140.231 66.876 140.619C66.5802 141.006 65.1946 143.137 65.0955 143.427C64.9979 143.719 64.7983 145.077 64.7983 145.077L63.4127 145.657C63.4127 145.657 62.2267 145.462 61.7299 145.751C61.233 146.044 62.521 146.915 62.8182 147.11C63.1169 147.305 63.9095 147.11 63.9095 147.11C63.9095 147.11 65.69 145.559 65.8867 145.269C66.0863 144.978 67.5695 143.425 67.9673 142.945C68.3621 142.457 69.4505 140.717 69.6501 140.039C69.8468 139.36 71.5297 140.039 71.5297 140.039C71.5297 140.039 72.9181 140.039 73.2139 140.039C73.5097 140.039 71.6302 141.298 71.3329 141.393C71.0357 141.492 69.9473 142.847 69.9473 142.847C69.9473 142.847 68.7584 145.366 68.7584 145.657C68.7584 145.947 68.7584 147.401 68.7584 147.401L69.4505 147.206L70.8361 145.656L70.9338 144.784C70.9338 144.784 71.4306 143.331 71.6287 143.04C71.8254 142.75 73.3116 141.296 73.9046 141.006C74.4976 140.717 75.5874 141.006 75.5874 141.006C75.5874 141.006 76.6772 141.2 77.0721 141.683C77.467 142.166 77.0721 142.457 77.0721 142.457C77.0721 142.457 77.1697 144.106 77.467 144.3C77.7642 144.494 78.3586 147.012 78.3586 147.012L77.6665 148.271L78.7549 150.791L78.4577 152.05L76.9716 152.535C76.9716 152.535 76.2824 151.953 76.0828 152.339C75.8832 152.727 76.0828 153.309 76.1804 153.598C76.2809 153.889 75.5874 154.858 75.1911 155.342C74.7962 155.827 73.7079 155.245 73.7079 155.245C73.7079 155.245 72.1227 153.986 71.8254 153.598C71.5282 153.211 71.1334 153.018 71.1334 153.018L71.6302 152.05C71.6302 152.05 72.7185 151.371 73.0158 151.178C73.313 150.986 74.2018 148.563 74.1042 148.272C74.0051 147.981 73.906 146.237 73.7093 145.948C73.5097 145.657 72.8176 146.141 72.3237 146.627C71.8269 147.11 71.2353 149.628 71.2353 149.919C71.2353 150.21 69.1547 150.888 69.1547 150.888L68.3636 151.565C68.3636 151.565 69.1547 152.533 69.1547 152.824C69.1547 153.115 67.6715 153.211 67.3742 153.211C67.077 153.211 66.8774 152.533 66.8774 152.533V150.886C66.8774 150.886 63.3165 153.501 62.8197 153.791C62.3257 154.083 61.3364 155.244 60.6429 155.924C59.9508 156.601 59.9508 158.055 59.8503 158.539C59.7512 159.023 60.5424 159.509 61.5331 160.767C62.521 162.026 62.8197 162.124 63.216 162.899C63.6123 163.674 62.8197 165.418 62.9202 165.708C63.0178 165.999 64.3058 163.771 64.3058 163.771C64.3058 163.771 65.7891 162.124 65.9886 161.738C66.1868 161.351 67.571 159.992 67.571 159.992L67.077 158.345C67.077 158.345 68.0663 158.152 68.2645 157.571C68.4626 156.989 68.7599 155.538 69.0571 155.342C69.3543 155.15 70.6423 155.342 70.6423 155.342C70.6423 155.342 71.6316 155.924 71.9274 156.216C72.226 156.505 72.3251 157.279 72.0279 157.862C71.7307 158.444 72.8191 159.121 72.8191 159.121C72.8191 159.121 74.5019 157.571 74.7991 157.379C75.0963 157.186 74.9987 158.638 74.9987 159.121C74.9987 159.605 75.1954 161.735 75.1954 161.735L76.0871 164.255L76.2867 166.041C76.2867 166.041 77.2746 168.614 77.2746 168.903C77.2746 169.196 76.0871 170.356 75.7899 170.326C75.4926 170.292 74.8006 169.97 74.2047 169.584C73.6088 169.197 73.8098 168.517 73.8098 168.517C73.8098 168.517 75.2931 166.385 75.0963 166.094C74.8968 165.805 73.2154 166.772 72.8191 166.869C72.4242 166.967 70.5432 167.258 70.1469 167.356C69.752 167.45 69.9502 168.226 69.9502 168.226L70.4441 169.099L72.0293 170.326C72.0293 170.326 71.1377 171.714 70.8404 171.614C70.5446 171.519 68.6637 172.197 68.6637 172.197C68.6637 172.197 66.9808 172.49 66.5845 172.779C66.1897 173.069 65.0998 174.425 65.0998 174.425C65.0998 174.425 64.0114 174.911 62.9231 176.267C61.8332 177.625 61.0406 180.045 60.6458 180.723C60.2509 181.402 59.7541 181.208 59.4569 181.402C59.1597 181.596 58.7648 183.725 58.7648 183.725C58.7648 183.725 59.1597 186.34 59.1597 186.631C59.1597 186.923 58.0713 186.923 57.9736 186.631C57.8746 186.34 57.082 185.372 56.4875 184.695C55.8945 184.016 55.6963 183.725 54.8047 183.242C53.9159 182.757 53.7163 183.437 53.1218 183.919C52.5288 184.402 50.6478 184.014 50.1539 184.014C49.66 184.014 48.372 185.371 48.1738 185.857C47.9757 186.34 47.878 189.052 47.878 189.634C47.878 190.216 48.0748 190.507 48.6692 191.283C49.2637 192.057 50.2544 192.251 50.2544 192.251C50.2544 192.251 52.2345 190.119 52.4326 189.828C52.6308 189.537 54.0164 190.99 54.0164 190.99V191.765C54.0164 191.765 53.1247 193.218 53.5224 193.51C53.9173 193.799 56.3913 194.088 56.3913 194.088L56.6885 195.928C56.6885 195.928 56.8881 196.607 57.283 196.898C57.6778 197.189 58.2723 197.286 58.8667 197.575C59.4597 197.866 60.6486 198.156 60.6486 198.156L61.9352 197.575C61.9352 197.575 62.9245 196.703 63.3208 196.509C63.7157 196.316 64.804 196.703 65.1013 196.703C65.3985 196.703 66.586 196.8 67.179 197.092C67.7734 197.38 68.3679 197.479 68.8618 197.479C69.3586 197.479 70.6452 197.188 70.6452 197.188C70.6452 197.188 70.6452 197.188 70.7428 197.479C70.8404 197.767 70.8404 197.962 71.1377 198.254C71.4349 198.544 73.1177 199.705 73.5126 199.995C73.9089 200.286 74.107 200.385 75.1954 200.674C76.2867 200.964 75.9895 201.059 76.3843 201.352C76.7792 201.642 76.8783 201.836 77.1755 202.708C77.1755 202.708 80.343 204.55 81.0365 204.841C81.7286 205.13 82.3231 205.324 83.0152 205.42C83.7072 205.517 84.4022 205.712 84.6003 205.834C84.7985 205.958 87.4706 208.036 87.4706 208.036C87.4706 208.036 86.579 210.459 86.1841 210.749C85.7892 211.038 86.3823 211.33 86.1841 212.299C85.986 213.268 85.7893 217.338 85.7893 217.338C85.7893 217.338 84.8976 217.626 84.5027 217.725C84.1078 217.819 83.018 218.885 82.7222 219.176C82.425 219.466 82.1278 221.114 82.1278 221.114L81.7329 223.537C81.7329 223.537 81.4357 225.279 81.1385 225.764C80.8413 226.249 80.3459 228.282 80.3459 228.282C80.3459 228.282 79.5533 231.672 79.5533 231.964C79.5533 232.254 79.2561 233.417 79.1584 233.707C79.0593 233.998 79.4556 234.869 79.4556 234.869L80.7422 235.74C80.7422 235.74 80.7422 237.292 80.7422 237.583C80.7422 237.871 82.1034 238.922 82.1249 239.695C81.3338 239.512 80.5483 239.314 79.7715 239.1C79.6064 239.034 79.4571 238.98 79.3566 238.939C78.8598 238.746 78.1677 237.68 78.1677 237.68L76.9788 236.227L75.7927 234.093C75.7927 234.093 74.8034 232.64 74.6067 232.158C74.4071 231.671 73.8127 230.413 73.4178 229.639C73.023 228.864 72.5261 227.505 72.0322 225.278C71.5354 223.051 70.3494 221.21 69.9545 219.852C69.5582 218.497 68.9652 216.949 67.7749 215.397C66.5874 213.846 65.9944 213.944 65.1027 213.556C64.211 213.169 62.9259 211.329 62.9259 211.329C62.9259 211.329 61.1426 209.682 60.4491 208.809C59.7555 207.937 59.856 207.356 59.856 207.356C59.856 207.356 59.757 205.418 59.4597 204.936C59.1625 204.45 59.5603 203.773 59.5603 203.773L61.0435 200.867C61.0435 200.867 60.0542 199.414 59.9551 198.929C59.856 198.444 59.3607 199.315 59.3607 199.315C59.3607 199.315 58.5695 199.511 58.2723 199.315C57.9751 199.121 55.995 198.251 55.0057 197.283C54.0164 196.315 52.3335 195.636 49.4632 194.471C46.5929 193.31 46.1981 193.405 46.1981 193.405C46.1981 193.405 43.9208 192.244 43.6236 192.147C43.3263 192.05 43.0306 190.694 43.0306 190.694C43.0306 190.694 42.4361 189.048 42.1403 188.468C41.8431 187.892 40.2579 185.366 39.9607 184.88C39.6649 184.397 38.9714 184.009 38.9714 184.009C38.9714 184.009 38.8737 184.397 39.1709 184.977C39.4682 185.559 39.863 186.624 39.863 186.624C39.863 186.624 40.7533 188.562 40.6542 188.465C40.5566 188.369 39.863 188.465 39.863 188.465C39.863 188.465 38.9714 187.4 38.6741 186.915C38.5234 186.668 38.1888 186.062 37.8988 185.425C37.8973 185.309 37.8945 185.192 37.8945 185.075C37.8945 181.949 38.1615 178.882 38.6655 175.893C37.8744 175.843 37.0846 175.757 36.2949 175.674C35.7866 178.736 35.5195 181.876 35.5195 185.075C35.5195 217.286 62.2927 243.491 95.2057 243.491C128.117 243.491 154.892 217.286 154.892 185.075C154.892 182.193 154.676 179.36 154.263 176.589C153.479 176.76 152.702 176.914 151.925 177.077ZM111.419 135.677C111.715 135.384 114.205 134.224 114.205 134.224C114.205 134.224 114.387 135.29 114.205 135.677C114.023 136.062 114.09 137.033 114.189 137.322C114.288 137.615 113.893 138.777 113.596 138.397C113.299 138.018 112.802 138.196 112.506 138.397C112.211 138.597 111.22 140.148 111.22 140.148C111.22 140.148 110.723 138.777 109.834 136.645C109.836 136.644 111.121 135.968 111.419 135.677ZM60.205 191.281L58.5623 190.505C58.5623 190.505 56.4818 189.73 56.186 189.73V188.665H57.5716C57.5716 188.665 59.3535 189.151 59.7498 189.246C60.1461 189.343 61.9294 190.409 62.0271 190.505C62.1247 190.602 60.205 191.281 60.205 191.281ZM65.3913 191.959L64.0057 192.637H62.0285V191.959L63.7114 191.283H65.3913V191.959ZM102.411 165.706C102.213 165.997 100.906 166.675 100.906 166.675C100.906 166.675 100.333 164.447 100.034 164.156C99.7373 163.864 101.223 163.478 101.818 163.188L102.411 163.864C102.411 163.864 102.609 165.417 102.411 165.706ZM104.948 160.67C105.107 160.959 105.184 161.929 105.264 162.218C105.344 162.511 105.283 163.382 105.975 164.11C106.667 164.836 106.767 165.902 106.667 166.676C106.569 167.45 105.184 166.772 104.886 166.676C104.589 166.579 103.195 168.226 103.195 168.226C103.195 168.226 103.203 167.065 103.195 166.676C103.188 166.29 103.699 164.158 103.995 163.673C104.292 163.188 103.303 162.511 103.203 161.832C103.103 161.155 103.995 159.99 103.995 159.99C103.995 159.99 104.787 160.379 104.948 160.67ZM91.5227 151.662C90.9282 152.145 88.6509 153.792 88.157 154.083C87.6616 154.371 84.8904 158.344 84.4941 158.83C84.0992 159.315 83.6039 157.764 83.5048 157.473C83.4071 157.183 82.5155 154.371 82.7624 153.114C83.0094 151.854 83.7015 149.044 83.7015 149.044C83.7015 149.044 84.395 147.883 84.1969 147.592C83.9987 147.304 84.6922 144.685 84.6922 144.685C84.6922 144.685 84.8904 142.653 84.8904 141.878C84.8904 141.101 84.7928 139.746 84.7928 139.746L83.6053 139.262C83.6053 139.262 82.9118 138.486 82.7639 138.343C82.6145 138.198 83.6053 136.162 83.8034 135.678C84.0016 135.19 86.1784 134.516 86.4756 134.516C86.7728 134.516 86.8705 133.839 87.4649 132.967C88.0579 132.099 87.4649 132.168 87.4649 132.168C87.4649 132.168 84.0002 134.03 83.4072 134.225C82.8127 134.42 82.2183 135.292 81.5247 135.678C80.8326 136.063 81.2275 136.745 80.8326 137.421C80.4378 138.098 79.2489 138.487 78.8727 138.293C78.4979 138.098 78.0629 137.131 78.0629 137.131C78.0629 137.131 77.4684 135.581 78.0629 135.29C78.6559 134.998 79.0062 134.322 79.0062 134.322H78.0629L79.0507 131.608C79.0507 131.608 79.0881 131.471 79.1469 131.232C84.2428 129.776 89.6273 128.99 95.1971 128.99C98.3244 128.99 101.393 129.241 104.387 129.715C103.715 131.25 102.906 132.48 102.906 132.48C102.906 132.48 101.719 134.127 101.223 135.095C100.728 136.063 100.333 136.257 100.333 136.257C100.333 136.257 99.3424 140.616 99.1457 141.778C98.9461 142.943 98.7494 143.718 98.3517 144.203C97.9568 144.686 97.3638 145.559 97.3638 145.848C97.3638 146.139 96.9675 148.078 96.8684 148.369C96.7693 148.657 95.2832 150.304 94.6902 150.598C94.0957 150.885 92.1171 151.176 91.5227 151.662ZM95.1856 152.629L97.6093 152.241L100.033 152.629C100.033 152.629 99.7358 153.695 99.341 153.983C98.9461 154.274 97.7586 155.341 97.7586 155.341H95.7771C95.7786 155.341 95.1856 153.307 95.1856 152.629ZM134.705 213.294C134.63 213.513 133.665 215.112 133.443 216.492C133.22 217.871 132.627 218.235 132.403 218.162C132.181 218.09 130.6 216.926 130.6 216.926V215.837C130.919 215.473 132.106 212.713 132.403 212.567C132.7 212.422 134.11 210.969 134.408 210.678C134.705 210.388 135.225 208.934 135.447 209.518C135.671 210.098 134.778 213.077 134.705 213.294Z" fill="#182F00"/>
<path d="M177.696 102.141C176.913 95.7127 171.431 90.8148 164.695 90.8148C162.659 90.8148 160.779 91.274 159.213 92.0393C156.707 87.9067 152.321 85.3047 146.995 85.3047C142.14 85.3047 137.91 87.7536 135.404 91.274C140.573 91.5801 145.429 94.3352 148.405 98.4678C150.285 97.8556 152.164 97.5494 154.044 97.5494C162.032 97.5494 168.768 103.213 170.178 110.866C175.66 113.468 179.262 118.978 179.262 125.1C183.178 122.957 185.684 118.825 185.684 114.08C185.684 108.723 182.395 104.131 177.696 102.141Z" fill="#182F00"/>
<path d="M149.659 112.854C148.092 112.854 146.683 113.466 145.586 114.537C144.49 115.609 143.863 116.986 143.863 118.67C143.863 120.2 144.49 121.578 145.586 122.802C146.683 123.874 148.092 124.486 149.659 124.486C151.225 124.486 152.635 123.874 153.731 122.802C154.828 121.731 155.454 120.353 155.454 118.67C155.454 117.139 154.828 115.762 153.731 114.537C152.635 113.313 151.382 112.854 149.659 112.854Z" fill="#182F00"/>
<path d="M168.769 111.785C167.985 104.591 161.72 98.9278 154.201 98.9278C152.009 98.9278 149.816 99.387 147.936 100.305C145.117 95.7135 140.104 92.6523 134.309 92.6523C125.537 92.6523 118.332 99.6931 118.332 108.111C118.332 108.571 118.332 109.03 118.332 109.489C113.633 112.55 110.5 117.754 110.5 123.723C110.5 132.907 118.175 140.407 127.573 140.407C129.61 140.407 131.646 140.101 133.526 139.335C136.188 142.397 140.261 144.386 144.803 144.386C149.816 144.386 154.358 141.937 157.021 138.111C158.901 138.876 160.937 139.335 162.973 139.335C171.118 139.335 177.697 132.907 177.697 124.948C177.697 119.132 173.938 113.928 168.769 111.785ZM128.826 122.499C129.923 123.57 131.176 124.183 132.742 124.183C133.682 124.183 134.465 124.03 135.249 123.723C135.875 123.417 136.658 122.958 137.441 122.193L139.164 124.03C137.441 125.866 135.405 126.785 132.899 126.785C130.393 126.785 128.357 126.019 126.79 124.489C125.224 122.958 124.284 120.968 124.284 118.672C124.284 116.377 125.067 114.387 126.79 112.703C128.513 111.173 130.549 110.407 133.056 110.407C135.562 110.407 137.755 111.326 139.321 113.162L137.598 114.999C136.815 114.234 136.032 113.775 135.405 113.468C134.779 113.162 133.839 113.009 132.899 113.009C131.333 113.009 129.923 113.468 128.826 114.54C127.73 115.611 127.103 116.836 127.103 118.519C127.26 120.203 127.73 121.427 128.826 122.499ZM155.768 124.489C154.201 126.019 152.165 126.785 149.659 126.785C147.309 126.785 145.273 126.019 143.55 124.489C141.827 122.958 141.044 120.968 141.044 118.672C141.044 116.377 141.827 114.387 143.55 112.856C145.117 111.326 147.153 110.56 149.659 110.56C152.009 110.56 154.045 111.326 155.768 112.856C157.491 114.387 158.274 116.377 158.274 118.672C158.274 120.968 157.491 122.805 155.768 124.489ZM164.383 134.131H157.647V132.754L160.624 129.846C161.25 129.234 161.72 128.621 162.033 128.315C162.347 128.009 162.503 127.55 162.503 127.244C162.503 126.938 162.347 126.478 162.033 126.325C161.72 126.019 161.407 125.866 160.937 125.866C160.154 125.866 159.527 126.325 158.901 127.091L157.647 126.325C158.117 125.713 158.587 125.254 159.057 124.948C159.527 124.642 160.31 124.489 161.093 124.489C161.877 124.489 162.66 124.795 163.286 125.254C163.913 125.713 164.226 126.478 164.226 127.244C164.226 127.703 164.07 128.162 163.913 128.621C163.6 129.08 163.13 129.693 162.503 130.305L160.154 132.601H164.539V134.131H164.383Z" fill="#182F00"/>
<path fill-rule="evenodd" clip-rule="evenodd" d="M354.13 227.499C319.238 227.623 282.131 219.758 261.26 191.757C240.959 164.52 242.564 123.831 250.479 90.7813C258.246 58.3518 273.912 27.6418 303.99 13.3287C333.944 -0.924744 354.636 -1.29324 384.411 13.3287C413.829 27.775 438.914 54.0462 448.263 85.4931C458.309 119.288 459.105 156.48 436.783 183.75C414.783 210.629 388.834 227.374 354.13 227.499Z" fill="#B3D293"/>
<g clip-path="url(#clip1_3315_7930)">
<path fill-rule="evenodd" clip-rule="evenodd" d="M380.698 71.9884C380.014 72.6722 378.899 72.6722 378.209 71.9884C377.525 71.2974 377.525 70.1817 378.209 69.4978L386.596 61.0977C387.279 60.4067 388.394 60.4067 389.085 61.0977C389.768 61.7815 389.768 62.8972 389.085 63.5883L380.698 71.9884ZM288.545 106.661C289.516 106.661 290.308 107.445 290.308 108.417C290.308 109.396 289.516 110.18 288.545 110.18H276.676C275.705 110.18 274.914 109.396 274.914 108.417C274.914 107.445 275.705 106.661 276.676 106.661H288.545ZM305.384 69.4971C306.075 70.1809 306.075 71.2966 305.384 71.9877C304.694 72.6715 303.579 72.6715 302.896 71.9877L294.501 63.5875C293.818 62.8965 293.818 61.7808 294.501 61.0969C295.192 60.4059 296.307 60.4059 296.99 61.0969L305.384 69.4971ZM302.896 144.86C303.219 144.5 303.672 144.291 304.154 144.277C304.636 144.262 305.111 144.449 305.449 144.788C305.794 145.126 305.981 145.594 305.967 146.083C305.953 146.566 305.744 147.019 305.384 147.343L296.99 155.743C296.307 156.427 295.192 156.427 294.501 155.743C293.818 155.052 293.818 153.936 294.501 153.252L302.895 144.852L302.896 144.86ZM343.559 55.1296C343.53 56.0869 342.746 56.8427 341.796 56.8427C340.847 56.8427 340.063 56.0869 340.034 55.1296V43.26C340.063 42.3027 340.847 41.5469 341.796 41.5469C342.746 41.5469 343.53 42.3027 343.559 43.26V55.1367V55.1296ZM350.925 177.676L332.668 177.683C334.387 181.146 337.926 183.341 341.796 183.341C345.666 183.341 349.205 181.146 350.932 177.683L350.925 177.676ZM394.38 143.371C390.179 139.167 383.59 138.512 378.641 141.823C373.699 145.127 371.778 151.469 374.052 156.961C376.325 162.46 382.165 165.584 387.999 164.425C393.833 163.266 398.034 158.141 398.034 152.188C398.041 148.884 396.725 145.71 394.38 143.371ZM385.582 136.194C393.207 136.202 399.775 141.593 401.256 149.079C402.745 156.565 398.739 164.058 391.689 166.973C384.64 169.895 376.519 167.427 372.282 161.078C368.045 154.729 368.88 146.272 374.275 140.873C377.274 137.871 381.338 136.187 385.582 136.187V136.194ZM355.723 162.416C355.637 162.157 355.55 161.905 355.471 161.639L350.364 160.652C349.487 160.487 348.882 159.695 348.933 158.81V154.189H317.289V158.299C317.296 160.566 319.13 162.402 321.396 162.416L355.723 162.416ZM355.63 174.091L354.903 173.364C354.292 172.745 354.22 171.766 354.738 171.068L357.615 166.814C357.464 166.526 357.313 166.231 357.176 165.936H324.634V170.046C324.648 172.313 326.482 174.149 328.748 174.156H354.846C355.112 174.156 355.371 174.134 355.63 174.084L355.63 174.091ZM333.403 139.268C325.44 133.984 321.7 128.284 320.311 122.417C319.484 121.841 318.65 121.302 317.801 120.798C316.751 120.172 315.701 119.61 314.643 119.099V119.092C313.766 118.674 313.399 117.631 313.816 116.752C314.233 115.882 315.283 115.507 316.154 115.925C317.326 116.486 318.477 117.105 319.599 117.767L319.671 117.811V117.818C319.599 116.097 319.65 114.384 319.844 112.678C315.924 110.9 311.694 109.914 307.392 109.785C305.853 109.727 304.306 109.778 302.774 109.921H302.659C300.99 110.08 299.336 110.353 297.71 110.728C302.105 113.557 304.961 118.494 307.91 123.612C312.989 132.415 318.405 141.802 333.404 139.239L333.403 139.268ZM351.278 107.704C352.501 106.689 353.774 105.746 355.105 104.875C362.233 100.29 370.52 97.8357 378.994 97.7852C376.879 85.2318 368.586 74.5857 356.926 69.4832C345.267 64.3808 331.821 65.5026 321.169 72.4704C310.523 79.4454 304.099 91.3212 304.106 104.056C304.106 104.783 304.121 105.445 304.157 106.043C304.157 106.136 304.157 106.23 304.171 106.323C305.293 106.266 306.408 106.259 307.516 106.295H307.509C311.932 106.431 316.292 107.382 320.377 109.087C320.953 105.928 321.802 102.768 322.629 99.6652C324.823 91.4738 326.923 83.6496 322.996 77.4386C322.579 76.7763 322.651 75.9198 323.168 75.3368C323.686 74.7537 324.528 74.581 325.233 74.9121C332.57 78.2951 338.95 83.4561 343.784 89.9271C347.668 95.1674 350.243 101.264 351.279 107.706L351.278 107.704ZM336.798 137.259C319.132 126.318 322.692 113.009 326.015 100.571C327.914 93.4956 329.742 86.6717 328.073 80.4103L328.08 80.4031C333.101 83.3759 337.474 87.3275 340.949 92.0135C345.013 97.4552 347.487 103.919 348.106 110.686C345.991 112.895 344.135 115.343 342.582 117.984C342.524 116.379 342.409 114.803 342.229 113.262H342.236C341.79 109.167 340.884 105.136 339.531 101.249C339.208 100.335 338.208 99.8453 337.294 100.169C336.381 100.486 335.899 101.486 336.215 102.401C337.481 106.043 338.323 109.814 338.74 113.644C339.186 117.819 339.237 122.03 338.891 126.212C337.74 129.796 337.043 133.503 336.813 137.261L336.798 137.259ZM349.66 144.04H349.653C349.207 144.371 348.933 144.896 348.933 145.458V150.669H320.484C320.017 149.194 319.585 147.79 319.146 146.365C318.549 144.421 317.952 142.456 317.305 140.498C322.11 143.37 328.519 144.393 337.806 141.895H337.82V141.888C337.871 141.909 337.921 141.924 337.971 141.938C341.582 143.039 345.301 143.73 349.063 144.011L349.66 144.04ZM359.392 142.168C359.486 141.931 359.579 141.701 359.673 141.463C360.112 140.391 360.622 139.347 361.198 138.339C361.521 137.763 361.493 137.043 361.126 136.496L358.421 132.487L365.888 125.015L369.887 127.722H369.88C370.47 128.118 371.232 128.125 371.829 127.736C372.808 127.182 373.815 126.693 374.85 126.261C375.922 125.822 377.008 125.447 378.123 125.138C378.771 124.958 379.26 124.433 379.382 123.77L380.303 119.034H390.862L391.783 123.77C391.92 124.476 392.467 125.023 393.164 125.167C395.351 125.786 397.451 126.671 399.429 127.794C400.005 128.118 400.717 128.089 401.271 127.722L405.27 125.015L409.004 128.751L412.744 132.487L410.039 136.489V136.482C409.644 137.072 409.636 137.835 410.025 138.433C410.572 139.411 411.068 140.419 411.499 141.456C411.938 142.521 412.319 143.615 412.622 144.731C412.801 145.379 413.327 145.868 413.988 145.99L418.729 146.912V157.471L413.988 158.393C413.283 158.529 412.737 159.069 412.593 159.775C411.974 161.963 411.097 164.072 409.974 166.051C409.644 166.634 409.672 167.347 410.046 167.894L412.744 171.896L405.277 179.368L401.278 176.661C400.688 176.265 399.925 176.258 399.336 176.647C398.357 177.201 397.343 177.69 396.307 178.122C395.243 178.569 394.149 178.943 393.042 179.252C392.394 179.425 391.905 179.958 391.776 180.613L390.855 185.349H380.302L379.382 180.613C379.245 179.915 378.705 179.36 378.001 179.216C376.929 178.914 375.879 178.554 374.85 178.122C373.778 177.676 372.735 177.172 371.728 176.596C371.153 176.272 370.433 176.294 369.887 176.668L365.887 179.375L362.154 175.639L358.421 171.896L361.126 167.894V167.901C361.521 167.311 361.528 166.548 361.14 165.951C360.708 165.188 360.313 164.389 359.946 163.568V163.575C359.917 163.503 359.888 163.431 359.852 163.366C359.788 163.223 359.73 163.071 359.665 162.927H359.673C359.227 161.862 358.852 160.768 358.543 159.652C358.363 159.005 357.838 158.515 357.184 158.393L352.443 157.471V152.584C352.451 152.483 352.451 152.375 352.443 152.274V146.912L357.184 145.991C357.881 145.854 358.428 145.314 358.572 144.616C358.788 143.838 359.047 143.061 359.334 142.291C359.356 142.248 359.37 142.204 359.385 142.161L359.392 142.168ZM380.346 115.521L378.857 115.514C378.016 115.514 377.289 116.119 377.131 116.946L376.145 122.064C375.239 122.345 374.361 122.669 373.513 123.021C372.664 123.374 371.815 123.77 370.973 124.209L366.722 121.33L366.729 121.323C366.025 120.804 365.053 120.876 364.435 121.495L354.911 131.026V131.019C354.321 131.609 354.228 132.544 354.695 133.243L357.616 137.562C357.184 138.382 356.788 139.217 356.436 140.074L356.443 140.081C354.076 140.52 351.674 140.664 349.271 140.491C346.552 140.304 343.855 139.865 341.208 139.181C344.733 133.696 348.854 128.622 353.494 124.036C357.925 119.646 363.047 116.003 368.65 113.254C369.52 112.836 369.887 111.785 369.47 110.914C369.053 110.036 368.01 109.669 367.132 110.087C361.191 113.002 355.753 116.86 351.048 121.51C347.236 125.246 343.783 129.327 340.712 133.689C341.1 131.105 341.74 128.564 342.625 126.102C345.294 118.587 350.358 112.167 357.033 107.812C363.881 103.421 371.88 101.147 380.015 101.283C380.288 101.283 380.568 101.283 380.842 101.298H380.849H381.079C384.69 101.406 388.28 101.924 391.775 102.831C389.927 103.889 388.244 105.213 386.769 106.754C384.309 109.417 382.158 112.354 380.352 115.499L380.346 115.521ZM395.049 110.187V110.18C394.078 110.18 393.287 109.396 393.287 108.424C393.287 107.452 394.078 106.66 395.049 106.66H406.918C407.889 106.66 408.68 107.452 408.68 108.424C408.68 109.396 407.889 110.18 406.918 110.18L395.049 110.187Z" fill="#182F00"/>
</g>
<defs>
<clipPath id="clip0_3315_7930">
<rect width="155" height="169" fill="white" transform="translate(190 286.5)"/>
</clipPath>
<clipPath id="clip1_3315_7930">
<rect width="151" height="164" fill="white" transform="translate(275 30.5)"/>
</clipPath>
</defs>
</svg>
