<svg width="210" height="225" viewBox="0 0 210 225" fill="none" xmlns="http://www.w3.org/2000/svg">
<path fill-rule="evenodd" clip-rule="evenodd" d="M109.13 224.999C74.2383 225.123 37.1305 217.258 16.26 189.257C-4.04095 162.02 -2.43556 121.331 5.47935 88.2813C13.2456 55.8518 28.9117 25.1418 58.9904 10.8287C88.9437 -3.42474 109.636 -3.79324 139.411 10.8287C168.829 25.275 193.914 51.5462 203.263 82.9931C213.309 116.788 214.105 153.98 191.783 181.25C169.783 208.129 143.834 224.874 109.13 224.999Z" fill="#B3D293"/>
<g clip-path="url(#clip0_3432_5665)">
<path fill-rule="evenodd" clip-rule="evenodd" d="M135.698 69.4884C135.014 70.1722 133.899 70.1722 133.209 69.4884C132.525 68.7974 132.525 67.6817 133.209 66.9978L141.596 58.5977C142.279 57.9067 143.394 57.9067 144.085 58.5977C144.768 59.2815 144.768 60.3972 144.085 61.0883L135.698 69.4884ZM43.5452 104.161C44.5163 104.161 45.3075 104.945 45.3075 105.917C45.3075 106.896 44.5163 107.68 43.5452 107.68H31.6764C30.7053 107.68 29.9141 106.896 29.9141 105.917C29.9141 104.945 30.7053 104.161 31.6764 104.161H43.5452ZM60.3844 66.9971C61.075 67.6809 61.075 68.7966 60.3844 69.4877C59.6939 70.1715 58.5789 70.1715 57.8955 69.4877L49.501 61.0875C48.8177 60.3965 48.8177 59.2808 49.501 58.5969C50.1916 57.9059 51.3065 57.9059 51.99 58.5969L60.3844 66.9971ZM57.8955 142.36C58.2192 142 58.6724 141.791 59.1543 141.777C59.6363 141.762 60.111 141.949 60.4491 142.288C60.7944 142.626 60.9814 143.094 60.967 143.583C60.9526 144.066 60.744 144.519 60.3844 144.843L51.9899 153.243C51.3065 153.927 50.1916 153.927 49.5009 153.243C48.8176 152.552 48.8176 151.436 49.5009 150.752L57.8954 142.352L57.8955 142.36ZM98.5587 52.6296C98.53 53.5869 97.7459 54.3427 96.7964 54.3427C95.8469 54.3427 95.0628 53.5869 95.034 52.6296V40.76C95.0628 39.8027 95.8469 39.0469 96.7964 39.0469C97.7459 39.0469 98.53 39.8027 98.5587 40.76V52.6367V52.6296ZM105.925 175.176L87.6681 175.183C89.3873 178.646 92.9264 180.841 96.7963 180.841C100.666 180.841 104.205 178.646 105.932 175.183L105.925 175.176ZM149.38 140.871C145.179 136.667 138.59 136.012 133.641 139.323C128.699 142.627 126.778 148.969 129.052 154.461C131.325 159.96 137.165 163.084 142.999 161.925C148.833 160.766 153.034 155.641 153.034 149.688C153.041 146.384 151.725 143.21 149.38 140.871ZM140.582 133.694C148.207 133.702 154.775 139.093 156.256 146.579C157.745 154.065 153.739 161.558 146.689 164.473C139.64 167.395 131.519 164.927 127.282 158.578C123.045 152.229 123.88 143.772 129.275 138.373C132.274 135.371 136.338 133.687 140.582 133.687V133.694ZM110.723 159.916C110.637 159.657 110.55 159.405 110.471 159.139L105.364 158.152C104.487 157.987 103.882 157.195 103.933 156.31V151.689H72.289V155.799C72.2962 158.066 74.1305 159.902 76.3964 159.916L110.723 159.916ZM110.63 171.591L109.903 170.864C109.292 170.245 109.22 169.266 109.738 168.568L112.615 164.314C112.464 164.026 112.313 163.731 112.176 163.436H79.6337V167.546C79.6481 169.813 81.4824 171.649 83.7483 171.656H109.846C110.112 171.656 110.371 171.634 110.63 171.584L110.63 171.591ZM88.4031 136.768C80.4402 131.484 76.6997 125.784 75.3114 119.917C74.4842 119.341 73.6498 118.802 72.8009 118.298C71.7507 117.672 70.7005 117.11 69.6432 116.599V116.592C68.7656 116.174 68.3987 115.131 68.8159 114.252C69.2332 113.382 70.2834 113.007 71.1537 113.425C72.3262 113.986 73.4771 114.605 74.5993 115.267L74.6712 115.311V115.318C74.5992 113.597 74.6496 111.884 74.8438 110.178C70.9235 108.4 66.6939 107.414 62.3924 107.285C60.853 107.227 59.3065 107.278 57.7744 107.421H57.6593C55.9905 107.58 54.336 107.853 52.7103 108.228C57.1054 111.057 59.9611 115.994 62.9104 121.112C67.9888 129.915 73.4053 139.302 88.4036 136.739L88.4031 136.768ZM106.278 105.204C107.501 104.189 108.774 103.246 110.105 102.375C117.233 97.7902 125.52 95.3357 133.994 95.2852C131.879 82.7318 123.586 72.0857 111.926 66.9832C100.267 61.8808 86.8214 63.0026 76.1686 69.9704C65.5227 76.9454 59.0991 88.8212 59.1063 101.556C59.1063 102.283 59.1207 102.945 59.1567 103.543C59.1567 103.636 59.1567 103.73 59.1711 103.823C60.2932 103.766 61.4081 103.759 62.5159 103.795H62.5087C66.9324 103.931 71.2916 104.882 75.3774 106.587C75.9529 103.428 76.8017 100.268 77.629 97.1652C79.8229 88.9738 81.9233 81.1496 77.9958 74.9386C77.5786 74.2763 77.6505 73.4198 78.1685 72.8368C78.6864 72.2537 79.528 72.081 80.2329 72.4121C87.57 75.7951 93.9503 80.9561 98.7838 87.4271C102.668 92.6674 105.243 98.764 106.279 105.206L106.278 105.204ZM91.7982 134.759C74.1316 123.818 77.6922 110.509 81.0155 98.0712C82.9144 90.9956 84.7415 84.1717 83.0728 77.9103L83.08 77.9031C88.1009 80.8759 92.4744 84.8275 95.9487 89.5135C100.013 94.9552 102.487 101.419 103.106 108.186C100.991 110.395 99.1353 112.843 97.5815 115.484C97.524 113.879 97.4089 112.303 97.229 110.762H97.2362C96.7902 106.667 95.8839 102.636 94.5315 98.7489C94.2078 97.8348 93.2079 97.3453 92.2945 97.6692C91.3809 97.9859 90.899 98.9865 91.2155 99.9005C92.4815 103.543 93.323 107.314 93.7403 111.144C94.1863 115.319 94.2366 119.53 93.8914 123.712C92.7405 127.296 92.0427 131.003 91.8125 134.761L91.7982 134.759ZM104.66 141.54H104.653C104.207 141.871 103.933 142.396 103.933 142.958V148.169H75.4844C75.0169 146.694 74.5853 145.29 74.1465 143.865C73.5495 141.921 72.9524 139.956 72.305 137.998C77.1101 140.87 83.5192 141.893 92.806 139.395H92.8204V139.388C92.8708 139.409 92.9211 139.424 92.9715 139.438C96.5824 140.539 100.301 141.23 104.063 141.511L104.66 141.54ZM114.392 139.668C114.486 139.431 114.579 139.201 114.673 138.963C115.112 137.891 115.622 136.847 116.198 135.839C116.521 135.263 116.493 134.543 116.126 133.996L113.421 129.987L120.888 122.515L124.887 125.222H124.88C125.47 125.618 126.232 125.625 126.829 125.236C127.808 124.682 128.815 124.193 129.85 123.761C130.922 123.322 132.008 122.947 133.123 122.638C133.771 122.458 134.26 121.933 134.382 121.27L135.303 116.534H145.862L146.783 121.27C146.92 121.976 147.467 122.523 148.164 122.667C150.351 123.286 152.451 124.171 154.429 125.294C155.005 125.618 155.717 125.589 156.271 125.222L160.27 122.515L164.004 126.251L167.744 129.987L165.039 133.989V133.982C164.644 134.572 164.636 135.335 165.025 135.933C165.572 136.911 166.068 137.919 166.499 138.956C166.938 140.021 167.319 141.115 167.622 142.231C167.801 142.879 168.327 143.368 168.988 143.49L173.729 144.412V154.971L168.988 155.893C168.283 156.029 167.737 156.569 167.593 157.275C166.974 159.463 166.097 161.572 164.974 163.551C164.644 164.134 164.672 164.847 165.046 165.394L167.744 169.396L160.277 176.868L156.278 174.161C155.688 173.765 154.925 173.758 154.336 174.147C153.357 174.701 152.343 175.19 151.307 175.622C150.243 176.069 149.149 176.443 148.042 176.752C147.394 176.925 146.905 177.458 146.776 178.113L145.855 182.849H135.302L134.382 178.113C134.245 177.415 133.705 176.86 133.001 176.716C131.929 176.414 130.879 176.054 129.85 175.622C128.778 175.176 127.735 174.672 126.728 174.096C126.153 173.772 125.433 173.794 124.887 174.168L120.887 176.875L117.154 173.139L113.421 169.396L116.126 165.394V165.401C116.521 164.811 116.528 164.048 116.14 163.451C115.708 162.688 115.313 161.889 114.946 161.068V161.075C114.917 161.003 114.888 160.931 114.852 160.866C114.788 160.723 114.73 160.571 114.665 160.427H114.673C114.227 159.362 113.852 158.268 113.543 157.152C113.363 156.505 112.838 156.015 112.184 155.893L107.443 154.971V150.084C107.451 149.983 107.451 149.875 107.443 149.774V144.412L112.184 143.491C112.881 143.354 113.428 142.814 113.572 142.116C113.788 141.338 114.047 140.561 114.334 139.791C114.356 139.748 114.37 139.704 114.385 139.661L114.392 139.668ZM135.346 113.021L133.857 113.014C133.016 113.014 132.289 113.619 132.131 114.446L131.145 119.564C130.239 119.845 129.361 120.169 128.513 120.521C127.664 120.874 126.815 121.27 125.973 121.709L121.722 118.83L121.729 118.823C121.025 118.304 120.053 118.376 119.435 118.995L109.911 128.526V128.519C109.321 129.109 109.228 130.044 109.695 130.743L112.616 135.062C112.184 135.882 111.788 136.717 111.436 137.574L111.443 137.581C109.076 138.02 106.674 138.164 104.271 137.991C101.552 137.804 98.855 137.365 96.2079 136.681C99.7326 131.196 103.854 126.122 108.494 121.536C112.925 117.146 118.047 113.503 123.65 110.754C124.52 110.336 124.887 109.285 124.47 108.414C124.053 107.536 123.01 107.169 122.132 107.587C116.191 110.502 110.753 114.36 106.048 119.01C102.236 122.746 98.7832 126.827 95.7116 131.189C96.1 128.605 96.7402 126.064 97.6251 123.602C100.294 116.087 105.358 109.667 112.033 105.312C118.881 100.921 126.88 98.6466 135.015 98.7833C135.288 98.7833 135.568 98.7833 135.842 98.7977H135.849H136.079C139.69 98.9057 143.28 99.4239 146.775 100.331C144.927 101.389 143.244 102.713 141.769 104.254C139.309 106.917 137.158 109.854 135.352 112.999L135.346 113.021ZM150.049 107.687V107.68C149.078 107.68 148.287 106.896 148.287 105.924C148.287 104.952 149.078 104.16 150.049 104.16H161.918C162.889 104.16 163.68 104.952 163.68 105.924C163.68 106.896 162.889 107.68 161.918 107.68L150.049 107.687Z" fill="#182F00"/>
</g>
<defs>
<clipPath id="clip0_3432_5665">
<rect width="151" height="164" fill="white" transform="translate(30 28)"/>
</clipPath>
</defs>
</svg>
