<svg width="210" height="225" viewBox="0 0 210 225" fill="none" xmlns="http://www.w3.org/2000/svg">
<path fill-rule="evenodd" clip-rule="evenodd" d="M109.13 224.999C74.2383 225.123 37.1305 217.258 16.26 189.257C-4.04095 162.02 -2.43556 121.331 5.47935 88.2813C13.2456 55.8518 28.9117 25.1418 58.9904 10.8287C88.9437 -3.42474 109.636 -3.79324 139.411 10.8287C168.829 25.275 193.914 51.5462 203.263 82.9931C213.309 116.788 214.105 153.98 191.783 181.25C169.783 208.129 143.834 224.874 109.13 224.999Z" fill="#B3D293"/>
<path d="M116.76 125.831C116.016 126.05 112.9 126.486 112.379 126.34C111.86 126.194 111.193 124.887 110.819 124.596C110.449 124.305 109.336 123.07 109.336 123.07C109.336 123.07 109.039 123.579 109.187 123.869C109.335 124.16 109.408 125.904 109.408 125.904C109.408 125.904 108.74 125.976 108.37 125.758C107.998 125.542 106.067 124.087 106.067 124.087C106.067 124.087 105.102 125.542 104.881 125.615C104.657 125.687 103.914 125.542 103.617 125.397C103.321 125.251 103.245 124.741 103.395 124.524C103.544 124.307 103.617 123.146 103.321 123.071C103.024 123 101.539 121.909 101.539 121.909C101.539 121.909 100.648 121.909 100.055 121.909C99.4603 121.909 99.4603 121.472 98.7926 121.909C98.1249 122.346 96.9762 123.362 96.6977 123.801C96.4177 124.236 95.292 125.325 95.2604 125.688C95.2288 126.053 93.2214 127.44 93.9681 127.214C93.9681 127.214 98.4954 125.834 98.7194 125.834C98.9434 125.834 101.986 125.98 102.358 126.197C102.728 126.416 102.579 126.705 102.728 127.215C102.878 127.726 103.619 128.088 104.436 128.958C105.251 129.831 106.068 129.626 106.292 129.945C106.513 130.266 107.181 130.266 107.181 130.266C107.181 130.266 107.257 128.158 107.627 128.449C107.999 128.74 110.3 129.321 111.711 129.538C113.121 129.758 114.978 129.538 115.348 128.885C115.72 128.23 116.758 126.923 116.758 126.704C116.76 126.486 117.503 125.615 116.76 125.831Z" fill="#182F00"/>
<path d="M113.272 121.715C113.867 121.616 114.385 121.955 114.682 121.715C114.98 121.47 116.603 122.053 117.092 122.053C117.578 122.053 118.839 121.47 118.618 121.034C118.395 120.599 117.429 119.508 117.429 119.508C117.429 119.508 115.822 118.421 115.959 118.201C116.095 117.982 115.723 117.329 115.501 117.763C115.278 118.201 115.65 119.362 115.427 119.834C115.203 120.308 113.868 119.834 113.868 119.834C113.868 119.834 111.789 119.288 111.565 119.834C111.342 120.38 112.086 122.052 112.086 122.052L113.272 121.715Z" fill="#182F00"/>
<path d="M119.508 135.714C119.359 135.424 118.321 133.609 118.097 133.171C117.876 132.734 117.093 131.718 117.093 131.718C117.093 131.718 116.167 131.354 116.167 131.718C116.167 132.082 116.167 133.171 116.167 133.171C116.984 134.769 117.874 136.295 118.097 136.731C118.321 137.167 119.807 139.491 119.88 139.709C119.953 139.928 121.217 141.453 121.514 141.089C121.81 140.726 121.735 139.49 121.514 139.127C121.29 138.766 119.656 136.006 119.508 135.714Z" fill="#182F00"/>
<path d="M29.2214 121.523C31.1368 113.007 35.0381 105.211 40.4197 98.622C39.9258 97.9868 39.4376 97.3446 38.9221 96.7305C33.0638 103.764 28.8452 112.152 26.835 121.331C27.629 121.416 28.4245 121.492 29.2214 121.523Z" fill="#182F00"/>
<path d="M141.424 122.716C142.199 122.557 142.976 122.398 143.747 122.229C141.992 113.543 138.267 105.546 133.045 98.6992C132.436 99.2023 131.805 99.6745 131.148 100.109C136.164 106.685 139.742 114.371 141.424 122.716Z" fill="#182F00"/>
<path d="M141.925 125.577C142.31 128.192 142.508 130.863 142.508 133.581C142.508 136.48 142.281 139.332 141.846 142.113C141.773 141.919 141.723 141.782 141.704 141.716C141.506 141.04 141.209 140.457 140.716 139.294C140.219 138.133 139.825 137.453 139.23 136.68C138.637 135.905 138.34 135.421 135.964 133.968C133.59 132.514 133.689 132.999 133.392 132.901C133.095 132.805 130.52 132.127 128.046 131.545C125.571 130.963 125.472 130.672 125.174 130.672C124.879 130.672 125.077 131.157 125.274 131.642C125.472 132.127 126.56 132.998 126.956 133.287C127.353 133.58 128.441 133.58 128.837 133.483C129.234 133.386 130.124 133.483 130.124 133.483L131.904 135.613C131.904 135.613 130.917 136.68 130.519 137.84C130.124 139.004 128.738 139.489 128.045 139.781C127.353 140.072 123.987 141.912 123.095 142.299C122.204 142.686 122.998 143.169 122.998 143.169L127.155 142.686C127.155 142.686 126.659 144.041 125.671 145.98C124.682 147.916 123.394 148.788 123.394 148.788C123.394 148.788 120.919 151.886 120.522 152.373C120.127 152.856 120.028 155.957 119.731 157.314C119.434 158.67 120.028 159.639 119.731 160.123C119.434 160.608 117.256 162.547 117.256 162.547L116.663 164.386C116.663 164.386 116.564 165.453 116.268 165.743C115.971 166.033 114.881 167.97 114.484 168.455C114.09 168.941 111.713 171.459 111.021 171.943C110.329 172.426 107.953 172.911 107.953 172.911C107.953 172.911 106.764 171.75 106.567 171.168C106.367 170.587 105.378 167.874 105.378 167.391C105.378 166.905 104.191 163.515 104.191 163.515L103.796 161.382V160.802C103.796 160.802 104.486 159.445 104.686 158.38C104.886 157.314 104.983 155.861 104.686 155.668C104.389 155.473 103.895 154.214 102.804 152.954C101.715 151.695 102.012 150.726 102.113 149.66C102.212 148.594 100.926 148.401 100.628 148.101C100.331 147.798 98.9455 147.335 98.6483 147.239C98.351 147.144 96.5706 147.822 96.0738 148.015C95.5798 148.207 93.5021 148.015 93.0053 148.015C92.5114 148.015 90.9276 147.433 90.5945 147.239C90.2614 147.045 88.3517 145.495 88.3517 145.495C88.3517 145.495 86.4721 142.104 86.274 141.621C86.0772 141.134 86.274 138.474 86.274 138.474L87.0666 136.004C87.0666 136.004 88.7508 133.195 88.8485 132.902C88.9461 132.611 91.3225 129.511 92.016 128.641C92.7066 127.769 91.8178 126.316 91.2492 125.831C90.6792 125.347 90.7295 125.154 90.5313 124.475C90.3332 123.799 90.9262 123.022 91.2492 121.955C91.5694 120.889 93.1948 121.279 93.1948 121.279L94.948 120.697C94.948 120.697 95.3817 119.147 93.7979 118.178C93.7979 118.178 94.9839 117.55 95.2639 117.451C95.5425 117.356 96.7185 116.581 97.1133 115.998C97.5082 115.419 97.7078 114.402 97.8571 114.305C98.005 114.208 99.1422 113.046 99.4394 112.61C99.7381 112.171 100.429 110.187 100.429 110.187C100.429 110.187 101.073 110.72 101.173 110.962C101.27 111.205 102.064 111.93 102.064 111.93C102.064 111.93 103.4 111.93 103.945 111.688C104.488 111.445 106.221 111.108 106.616 110.72C107.012 110.333 107.162 109.316 107.162 109.316C107.162 109.316 107.854 108.345 107.805 107.96C107.755 107.573 108.497 107.135 109.389 107.087C110.28 107.039 110.28 107.039 110.527 106.748C110.774 106.458 109.835 106.699 108.003 105.877C106.172 105.054 106.814 105.877 106.616 105.731C106.419 105.586 106.616 102.485 106.715 102.294C106.814 102.098 107.061 101.276 106.764 100.984C106.469 100.696 105.825 101.518 105.578 101.952C105.329 102.389 104.537 105.005 104.389 105.491C104.241 105.974 104.933 106.75 105.032 107.089C105.131 107.427 104.537 109.073 104.29 109.559C104.043 110.045 102.953 110.478 102.804 110.526C102.656 110.575 102.063 109.51 102.012 109.267C101.964 109.025 101.221 107.815 101.073 107.766C100.924 107.718 100.479 108.203 100.182 108.492C99.886 108.783 99.1925 108.445 98.9957 108.492C98.7962 108.542 98.0538 105.683 98.0538 105.683C98.0538 105.683 99.0431 104.909 99.8372 104.424C100.628 103.941 100.826 102.972 101.122 102.294C101.421 101.616 102.311 98.4165 103.4 97.0618C104.488 95.7029 106.072 95.5104 106.866 95.2209C107.657 94.9286 108.448 95.1225 108.448 95.1225C108.448 95.1225 109.242 96.0908 110.428 96.48C111.617 96.8665 112.311 96.7695 112.803 97.2558C113.3 97.7378 115.179 99.0967 115.179 99.0967L114.783 96.9635L116.666 97.5452C116.666 97.5452 119.635 96.0922 119.931 96.0922C120.228 96.0922 120.603 95.2223 120.603 95.2223C120.603 95.2223 117.754 94.7361 117.356 94.7361C116.963 94.7361 115.772 91.2495 115.673 89.6995C115.576 88.1481 116.763 86.9761 116.763 86.9761C116.763 86.9761 117.455 90.0874 117.455 90.3769C117.455 90.6678 117.455 91.3451 117.655 91.9283C117.852 92.5087 121.118 94.0615 121.614 94.2526C122.109 94.448 122.703 93.6709 122.703 93.6709L122.207 91.9283L122.478 91.0191C124.955 93.0989 127.242 95.3839 129.327 97.8432C129.986 97.4146 130.616 96.9353 131.222 96.428C120.264 83.4488 103.701 75.166 85.1971 75.166C67.5991 75.166 51.76 82.6576 40.8259 94.5534C41.3442 95.1534 41.8367 95.776 42.335 96.3957C43.9044 94.6658 45.58 93.0272 47.3548 91.4969L47.7697 92.4103L49.1553 93.1846C49.1553 93.1846 50.1648 92.1194 50.205 91.636C50.2452 91.1512 50.6415 89.6011 50.6415 89.6011C50.6415 89.6011 50.6975 89.2358 50.7204 88.8057C51.9754 87.8783 53.272 87 54.603 86.1736C54.7481 86.362 54.8543 86.5123 54.8974 86.5994C55.0955 86.9873 54.6992 87.2782 54.402 87.3414C54.1048 87.4033 55.5909 88.3434 55.5909 88.3434C55.5909 88.3434 57.1732 87.6647 57.5681 87.3766C57.9658 87.0857 57.1732 88.7313 56.876 89.1191C56.5802 89.5056 55.1946 91.6374 55.0955 91.9269C54.9979 92.2192 54.7983 93.5767 54.7983 93.5767L53.4127 94.1571C53.4127 94.1571 52.2267 93.9618 51.7299 94.2512C51.233 94.5435 52.521 95.4148 52.8182 95.6102C53.1169 95.8055 53.9095 95.6102 53.9095 95.6102C53.9095 95.6102 55.69 94.0587 55.8867 93.7692C56.0863 93.4783 57.5695 91.9255 57.9673 91.4449C58.3621 90.9572 59.4505 89.2175 59.6501 88.5387C59.8468 87.86 61.5297 88.5387 61.5297 88.5387C61.5297 88.5387 62.9181 88.5387 63.2139 88.5387C63.5097 88.5387 61.6302 89.7979 61.3329 89.8934C61.0357 89.9918 59.9473 91.3465 59.9473 91.3465C59.9473 91.3465 58.7584 93.8662 58.7584 94.1571C58.7584 94.4466 58.7584 95.9011 58.7584 95.9011L59.4505 95.7057L60.8361 94.1557L60.9338 93.2844C60.9338 93.2844 61.4306 91.8313 61.6287 91.5404C61.8254 91.2495 63.3116 89.7965 63.9046 89.5056C64.4976 89.2175 65.5874 89.5056 65.5874 89.5056C65.5874 89.5056 66.6772 89.6995 67.0721 90.1829C67.467 90.6664 67.0721 90.9572 67.0721 90.9572C67.0721 90.9572 67.1697 92.6056 67.467 92.7996C67.7642 92.9935 68.3586 95.5118 68.3586 95.5118L67.6665 96.7709L68.7549 99.2906L68.4577 100.55L66.9716 101.035C66.9716 101.035 66.2824 100.453 66.0828 100.839C65.8832 101.227 66.0828 101.809 66.1804 102.098C66.2809 102.389 65.5874 103.358 65.1911 103.842C64.7962 104.327 63.7079 103.745 63.7079 103.745C63.7079 103.745 62.1227 102.486 61.8254 102.098C61.5282 101.711 61.1334 101.518 61.1334 101.518L61.6302 100.55C61.6302 100.55 62.7185 99.871 63.0158 99.6785C63.313 99.4859 64.2018 97.0632 64.1042 96.7723C64.0051 96.4814 63.906 94.7375 63.7093 94.448C63.5097 94.1571 62.8176 94.6405 62.3237 95.1267C61.8269 95.6102 61.2353 98.1284 61.2353 98.4193C61.2353 98.7102 59.1547 99.3876 59.1547 99.3876L58.3636 100.065C58.3636 100.065 59.1547 101.033 59.1547 101.324C59.1547 101.615 57.6715 101.711 57.3742 101.711C57.077 101.711 56.8774 101.033 56.8774 101.033V99.3862C56.8774 99.3862 53.3165 102.001 52.8197 102.291C52.3257 102.583 51.3364 103.744 50.6429 104.424C49.9508 105.101 49.9508 106.555 49.8503 107.039C49.7512 107.523 50.5424 108.009 51.5331 109.267C52.521 110.526 52.8197 110.624 53.216 111.399C53.6123 112.174 52.8197 113.918 52.9202 114.208C53.0178 114.499 54.3058 112.271 54.3058 112.271C54.3058 112.271 55.7891 110.624 55.9886 110.238C56.1868 109.851 57.571 108.492 57.571 108.492L57.077 106.845C57.077 106.845 58.0663 106.652 58.2645 106.071C58.4626 105.489 58.7599 104.038 59.0571 103.842C59.3543 103.65 60.6423 103.842 60.6423 103.842C60.6423 103.842 61.6316 104.424 61.9274 104.716C62.226 105.005 62.3251 105.779 62.0279 106.362C61.7307 106.944 62.8191 107.621 62.8191 107.621C62.8191 107.621 64.5019 106.071 64.7991 105.879C65.0963 105.686 64.9987 107.138 64.9987 107.621C64.9987 108.105 65.1954 110.235 65.1954 110.235L66.0871 112.755L66.2867 114.541C66.2867 114.541 67.2746 117.114 67.2746 117.403C67.2746 117.696 66.0871 118.856 65.7899 118.826C65.4926 118.792 64.8006 118.47 64.2047 118.084C63.6088 117.697 63.8098 117.017 63.8098 117.017C63.8098 117.017 65.2931 114.885 65.0963 114.594C64.8968 114.305 63.2154 115.272 62.8191 115.369C62.4242 115.467 60.5432 115.758 60.1469 115.856C59.752 115.95 59.9502 116.726 59.9502 116.726L60.4441 117.599L62.0293 118.826C62.0293 118.826 61.1377 120.214 60.8404 120.114C60.5446 120.019 58.6637 120.697 58.6637 120.697C58.6637 120.697 56.9808 120.99 56.5845 121.279C56.1897 121.569 55.0998 122.925 55.0998 122.925C55.0998 122.925 54.0114 123.411 52.9231 124.767C51.8332 126.125 51.0406 128.545 50.6458 129.223C50.2509 129.902 49.7541 129.708 49.4569 129.902C49.1597 130.096 48.7648 132.225 48.7648 132.225C48.7648 132.225 49.1597 134.84 49.1597 135.131C49.1597 135.423 48.0713 135.423 47.9736 135.131C47.8746 134.84 47.082 133.872 46.4875 133.195C45.8945 132.516 45.6963 132.225 44.8047 131.742C43.9159 131.257 43.7163 131.937 43.1218 132.419C42.5288 132.902 40.6478 132.514 40.1539 132.514C39.66 132.514 38.372 133.871 38.1738 134.357C37.9757 134.84 37.878 137.552 37.878 138.134C37.878 138.716 38.0748 139.007 38.6692 139.783C39.2637 140.557 40.2544 140.751 40.2544 140.751C40.2544 140.751 42.2345 138.619 42.4326 138.328C42.6308 138.037 44.0164 139.49 44.0164 139.49V140.265C44.0164 140.265 43.1247 141.718 43.5224 142.01C43.9173 142.299 46.3913 142.588 46.3913 142.588L46.6885 144.428C46.6885 144.428 46.8881 145.107 47.283 145.398C47.6778 145.689 48.2723 145.786 48.8667 146.075C49.4597 146.366 50.6486 146.656 50.6486 146.656L51.9352 146.075C51.9352 146.075 52.9245 145.203 53.3208 145.009C53.7157 144.816 54.804 145.203 55.1013 145.203C55.3985 145.203 56.586 145.3 57.179 145.592C57.7734 145.88 58.3679 145.979 58.8618 145.979C59.3586 145.979 60.6452 145.688 60.6452 145.688C60.6452 145.688 60.6452 145.688 60.7428 145.979C60.8404 146.267 60.8404 146.462 61.1377 146.754C61.4349 147.044 63.1177 148.205 63.5126 148.495C63.9089 148.786 64.107 148.885 65.1954 149.174C66.2867 149.464 65.9895 149.559 66.3843 149.852C66.7792 150.142 66.8783 150.336 67.1755 151.208C67.1755 151.208 70.343 153.05 71.0365 153.341C71.7286 153.63 72.3231 153.824 73.0152 153.92C73.7072 154.017 74.4022 154.212 74.6003 154.334C74.7985 154.458 77.4706 156.536 77.4706 156.536C77.4706 156.536 76.579 158.959 76.1841 159.249C75.7892 159.538 76.3823 159.83 76.1841 160.799C75.986 161.768 75.7893 165.838 75.7893 165.838C75.7893 165.838 74.8976 166.126 74.5027 166.225C74.1078 166.319 73.018 167.385 72.7222 167.676C72.425 167.966 72.1278 169.614 72.1278 169.614L71.7329 172.037C71.7329 172.037 71.4357 173.779 71.1385 174.264C70.8413 174.749 70.3459 176.782 70.3459 176.782C70.3459 176.782 69.5533 180.172 69.5533 180.464C69.5533 180.754 69.2561 181.917 69.1584 182.207C69.0593 182.498 69.4556 183.369 69.4556 183.369L70.7422 184.24C70.7422 184.24 70.7422 185.792 70.7422 186.083C70.7422 186.371 72.1034 187.422 72.1249 188.195C71.3338 188.012 70.5483 187.814 69.7715 187.6C69.6064 187.534 69.4571 187.48 69.3566 187.439C68.8598 187.246 68.1677 186.18 68.1677 186.18L66.9788 184.727L65.7927 182.593C65.7927 182.593 64.8034 181.14 64.6067 180.658C64.4071 180.171 63.8127 178.913 63.4178 178.139C63.023 177.364 62.5261 176.005 62.0322 173.778C61.5354 171.551 60.3494 169.71 59.9545 168.352C59.5582 166.997 58.9652 165.449 57.7749 163.897C56.5874 162.346 55.9944 162.444 55.1027 162.056C54.211 161.669 52.9259 159.829 52.9259 159.829C52.9259 159.829 51.1426 158.182 50.4491 157.309C49.7555 156.437 49.856 155.856 49.856 155.856C49.856 155.856 49.757 153.918 49.4597 153.436C49.1625 152.95 49.5603 152.273 49.5603 152.273L51.0435 149.367C51.0435 149.367 50.0542 147.914 49.9551 147.429C49.856 146.944 49.3607 147.815 49.3607 147.815C49.3607 147.815 48.5695 148.011 48.2723 147.815C47.9751 147.621 45.995 146.751 45.0057 145.783C44.0164 144.815 42.3335 144.136 39.4632 142.971C36.5929 141.81 36.1981 141.905 36.1981 141.905C36.1981 141.905 33.9208 140.744 33.6236 140.647C33.3263 140.55 33.0306 139.194 33.0306 139.194C33.0306 139.194 32.4361 137.548 32.1403 136.968C31.8431 136.392 30.2579 133.866 29.9607 133.38C29.6649 132.897 28.9714 132.509 28.9714 132.509C28.9714 132.509 28.8737 132.897 29.1709 133.477C29.4682 134.059 29.863 135.124 29.863 135.124C29.863 135.124 30.7533 137.062 30.6542 136.965C30.5566 136.869 29.863 136.965 29.863 136.965C29.863 136.965 28.9714 135.9 28.6741 135.415C28.5234 135.168 28.1888 134.562 27.8988 133.925C27.8973 133.809 27.8945 133.692 27.8945 133.575C27.8945 130.449 28.1615 127.382 28.6655 124.393C27.8744 124.343 27.0846 124.257 26.2949 124.174C25.7866 127.236 25.5195 130.376 25.5195 133.575C25.5195 165.786 52.2927 191.991 85.2057 191.991C118.117 191.991 144.892 165.786 144.892 133.575C144.892 130.693 144.676 127.86 144.263 125.089C143.479 125.26 142.702 125.414 141.925 125.577ZM101.419 84.1767C101.715 83.8844 104.205 82.7237 104.205 82.7237C104.205 82.7237 104.387 83.7903 104.205 84.1767C104.023 84.5618 104.09 85.5328 104.189 85.8223C104.288 86.1146 103.893 87.2768 103.596 86.8974C103.299 86.5179 102.802 86.6964 102.506 86.8974C102.211 87.0969 101.22 88.6484 101.22 88.6484C101.22 88.6484 100.723 87.2768 99.8343 85.145C99.8357 85.1436 101.121 84.4676 101.419 84.1767ZM50.205 139.781L48.5623 139.005C48.5623 139.005 46.4818 138.23 46.186 138.23V137.165H47.5716C47.5716 137.165 49.3535 137.651 49.7498 137.746C50.1461 137.843 51.9294 138.909 52.0271 139.005C52.1247 139.102 50.205 139.781 50.205 139.781ZM55.3913 140.459L54.0057 141.137H52.0285V140.459L53.7114 139.783H55.3913V140.459ZM92.4109 114.206C92.2127 114.497 90.9061 115.175 90.9061 115.175C90.9061 115.175 90.3332 112.947 90.0345 112.656C89.7373 112.364 91.2234 111.978 91.8178 111.688L92.4109 112.364C92.4109 112.364 92.609 113.917 92.4109 114.206ZM94.948 109.17C95.1074 109.459 95.1835 110.429 95.2639 110.718C95.3443 111.011 95.2826 111.882 95.9747 112.61C96.6668 113.336 96.7673 114.402 96.6668 115.176C96.5691 115.95 95.1835 115.272 94.8863 115.176C94.5891 115.079 93.1948 116.726 93.1948 116.726C93.1948 116.726 93.2035 115.565 93.1948 115.176C93.1877 114.79 93.6988 112.658 93.9946 112.173C94.2918 111.688 93.3025 111.011 93.2035 110.332C93.1029 109.655 93.9946 108.49 93.9946 108.49C93.9946 108.49 94.7872 108.879 94.948 109.17ZM81.5227 100.162C80.9282 100.645 78.6509 102.292 78.157 102.583C77.6616 102.871 74.8904 106.844 74.4941 107.33C74.0992 107.815 73.6039 106.264 73.5048 105.973C73.4071 105.683 72.5155 102.871 72.7624 101.614C73.0094 100.354 73.7015 97.5438 73.7015 97.5438C73.7015 97.5438 74.395 96.3831 74.1969 96.0922C73.9987 95.8041 74.6922 93.1846 74.6922 93.1846C74.6922 93.1846 74.8904 91.1526 74.8904 90.3783C74.8904 89.6011 74.7928 88.2464 74.7928 88.2464L73.6053 87.7616C73.6053 87.7616 72.9118 86.9859 72.7639 86.8426C72.6145 86.6978 73.6053 84.6616 73.8034 84.1781C74.0016 83.6905 76.1784 83.016 76.4756 83.016C76.7728 83.016 76.8705 82.3386 77.4649 81.4673C78.0579 80.5989 77.4649 80.6677 77.4649 80.6677C77.4649 80.6677 74.0002 82.5297 73.4072 82.7251C72.8127 82.9204 72.2183 83.7917 71.5247 84.1781C70.8326 84.5632 71.2275 85.2447 70.8326 85.9207C70.4378 86.598 69.2489 86.9873 68.8727 86.7934C68.4979 86.598 68.0629 85.6312 68.0629 85.6312C68.0629 85.6312 67.4684 84.0812 68.0629 83.7903C68.6559 83.498 69.0062 82.822 69.0062 82.822H68.0629L69.0507 80.1084C69.0507 80.1084 69.0881 79.9707 69.1469 79.7318C74.2428 78.2759 79.6273 77.4904 85.1971 77.4904C88.3244 77.4904 91.3928 77.7405 94.3866 78.2155C93.7146 79.7501 92.9062 80.9797 92.9062 80.9797C92.9062 80.9797 91.7188 82.6267 91.2234 83.5949C90.728 84.5632 90.3332 84.7571 90.3332 84.7571C90.3332 84.7571 89.3424 89.1163 89.1457 90.2785C88.9461 91.4435 88.7494 92.2178 88.3517 92.7026C87.9568 93.186 87.3638 94.0587 87.3638 94.3482C87.3638 94.6391 86.9675 96.5784 86.8684 96.8693C86.7693 97.1574 85.2832 98.8044 84.6902 99.0981C84.0957 99.3848 82.1171 99.6757 81.5227 100.162ZM85.1856 101.129L87.6093 100.741L90.0331 101.129C90.0331 101.129 89.7358 102.195 89.341 102.483C88.9461 102.774 87.7586 103.841 87.7586 103.841H85.7771C85.7786 103.841 85.1856 101.807 85.1856 101.129ZM124.705 161.794C124.63 162.013 123.665 163.612 123.443 164.992C123.22 166.371 122.627 166.735 122.403 166.662C122.181 166.59 120.6 165.426 120.6 165.426V164.337C120.919 163.973 122.106 161.213 122.403 161.067C122.7 160.922 124.11 159.469 124.408 159.178C124.705 158.888 125.225 157.434 125.447 158.018C125.671 158.598 124.778 161.577 124.705 161.794Z" fill="#182F00"/>
<path d="M167.696 50.6412C166.913 44.2127 161.431 39.3148 154.695 39.3148C152.659 39.3148 150.779 39.774 149.213 40.5393C146.707 36.4067 142.321 33.8047 136.995 33.8047C132.14 33.8047 127.91 36.2536 125.404 39.774C130.573 40.0801 135.429 42.8352 138.405 46.9678C140.285 46.3556 142.164 46.0494 144.044 46.0494C152.032 46.0494 158.768 51.7126 160.178 59.3656C165.66 61.9676 169.262 67.4777 169.262 73.6001C173.178 71.4573 175.684 67.3247 175.684 62.5798C175.684 57.2228 172.395 52.631 167.696 50.6412Z" fill="#182F00"/>
<path d="M139.659 61.3535C138.092 61.3535 136.683 61.9658 135.586 63.0372C134.49 64.1086 133.863 65.4861 133.863 67.1698C133.863 68.7004 134.49 70.0779 135.586 71.3024C136.683 72.3738 138.092 72.986 139.659 72.986C141.225 72.986 142.635 72.3738 143.731 71.3024C144.828 70.231 145.454 68.8534 145.454 67.1698C145.454 65.6392 144.828 64.2616 143.731 63.0372C142.635 61.8127 141.382 61.3535 139.659 61.3535Z" fill="#182F00"/>
<path d="M158.769 60.2848C157.985 53.091 151.72 47.4278 144.201 47.4278C142.009 47.4278 139.816 47.887 137.936 48.8053C135.117 44.2135 130.104 41.1523 124.309 41.1523C115.537 41.1523 108.332 48.1931 108.332 56.6113C108.332 57.0705 108.332 57.5297 108.332 57.9889C103.633 61.0501 100.5 66.2541 100.5 72.2234C100.5 81.4069 108.175 88.9069 117.573 88.9069C119.61 88.9069 121.646 88.6007 123.526 87.8354C126.188 90.8966 130.261 92.8864 134.803 92.8864C139.816 92.8864 144.358 90.4374 147.021 86.611C148.901 87.3763 150.937 87.8354 152.973 87.8354C161.118 87.8354 167.697 81.4069 167.697 73.4479C167.697 67.6316 163.938 62.4276 158.769 60.2848ZM118.826 70.9989C119.923 72.0703 121.176 72.6826 122.742 72.6826C123.682 72.6826 124.465 72.5295 125.249 72.2234C125.875 71.9173 126.658 71.4581 127.441 70.6928L129.164 72.5295C127.441 74.3662 125.405 75.2846 122.899 75.2846C120.393 75.2846 118.357 74.5193 116.79 72.9887C115.224 71.4581 114.284 69.4683 114.284 67.1724C114.284 64.8765 115.067 62.8868 116.79 61.2031C118.513 59.6725 120.549 58.9072 123.056 58.9072C125.562 58.9072 127.755 59.8256 129.321 61.6623L127.598 63.499C126.815 62.7337 126.032 62.2745 125.405 61.9684C124.779 61.6623 123.839 61.5092 122.899 61.5092C121.333 61.5092 119.923 61.9684 118.826 63.0398C117.73 64.1112 117.103 65.3357 117.103 67.0194C117.26 68.703 117.73 69.9275 118.826 70.9989ZM145.768 72.9887C144.201 74.5193 142.165 75.2846 139.659 75.2846C137.309 75.2846 135.273 74.5193 133.55 72.9887C131.827 71.4581 131.044 69.4683 131.044 67.1724C131.044 64.8765 131.827 62.8868 133.55 61.3562C135.117 59.8256 137.153 59.0603 139.659 59.0603C142.009 59.0603 144.045 59.8256 145.768 61.3562C147.491 62.8868 148.274 64.8765 148.274 67.1724C148.274 69.4683 147.491 71.305 145.768 72.9887ZM154.383 82.6314H147.647V81.2539L150.624 78.3458C151.25 77.7335 151.72 77.1213 152.033 76.8152C152.347 76.509 152.503 76.0499 152.503 75.7437C152.503 75.4376 152.347 74.9785 152.033 74.8254C151.72 74.5193 151.407 74.3662 150.937 74.3662C150.154 74.3662 149.527 74.8254 148.901 75.5907L147.647 74.8254C148.117 74.2132 148.587 73.754 149.057 73.4479C149.527 73.1417 150.31 72.9887 151.093 72.9887C151.877 72.9887 152.66 73.2948 153.286 73.754C153.913 74.2132 154.226 74.9785 154.226 75.7437C154.226 76.2029 154.07 76.6621 153.913 77.1213C153.6 77.5805 153.13 78.1927 152.503 78.8049L150.154 81.1008H154.539V82.6314H154.383Z" fill="#182F00"/>
</svg>
