<svg width="210" height="224" viewBox="0 0 210 224" fill="none" xmlns="http://www.w3.org/2000/svg">
<path fill-rule="evenodd" clip-rule="evenodd" d="M108.61 223.999C73.8848 224.123 36.9537 216.292 16.1825 188.416C-4.02173 161.3 -2.42398 120.792 5.45323 87.8889C13.1825 55.6036 28.774 25.0301 58.7095 10.7806C88.5202 -3.40952 109.114 -3.77638 138.748 10.7806C168.025 25.1627 192.99 51.3171 202.295 82.6243C212.294 116.269 213.085 153.296 190.87 180.445C168.974 207.204 143.15 223.875 108.61 223.999Z" fill="#B3D293"/>
<g clip-path="url(#clip0_3315_7915)">
<path fill-rule="evenodd" clip-rule="evenodd" d="M116.328 28.8471C115.324 28.1388 114.223 27.5474 113.067 27.0936C111.911 26.6397 110.714 26.3165 109.503 26.1515C108.292 25.9796 107.054 25.9521 105.808 26.0758C104.604 26.1927 103.393 26.4609 102.196 26.8804C100.201 27.5749 98.4461 28.6339 96.9738 29.9543C95.4395 31.3296 94.201 32.9869 93.3272 34.8091C92.4466 36.6384 91.9236 38.6394 91.8136 40.7025C91.7035 42.6898 91.9718 44.7254 92.6736 46.7127C94.724 52.5647 106.131 60.3079 114.388 65.9118L114.395 65.9049C114.45 65.9462 114.512 65.9875 114.56 66.0287L117.105 67.7548C117.511 68.0367 117.91 68.3118 118.303 68.58C119.431 67.796 120.759 66.8952 122.176 65.9325L122.204 65.9187C126.408 63.0649 131.416 59.661 135.641 56.1884C139.666 52.8738 142.941 49.5456 143.939 46.7055V46.6986C144.64 44.7113 144.909 42.6757 144.799 40.6953C144.682 38.6322 144.159 36.6312 143.285 34.8019C142.404 32.9795 141.173 31.3223 139.638 29.947C138.159 28.6267 136.405 27.5677 134.416 26.8732C133.219 26.4537 132.008 26.1855 130.804 26.0686C129.566 25.9448 128.327 25.9723 127.109 26.1443C125.871 26.3162 124.667 26.6325 123.532 27.0864C122.389 27.5402 121.289 28.1316 120.263 28.8605C119.665 29.28 118.977 29.4794 118.289 29.4725C117.594 29.4657 116.92 29.2525 116.348 28.8468L116.328 28.8471ZM137.746 94.3874H139.824C141.07 94.1743 142.184 93.5691 143.037 92.7164C144.124 91.6299 144.799 90.1238 144.799 88.4666C144.799 86.8024 144.124 85.3033 143.037 84.2168C141.95 83.1302 140.443 82.4563 138.785 82.4563C137.127 82.4563 135.62 83.1302 134.533 84.2168C133.446 85.3033 132.772 86.8093 132.772 88.4666C132.772 90.1307 133.446 91.6299 134.533 92.7164C135.386 93.5691 136.501 94.1674 137.746 94.3874ZM151.239 103.086C149.904 101.807 148.39 100.755 146.753 99.9782C144.716 99.0086 142.48 98.4653 140.127 98.4515C139.687 98.5066 139.239 98.5409 138.785 98.5409C138.331 98.5409 137.877 98.5134 137.444 98.4515C135.091 98.4722 132.854 99.0154 130.818 99.9782C129.18 100.755 127.667 101.814 126.332 103.086C127.619 104.778 128.375 106.882 128.375 109.172C128.375 111.84 127.337 114.275 125.637 116.076C128.809 117.122 131.678 118.951 134.052 121.364C136.006 123.352 137.616 125.731 138.785 128.385C139.955 125.731 141.565 123.352 143.519 121.371C145.893 118.958 148.762 117.128 151.934 116.083C150.234 114.282 149.195 111.854 149.195 109.179C149.195 106.889 149.959 104.785 151.239 103.093L151.239 103.086ZM96.7668 94.3874H98.8447C100.09 94.1743 101.205 93.5691 102.058 92.7164C103.145 91.6299 103.819 90.1238 103.819 88.4666C103.819 86.8024 103.145 85.3033 102.058 84.2168C100.971 83.1302 99.4638 82.4563 97.8057 82.4563C96.1475 82.4563 94.6407 83.1302 93.5536 84.2168C92.4665 85.3033 91.7922 86.8093 91.7922 88.4666C91.7922 90.1307 92.4665 91.6299 93.5536 92.7164C94.4067 93.5691 95.5215 94.1674 96.7668 94.3874ZM110.259 103.086C108.924 101.807 107.411 100.755 105.773 99.9782C103.737 99.0086 101.5 98.4653 99.1475 98.4515C98.7071 98.5066 98.2599 98.5409 97.8058 98.5409C97.3517 98.5409 96.8976 98.5134 96.4642 98.4515C94.1112 98.4722 91.8749 99.0154 89.8384 99.9782C88.2009 100.755 86.6872 101.814 85.3524 103.086C86.639 104.778 87.3959 106.882 87.3959 109.172C87.3959 111.84 86.357 114.275 84.6576 116.076C87.685 117.073 90.4369 118.786 92.7419 121.034C94.8404 123.084 96.5742 125.58 97.7989 128.385C99.0305 125.58 100.764 123.084 102.863 121.034C105.168 118.786 107.92 117.073 110.947 116.076C109.248 114.275 108.209 111.847 108.209 109.172C108.209 106.882 108.972 104.778 110.252 103.086H110.259ZM158.235 115.1H160.313C161.558 114.887 162.673 114.281 163.526 113.429C164.613 112.342 165.288 110.836 165.288 109.179C165.288 107.522 164.613 106.016 163.526 104.929C162.439 103.843 160.932 103.169 159.274 103.169C157.609 103.169 156.109 103.843 155.022 104.929C153.935 106.016 153.261 107.522 153.261 109.179C153.261 110.843 153.935 112.342 155.022 113.429C155.875 114.281 156.99 114.88 158.235 115.1ZM174.397 126.996C171.48 126.735 168.446 127.388 165.756 129.011L143.414 142.503C143.181 141.355 142.809 140.234 142.307 139.175C141.894 138.315 141.398 137.497 140.821 136.741C141.206 131.803 143.284 127.382 146.407 124.211C149.455 121.11 153.508 119.198 157.932 119.164C158.372 119.219 158.82 119.253 159.274 119.253C159.728 119.253 160.175 119.226 160.615 119.164C164.049 119.191 167.248 120.34 169.931 122.3C171.658 123.565 173.172 125.153 174.397 126.996ZM98.0597 137.868C98.0321 137.868 98.0046 137.875 97.9702 137.875L96.023 137.999C93.3053 138.171 90.1473 136.823 86.5076 135.276C82.2486 133.467 77.2467 131.335 72.286 131.452C68.8734 131.528 65.2131 132.223 61.7728 133.502C58.5941 134.678 55.6355 136.349 53.2619 138.473C52.3743 139.271 51.4248 139.883 50.3928 140.31C49.3676 140.736 48.2668 140.99 47.0765 141.066L28.3145 142.242L30.6951 180.152L65.6547 177.966C66.4184 177.917 67.1133 177.924 67.7944 177.979C68.4686 178.034 69.1567 178.158 69.9135 178.337C71.1313 178.633 72.3422 178.928 73.5394 179.224C85.4355 182.14 96.4776 184.842 109.001 184.395C120.353 183.99 126.484 180.255 135.236 174.919C136.248 174.3 137.294 173.668 138.656 172.849L143.121 170.181C155.045 163.05 166.556 156.167 178.349 148.519C180.557 147.089 181.975 144.882 182.491 142.482C183 140.075 182.608 137.482 181.177 135.275C179.759 133.095 177.606 131.72 175.246 131.218C172.817 130.702 170.168 131.101 167.87 132.49L143.658 147.11C143.548 148.148 143.335 149.173 143.011 150.156C141.463 154.825 137.528 158.642 131.047 159.048L86.6619 161.826C85.5405 161.894 84.5772 161.049 84.5083 159.928C84.4395 158.807 85.2858 157.844 86.4073 157.775L130.792 154.997C135.347 154.715 138.092 152.088 139.151 148.877C139.468 147.928 139.64 146.924 139.674 145.92C139.674 145.879 139.674 145.83 139.681 145.789C139.688 145.473 139.681 145.163 139.661 144.847C139.578 143.486 139.241 142.138 138.656 140.914C137.204 137.86 134.149 135.598 129.595 135.887L98.0752 137.86L98.0597 137.868ZM117.255 115.099H119.333C120.578 114.886 121.693 114.281 122.546 113.428C123.633 112.342 124.307 110.835 124.307 109.178C124.307 107.521 123.633 106.015 122.546 104.928C121.459 103.842 119.952 103.168 118.294 103.168C116.629 103.168 115.129 103.842 114.042 104.928C112.955 106.015 112.28 107.521 112.28 109.178C112.28 110.842 112.955 112.342 114.042 113.428C114.895 114.281 116.01 114.879 117.255 115.099ZM136.107 132.985C134.187 132.118 131.924 131.685 129.316 131.843L100.301 133.659C101.182 129.835 103.094 126.466 105.688 123.935C108.709 120.992 112.644 119.19 116.944 119.156C117.385 119.211 117.832 119.245 118.286 119.245C118.74 119.245 119.187 119.218 119.628 119.156C124.052 119.19 128.104 121.102 131.152 124.204C133.457 126.548 135.198 129.574 136.099 132.978L136.107 132.985ZM76.2751 115.099H78.353C79.5983 114.886 80.7129 114.281 81.5661 113.428C82.6532 112.342 83.3274 110.835 83.3274 109.178C83.3274 107.521 82.6532 106.015 81.5661 104.928C80.479 103.842 78.9721 103.168 77.314 103.168C75.6489 103.168 74.149 103.842 73.0619 104.928C71.9748 106.015 71.3005 107.521 71.3005 109.178C71.3005 110.842 71.9748 112.342 73.0619 113.428C73.915 114.281 75.0298 114.879 76.2751 115.099ZM95.3613 133.948C93.5999 133.879 91.0267 132.786 88.0888 131.541C83.4652 129.574 78.0367 127.264 72.1953 127.401C68.4455 127.491 64.4756 128.213 60.7464 129.547C61.9161 127.057 63.5674 124.878 65.5558 123.172C68.4455 120.69 72.0577 119.198 75.9658 119.163C76.4062 119.218 76.8534 119.253 77.3075 119.253C77.7616 119.253 78.2088 119.225 78.6492 119.163C82.9493 119.198 86.8918 120.999 89.9122 123.942C92.568 126.535 94.5149 130.014 95.3613 133.948Z" fill="#182F00"/>
</g>
<defs>
<clipPath id="clip0_3315_7915">
<rect width="155" height="169" fill="white" transform="translate(28 26)"/>
</clipPath>
</defs>
</svg>
