<svg width="284" height="40" viewBox="0 0 284 40" fill="none" xmlns="http://www.w3.org/2000/svg">
<g clip-path="url(#clip0_3121_2840)">
<path d="M180.851 0.698197C160.654 1.32315 140.471 2.37134 120.32 3.84278C102.035 4.16683 83.7461 4.49087 65.4606 4.81492C45.3961 5.17203 25.3317 5.52584 5.27048 5.88295C3.32951 5.91602 0.323803 7.34117 0.0262086 9.49377C-0.301145 11.8679 2.63512 12.2647 4.28842 12.2382C17.3264 12.0068 30.3643 11.7753 43.4023 11.5439C37.9761 12.2349 32.5566 12.9525 27.1371 13.7031C25.2589 13.9643 22.6368 14.8439 22.0383 16.8973C21.5026 18.7291 23.1758 20.0286 24.9514 20.0617C55.0613 20.5775 85.1746 21.0966 115.285 21.6125C121.693 21.7216 128.101 21.834 134.509 21.9431C125.29 22.9516 116.085 24.1123 106.906 25.425C92.5119 27.4883 78.1778 29.9352 63.9065 32.7227C62.3656 33.0236 60.18 34.3727 59.9452 36.102C59.717 37.7553 61.539 38.8366 63.0005 38.8498C97.2437 39.1474 131.487 39.4483 165.73 39.7459C175.385 39.8286 185.037 39.9145 194.693 39.9972C196.905 40.017 199.742 39.3855 200.856 37.213C201.851 35.2688 199.987 33.6518 198.085 33.6353C165.122 33.3476 132.158 33.0599 99.1946 32.7723C100.114 32.6334 101.03 32.4912 101.949 32.3556C114.405 30.5105 126.904 28.9465 139.429 27.6669C164.493 25.1076 189.67 23.6824 214.863 23.4013C215.977 23.3881 217.105 23.3815 218.229 23.3749C230.999 23.5931 243.766 23.8147 256.536 24.0329C258.745 24.0693 261.592 23.408 262.7 21.2487C263.718 19.2648 261.813 17.7471 259.929 17.671C246.897 17.1486 233.853 16.9237 220.812 16.9998C203.74 16.7055 186.668 16.4145 169.596 16.1202C139.486 15.6044 109.372 15.0852 79.2624 14.5694C76.8353 14.5264 74.405 14.4867 71.9779 14.4438C87.7438 12.7673 103.536 11.3488 119.348 10.1948C152.312 9.6095 185.279 9.02754 218.242 8.44227C238.307 8.08515 258.371 7.73135 278.432 7.37423C280.274 7.34117 282.979 6.07804 283.531 4.18005C284.074 2.32505 282.387 1.08176 280.618 1.01563C247.377 -0.221039 214.096 -0.330157 180.851 0.698197Z" fill="#82B74C"/>
</g>
<defs>
<clipPath id="clip0_3121_2840">
<rect width="283.634" height="40" fill="white"/>
</clipPath>
</defs>
</svg>
