<svg width="130" height="130" viewBox="0 0 130 130" fill="none" xmlns="http://www.w3.org/2000/svg">
<path d="M55.4982 3.68402C26.1528 3.68402 2.27905 27.294 2.27905 56.3183C2.27905 85.3426 26.1514 108.953 55.4982 108.953C64.2607 108.953 72.5267 106.849 79.8284 103.104C80.9512 100.342 82.6778 97.842 84.8839 95.794C84.3705 95.3253 83.8965 94.8175 83.4226 94.3096C75.591 99.9849 65.9376 103.311 55.5044 103.311C29.2949 103.311 7.98937 82.2393 7.98937 56.3179C7.98937 30.3964 29.2949 9.32502 55.5044 9.32502C81.7138 9.32502 103.019 30.3964 103.019 56.3179C103.019 57.579 102.963 58.8346 102.85 60.079H108.571C108.684 58.8402 108.724 57.579 108.724 56.3179C108.724 27.295 84.8514 3.68359 55.5046 3.68359L55.4982 3.68402Z" fill="#82B74C"/>
<path d="M55.4984 13.0801C31.3993 13.0801 11.7866 32.4772 11.7866 56.3115C11.7866 80.1458 31.3993 99.5429 55.4984 99.5429C65.096 99.5429 73.9887 96.4627 81.211 91.2561C80.201 89.5652 79.4223 87.7405 78.9315 85.8264C72.945 90.5082 65.5139 93.4212 57.4006 93.8175V93.9124C57.4006 94.9448 56.543 95.793 55.4991 95.793C54.4553 95.793 53.5977 94.9447 53.5977 93.9124V90.1512C53.5977 89.1189 54.4553 88.2707 55.4991 88.2707C56.5091 88.2707 57.3216 89.0575 57.3781 90.0564C65.4184 89.6267 72.6964 86.4291 78.3225 81.4682C78.3056 81.2227 78.3056 80.9995 78.3056 80.7539V76.9761C75.9696 75.2294 74.5026 72.4839 74.5026 69.4761C74.5026 64.2864 78.7626 60.0788 84.0043 60.0788H89.4379C89.5113 59.4594 89.5733 58.8176 89.6072 58.1815C88.5972 58.1257 87.8016 57.3166 87.8016 56.3232C87.8016 55.2909 88.6593 54.4427 89.7031 54.4427H93.506C94.5499 54.4427 95.4075 55.2909 95.4075 56.3232C95.4075 57.3556 94.5499 58.2038 93.506 58.2038H93.4101C93.3706 58.8455 93.3368 59.465 93.2578 60.0844H99.0355C99.1484 58.8455 99.2048 57.5844 99.2048 56.3232C99.2048 32.4889 79.5921 13.0918 55.493 13.0918L55.4984 13.0801ZM55.4984 63.8329C53.6534 63.8329 51.8873 63.1577 50.4993 61.9524H32.6922C29.555 61.9524 26.9878 59.4134 26.9878 56.3106C26.9878 53.2079 29.555 50.6689 32.6922 50.6689H49.8002V22.4718C49.8002 19.3691 52.3674 16.8301 55.5046 16.8301C57.045 16.8301 58.4894 17.4328 59.5502 18.5042C60.5941 19.5198 61.2034 20.9484 61.2034 22.4718V51.3832C62.3601 52.7169 63.1048 54.4078 63.1048 56.3106C63.1048 60.4624 59.7025 63.8274 55.5046 63.8274L55.4984 63.8329Z" fill="#82B74C"/>
<path d="M57.3994 49.0629V22.4844C57.3994 21.9766 57.2075 21.5245 56.8464 21.1897C56.4684 20.7935 56.0114 20.6094 55.4979 20.6094C54.4541 20.6094 53.5964 21.4576 53.5964 22.4899V49.0857C54.2227 48.9182 54.849 48.8011 55.4979 48.8011C56.1637 48.8011 56.79 48.9123 57.3994 49.0629Z" fill="#82B74C"/>
<path d="M59.2959 56.3178C59.2959 54.2475 57.5863 52.5566 55.493 52.5566C54.4266 52.5566 53.4222 53.0087 52.6775 53.8178C52.3164 54.214 51.8029 54.4372 51.2725 54.4372H32.6869C31.643 54.4372 30.7854 55.2854 30.7854 56.3178C30.7854 57.3501 31.643 58.1984 32.6869 58.1984H51.2725C51.8029 58.1984 52.3164 58.4216 52.6775 58.8178C53.4166 59.6269 54.4266 60.0789 55.493 60.0789C57.5863 60.0789 59.2959 58.3881 59.2959 56.3178Z" fill="#82B74C"/>
<path d="M123.5 116.686C123.765 116.039 123.918 115.33 123.918 114.588V110.827C123.918 104.281 120.132 98.6001 114.613 95.7881C120.132 92.9755 123.918 87.3004 123.918 80.7495V76.9884C123.918 76.2462 123.765 75.5431 123.5 74.8901C125.921 74.2428 127.721 72.0664 127.721 69.4659C127.721 66.3576 125.165 63.8242 122.016 63.8242H84.0042C80.8614 63.8242 78.2998 66.3521 78.2998 69.4659C78.2998 72.0664 80.0941 74.2371 82.5203 74.8901C82.2551 75.5374 82.1028 76.2461 82.1028 76.9884V80.7495C82.1028 87.2952 85.8888 92.9761 91.407 95.7881C85.8888 98.6006 82.1028 104.276 82.1028 110.827V114.588C82.1028 115.33 82.2551 116.033 82.5203 116.686C80.0997 117.333 78.2998 119.51 78.2998 122.11C78.2998 125.219 80.8557 127.752 84.0042 127.752H122.016C125.159 127.752 127.721 125.224 127.721 122.11C127.721 119.51 125.926 117.339 123.5 116.686ZM84.0032 67.5961H122.015C123.065 67.5961 123.917 68.4387 123.917 69.4766C123.917 70.5146 123.065 71.3572 122.015 71.3572H84.0032C82.9537 71.3572 82.1017 70.5146 82.1017 69.4766C82.1017 68.4387 82.9537 67.5961 84.0032 67.5961ZM85.9047 80.7545V76.9934C85.9047 75.9554 86.7567 75.1128 87.8061 75.1128H118.213C119.263 75.1128 120.115 75.9554 120.115 76.9934V80.7545C120.115 88.0089 114.145 93.9129 106.81 93.9129H99.2097C91.8747 93.9129 85.9047 88.0089 85.9047 80.7545ZM85.9047 110.827C85.9047 103.573 91.8743 97.6689 99.2093 97.6689H106.81C114.145 97.6689 120.114 103.573 120.114 110.827V114.589C120.114 115.626 119.262 116.469 118.213 116.469H87.8057C86.7562 116.469 85.9042 115.626 85.9042 114.589L85.9047 110.827ZM122.016 123.986H84.0038C82.9543 123.986 82.1023 123.143 82.1023 122.105C82.1023 121.067 82.9543 120.225 84.0038 120.225H122.016C123.065 120.225 123.917 121.067 123.917 122.105C123.917 123.143 123.065 123.986 122.016 123.986Z" fill="#82B74C"/>
</svg>
