<svg width="27" height="28" viewBox="0 0 27 28" fill="none" xmlns="http://www.w3.org/2000/svg">
<g clip-path="url(#clip0_6367_6350)">
<path fill-rule="evenodd" clip-rule="evenodd" d="M0.534366 1.29345C0.158196 1.29345 -0.146484 0.99093 -0.146484 0.617428C-0.146484 0.243925 0.158196 -0.0585938 0.534366 -0.0585938H5.88037C6.21085 -0.0585938 6.48622 0.174119 6.54835 0.484785L7.14718 2.51288H26.4657C26.8418 2.51288 27.1465 2.8154 27.1465 3.1889C27.1465 3.26802 27.1325 3.34482 27.1067 3.4158L23.8781 14.7233C23.8125 15.0293 23.5394 15.2574 23.2124 15.2574H9.33384C8.65299 15.2574 8.03424 15.5332 7.58658 15.9788C7.13892 16.4233 6.86001 17.0377 6.86001 17.7137V17.7312C6.86001 18.4072 7.13775 19.0215 7.58658 19.466C8.03424 19.9105 8.65299 20.1874 9.33384 20.1874H25.3181C25.6943 20.1874 25.999 20.49 25.999 20.8635C25.999 21.237 25.6943 21.5395 25.3181 21.5395H9.33384C8.27682 21.5395 7.3182 21.1113 6.62328 20.4225C5.92836 19.7325 5.49828 18.7795 5.49828 17.7311V17.7137C5.49828 16.6641 5.92836 15.7123 6.62328 15.0235C7.26546 14.3859 8.13384 13.9728 9.09594 13.9123L6.00564 3.43316C5.99158 3.39709 5.97986 3.35753 5.97283 3.31913L5.374 1.29104H0.535299L0.534366 1.29345ZM21.3388 22.9857C22.0431 22.9857 22.6829 23.2696 23.1446 23.7281C23.6075 24.1865 23.8923 24.8207 23.8923 25.5211C23.8923 26.2204 23.6063 26.8557 23.1446 27.3141C22.6829 27.7738 22.0442 28.0565 21.3388 28.0565C20.6345 28.0565 19.9946 27.7726 19.5329 27.3141C19.07 26.8557 18.7853 26.2216 18.7853 25.5211C18.7853 24.8218 19.0712 24.1865 19.5329 23.7281C19.9946 23.2684 20.6333 22.9857 21.3388 22.9857ZM10.0174 22.9857C10.7217 22.9857 11.3615 23.2696 11.8232 23.7281C12.2849 24.1865 12.5709 24.8207 12.5709 25.5211C12.5709 26.2204 12.2849 26.8557 11.8232 27.3141C11.3603 27.7738 10.7228 28.0565 10.0174 28.0565C9.31306 28.0565 8.67322 27.7726 8.21152 27.3141C7.74979 26.8557 7.46386 26.2216 7.46386 25.5211C7.46386 24.8218 7.74979 24.1865 8.21152 23.7281C8.67442 23.2684 9.31192 22.9857 10.0174 22.9857Z" fill="#82B74C"/>
</g>
<defs>
<clipPath id="clip0_6367_6350">
<rect width="27" height="28" fill="white"/>
</clipPath>
</defs>
</svg>
