<svg width="33" height="22" viewBox="0 0 33 22" fill="none" xmlns="http://www.w3.org/2000/svg">
<g clip-path="url(#clip0_6367_6354)">
<path d="M33.0485 20.9682V14.1406H25.361V15.726C25.361 16.7958 24.5026 17.6641 23.445 17.6641H8.48584V20.9638C8.48584 21.6157 9.01024 22.1432 9.65187 22.1432H31.8781C32.5227 22.1432 33.0441 21.6128 33.0441 20.9638L33.0485 20.9682Z" fill="#82B74C"/>
<path d="M31.8825 5.18555H25.3608V8.26892H33.0483V6.36497C33.0483 5.71302 32.5241 5.18555 31.8825 5.18555Z" fill="#82B74C"/>
<path d="M25.3608 9.02734H33.0483V13.3849H25.3608V9.02734Z" fill="#82B74C"/>
<path d="M23.445 16.9096C24.0896 16.9096 24.611 16.3791 24.611 15.7301V1.12669C24.611 0.474735 24.0866 -0.0527344 23.445 -0.0527344H1.21876C0.574209 -0.0527344 0.0527344 0.477693 0.0527344 1.12669V15.7301C0.0527344 16.3821 0.577134 16.9096 1.21876 16.9096H23.445ZM2.76001 3.90795C2.76001 3.19822 3.32982 2.62186 4.03148 2.62186H8.19023C8.8919 2.62186 9.46171 3.19822 9.46171 3.90795V6.33197C9.46171 7.0417 8.8919 7.61806 8.19023 7.61806H4.03148C3.32982 7.61806 2.76001 7.0417 2.76001 6.33197V3.90795ZM2.76001 13.5003V11.1785C2.76001 10.7726 3.08667 10.4421 3.48803 10.4421H21.1805C21.5819 10.4421 21.9086 10.7726 21.9086 11.1785V13.5003C21.9086 13.9063 21.5819 14.2367 21.1805 14.2367H3.48803C3.08667 14.2367 2.76001 13.9063 2.76001 13.5003Z" fill="#82B74C"/>
<path d="M4.03124 3.37891H8.19449C8.48306 3.37891 8.71597 3.6708 8.71597 3.90638V6.33335C8.71597 6.62525 8.48306 6.86082 8.19449 6.86082H4.03124C3.74267 6.86082 3.50977 6.56893 3.50977 6.33335V3.90638C3.50977 3.61448 3.74267 3.37891 4.03124 3.37891Z" fill="#82B74C"/>
<path d="M3.48779 11.2014L3.50977 13.4995L21.1539 13.4773V11.1777L3.48779 11.2014Z" fill="#82B74C"/>
</g>
<defs>
<clipPath id="clip0_6367_6354">
<rect width="33" height="22" fill="white"/>
</clipPath>
</defs>
</svg>
