<svg width="29" height="34" viewBox="0 0 29 34" fill="none" xmlns="http://www.w3.org/2000/svg">
<path d="M10.1086 27.5572C8.99262 27.5572 8.08439 28.4654 8.08439 29.5819C8.08439 30.6983 8.99262 31.6065 10.1086 31.6065C11.2251 31.6065 12.1333 30.6983 12.1333 29.5819C12.1333 28.4654 11.2251 27.5572 10.1086 27.5572ZM10.1086 30.7263C9.47787 30.7263 8.96459 30.213 8.96459 29.5819C8.96459 28.9511 9.47787 28.4374 10.1086 28.4374C10.7398 28.4374 11.2531 28.9511 11.2531 29.5819C11.2531 30.213 10.7398 30.7263 10.1086 30.7263ZM7.64408 2.47008C7.64408 2.22684 7.84115 2.02977 8.08439 2.02977H12.1333C12.3765 2.02977 12.5736 2.22684 12.5736 2.47008C12.5736 2.71332 12.3765 2.91039 12.1333 2.91039H8.08439C7.84115 2.91039 7.64408 2.71332 7.64408 2.47008ZM24.2166 15.6982C24.2166 12.8214 23.096 10.1165 21.0619 8.08233C20.7551 7.77519 20.368 7.59667 19.9681 7.54184V3.3206C19.9681 1.6274 18.5907 0.25 16.8979 0.25H3.32018C1.6274 0.25 0.25 1.6274 0.25 3.3206V30.359C0.25 32.0522 1.6274 33.4296 3.32018 33.4296H16.8975C18.5903 33.4296 19.9677 32.0522 19.9677 30.359V23.8554C20.3804 23.7989 20.7621 23.613 21.0615 23.3137C23.096 21.2795 24.2166 18.575 24.2166 15.6982ZM19.0875 30.359C19.0875 31.5669 18.1046 32.549 16.8975 32.549H3.32018C2.11264 32.549 1.1302 31.5665 1.1302 30.359V3.3206C1.1302 2.11264 2.11264 1.13061 3.32018 1.13061H16.8975C18.1051 1.13061 19.0875 2.11264 19.0875 3.3206V7.62677C18.8187 7.71829 18.5656 7.86877 18.3524 8.08233C17.6054 8.82936 17.6054 10.0452 18.3524 10.7918C19.663 12.1024 20.3845 13.8446 20.3845 15.6982C20.3845 17.5518 19.663 19.2936 18.3524 20.6042C17.9904 20.9662 17.7913 21.4473 17.7913 21.959C17.7913 22.471 17.9904 22.9521 18.3524 23.3137C18.5627 23.5239 18.8137 23.6773 19.0875 23.7709V30.359ZM19.7071 22.9942C19.4301 22.9942 19.17 22.8866 18.9745 22.6912C18.7791 22.4953 18.6715 22.2356 18.6715 21.959C18.6715 21.6823 18.7795 21.4222 18.9749 21.2268C20.4517 19.7504 21.2647 17.7864 21.2647 15.6982C21.2647 13.6096 20.4517 11.6464 18.9749 10.1697C18.5709 9.76563 18.5709 9.10847 18.9749 8.70486C19.177 8.50284 19.4421 8.40184 19.7071 8.40184C19.9722 8.40184 20.2373 8.50284 20.4393 8.70486C22.3069 10.5729 23.336 13.0564 23.336 15.6982C23.336 18.3396 22.3069 20.8236 20.4389 22.6916C20.2439 22.887 19.9838 22.9942 19.7071 22.9942ZM24.1539 4.98988C23.4069 4.24285 22.1915 4.24285 21.4449 4.98988C20.6978 5.73692 20.6978 6.95229 21.4449 7.69933C23.5813 9.83613 24.7579 12.6767 24.7579 15.6982C24.7579 18.7202 23.5813 21.5603 21.4449 23.6967C21.0829 24.0587 20.8838 24.5398 20.8838 25.0514C20.8838 25.563 21.0829 26.0446 21.4449 26.4061C21.8068 26.7681 22.288 26.9672 22.7996 26.9672C23.3108 26.9672 23.7919 26.7681 24.1539 26.4061C27.0142 23.5462 28.5899 19.743 28.5899 15.6982C28.5899 11.6534 27.0147 7.85022 24.1539 4.98988ZM23.5318 25.7836C23.3364 25.9794 23.0766 26.0866 22.8 26.0866C22.5234 26.0866 22.2628 25.979 22.0674 25.7836C21.872 25.5878 21.7644 25.328 21.7644 25.0514C21.7644 24.7748 21.8724 24.5146 22.0678 24.3196C24.3703 22.0163 25.6385 18.9547 25.6385 15.6982C25.6385 12.4413 24.3703 9.37975 22.0678 7.07721C21.6638 6.67319 21.6638 6.01603 22.0678 5.61241C22.2694 5.4104 22.5349 5.30939 22.8 5.30939C23.0651 5.30939 23.3306 5.4104 23.5318 5.61241C26.226 8.3066 27.7097 11.8884 27.7093 15.6982C27.7089 19.5076 26.226 23.0898 23.5318 25.7836ZM17.922 11.2226C17.8325 11.1335 17.7369 11.0548 17.6351 10.986V5.48502C17.6351 4.56277 16.8847 3.81244 15.9625 3.81244H4.25522C3.33296 3.81244 2.58263 4.56277 2.58263 5.48502V25.0044C2.58263 25.9267 3.33296 26.6774 4.25522 26.6774H15.9625C16.8843 26.6774 17.6351 25.9271 17.6351 25.0044V20.4101C17.7369 20.3412 17.8325 20.2625 17.922 20.1738C20.3894 17.706 20.3894 13.6905 17.922 11.2226ZM16.7549 25.004C16.7549 25.4414 16.3991 25.7968 15.9625 25.7968H4.25522C3.81821 25.7968 3.46283 25.4414 3.46283 25.004V5.48502C3.46283 5.04842 3.81821 4.69305 4.25522 4.69305H15.9625C16.3991 4.69305 16.7549 5.04842 16.7549 5.48502V10.6706C16.6926 10.6644 16.6299 10.6615 16.5673 10.6615C16.0552 10.6615 15.5741 10.8606 15.2126 11.2222C14.8506 11.5842 14.651 12.0653 14.651 12.5769C14.651 13.089 14.8506 13.5701 15.2121 13.932C15.6834 14.4029 15.9423 15.0299 15.9423 15.6982C15.9423 16.3661 15.6834 16.9932 15.2121 17.4644C14.4651 18.2114 14.4651 19.4272 15.2121 20.1738C15.5741 20.5358 16.0552 20.7349 16.5673 20.7349C16.6295 20.7349 16.6926 20.7316 16.7549 20.7259V25.004ZM17.2991 19.5513C17.1032 19.7471 16.8439 19.8547 16.5673 19.8547C16.2902 19.8547 16.0305 19.7467 15.8347 19.5513C15.4311 19.1477 15.4311 18.4905 15.8347 18.0865C16.4716 17.4495 16.8229 16.6011 16.8229 15.6982C16.8229 14.7953 16.4716 13.9465 15.8347 13.3095C15.6393 13.1137 15.5312 12.8535 15.5312 12.5769C15.5312 12.3003 15.6397 12.0405 15.8347 11.8447C16.0309 11.6493 16.2902 11.5417 16.5673 11.5417C16.8439 11.5417 17.1036 11.6493 17.2991 11.8447C19.4239 13.9696 19.4239 17.4269 17.2991 19.5513Z" fill="#82B74C" stroke="#82B74C" stroke-width="0.5"/>
</svg>
